<?xml version="1.0" encoding="UTF-8" standalone="no"?>
<!-- Created with Inkscape (http://www.inkscape.org/) -->

<svg
   width="200mm"
   height="200mm"
   viewBox="0 0 200 200"
   version="1.1"
   id="svg1"
   xml:space="preserve"
   inkscape:version="1.3 (0e150ed6c4, 2023-07-21)"
   sodipodi:docname="alfalfa.svg"
   inkscape:export-filename="alfalfa.png"
   inkscape:export-xdpi="238.125"
   inkscape:export-ydpi="238.125"
   xmlns:inkscape="http://www.inkscape.org/namespaces/inkscape"
   xmlns:sodipodi="http://sodipodi.sourceforge.net/DTD/sodipodi-0.dtd"
   xmlns="http://www.w3.org/2000/svg"
   xmlns:svg="http://www.w3.org/2000/svg"><sodipodi:namedview
     id="namedview1"
     pagecolor="#ffffff"
     bordercolor="#000000"
     borderopacity="0.25"
     inkscape:showpageshadow="2"
     inkscape:pageopacity="0.0"
     inkscape:pagecheckerboard="0"
     inkscape:deskcolor="#d1d1d1"
     inkscape:document-units="mm"
     showgrid="true"
     inkscape:zoom="0.70710678"
     inkscape:cx="185.26198"
     inkscape:cy="365.57421"
     inkscape:window-width="1920"
     inkscape:window-height="1017"
     inkscape:window-x="-8"
     inkscape:window-y="-8"
     inkscape:window-maximized="1"
     inkscape:current-layer="layer1"><inkscape:grid
       id="grid1"
       units="mm"
       originx="0"
       originy="0"
       spacingx="0.99999998"
       spacingy="1"
       empcolor="#0099e5"
       empopacity="0.30196078"
       color="#0099e5"
       opacity="0.14901961"
       empspacing="5"
       dotted="false"
       gridanglex="30"
       gridanglez="30"
       visible="true" /></sodipodi:namedview><defs
     id="defs1"><clipPath
       clipPathUnits="userSpaceOnUse"
       id="clipPath86"><rect
         style="fill:#f9fcfe;fill-opacity:1;stroke-width:0.202006"
         id="rect86"
         width="61.383339"
         height="33.866665"
         x="127.52917"
         y="80.697914" /></clipPath><clipPath
       clipPathUnits="userSpaceOnUse"
       id="clipPath88"><rect
         style="fill:#ffffff;fill-opacity:1;stroke-width:0.264583"
         id="rect89"
         width="98.424995"
         height="32.014584"
         x="44.450001"
         y="133.61458" /></clipPath><clipPath
       clipPathUnits="userSpaceOnUse"
       id="clipPath89"><g
         id="g90"><circle
           style="fill:#b7dff2;stroke-width:0.264583"
           id="circle89"
           cx="91.413544"
           cy="123.825"
           r="30.000002" /></g></clipPath><clipPath
       clipPathUnits="userSpaceOnUse"
       id="clipPath90"><g
         id="g91"><circle
           style="fill:#b7dff2;stroke-width:0.264583"
           id="circle90"
           cx="91.413544"
           cy="123.825"
           r="30.000002" /></g></clipPath><clipPath
       clipPathUnits="userSpaceOnUse"
       id="clipPath91"><g
         id="g92"><circle
           style="fill:#b7dff2;stroke-width:0.264583"
           id="circle91"
           cx="91.413544"
           cy="123.825"
           r="30.000002" /></g></clipPath><clipPath
       clipPathUnits="userSpaceOnUse"
       id="clipPath92"><g
         id="g93"><circle
           style="fill:#b7dff2;stroke-width:0.264583"
           id="circle92"
           cx="91.413544"
           cy="123.825"
           r="30.000002" /></g></clipPath><clipPath
       clipPathUnits="userSpaceOnUse"
       id="clipPath93"><g
         id="g94"><circle
           style="fill:#b7dff2;stroke-width:0.264583"
           id="circle93"
           cx="91.413544"
           cy="123.825"
           r="30.000002" /></g></clipPath><clipPath
       clipPathUnits="userSpaceOnUse"
       id="clipPath94"><g
         id="g95"><circle
           style="fill:#b7dff2;stroke-width:0.264583"
           id="circle94"
           cx="91.413544"
           cy="123.825"
           r="30.000002" /></g></clipPath><clipPath
       clipPathUnits="userSpaceOnUse"
       id="clipPath95"><g
         id="g96"><circle
           style="fill:#b7dff2;stroke-width:0.264583"
           id="circle95"
           cx="91.413544"
           cy="123.825"
           r="30.000002" /></g></clipPath><clipPath
       clipPathUnits="userSpaceOnUse"
       id="clipPath96"><g
         id="g97"><circle
           style="fill:#b7dff2;stroke-width:0.264583"
           id="circle96"
           cx="91.413544"
           cy="123.825"
           r="30.000002" /></g></clipPath><clipPath
       clipPathUnits="userSpaceOnUse"
       id="clipPath97"><g
         id="g98"><circle
           style="fill:#b7dff2;stroke-width:0.264583"
           id="circle97"
           cx="91.413544"
           cy="123.825"
           r="30.000002" /></g></clipPath><clipPath
       clipPathUnits="userSpaceOnUse"
       id="clipPath98"><g
         id="g99"><circle
           style="fill:#b7dff2;stroke-width:0.264583"
           id="circle98"
           cx="91.413544"
           cy="123.825"
           r="30.000002" /></g></clipPath><clipPath
       clipPathUnits="userSpaceOnUse"
       id="clipPath99"><g
         id="g100"><circle
           style="fill:#b7dff2;stroke-width:0.264583"
           id="circle99"
           cx="91.413544"
           cy="123.825"
           r="30.000002" /></g></clipPath></defs><g
     inkscape:label="Layer 1"
     inkscape:groupmode="layer"
     id="layer1"><g
       id="g101"
       transform="matrix(3.2876166,0,0,3.3000891,-200.53268,-308.63351)"><circle
         style="fill:#d1ebf7;fill-opacity:1;stroke-width:0.264583"
         id="path10"
         cx="91.413544"
         cy="123.82499"
         r="30" /><circle
         style="fill:#3eb155;fill-opacity:1;stroke-width:0.264583"
         id="circle88"
         cx="91.413544"
         cy="123.82499"
         r="30"
         clip-path="url(#clipPath88)" /><path
         style="fill:#178039;fill-opacity:1;stroke-width:0.288575"
         d="m 64.274459,136.18473 -2.815259,-8.64926 3.358805,-10.26866 c 0,0 8.907127,-4.81804 8.783624,-2.35779 -0.123514,2.46024 2.039349,11.2941 2.039349,11.2941 l -3.830008,4.14729 -4.861104,6.4814 10.656456,-5.95127 c 0,0 7.17631,-2.03065 8.149738,-0.51903 0.973419,1.51161 7.49517,8.47384 7.49517,8.47384 l -14.928838,2.05433 -7.56319,-1.05107 11.91175,2.75646 c 0,0 8.318418,5.5603 7.779195,6.86171 -0.539212,1.3014 1.152437,4.0139 -4.482404,4.33188 -5.634841,0.31799 -13.445036,4.1874 -14.105601,-0.85921 -0.660564,-5.04661 -1.557805,-8.74978 -1.557805,-8.74978 l -5.019453,-3.17497 14.317784,-16.17788 13.949838,-9.69142 1.162354,-7.47713 0.105005,-4.11442 -2.262401,11.52208 -10.098748,6.30406 -4.741725,3.86578 -3.135397,3.02227 -10.875185,11.15096 z"
         id="path2"
         sodipodi:nodetypes="cccsccccsccccssscccccccccccc"
         clip-path="url(#clipPath99)" /><path
         style="fill:#b564e1;fill-opacity:1;stroke-width:0.288575"
         d="m 94.853746,109.94853 2.054014,-9.89945 c 0,0 1.312492,3.96354 0.821075,5.89472 -0.392952,1.54424 -2.875089,4.00473 -2.875089,4.00473 z"
         id="path3"
         sodipodi:nodetypes="ccac"
         clip-path="url(#clipPath98)" /><path
         style="fill:#b564e1;fill-opacity:1;stroke-width:0.288575"
         d="m 80.501001,124.12586 c 0,0 5.08253,-3.07247 7.970718,-3.02131 2.87373,0.0509 7.789536,3.28467 7.789536,3.28467 0,0 -6.469064,0.70472 -9.709716,0.57749 -2.039392,-0.0801 -6.050538,-0.84085 -6.050538,-0.84085 z"
         id="path4"
         sodipodi:nodetypes="cacac"
         clip-path="url(#clipPath97)" /><path
         style="fill:#b564e1;fill-opacity:1;stroke-width:0.288575"
         d="m 84.416434,118.61411 c 0,0 0.460587,-3.84515 1.296612,-5.60042 0.836025,-1.75528 3.622158,-4.7267 3.622158,-4.7267 0,0 0.777229,4.38329 -0.18118,6.30596 -0.88429,1.77397 -4.73759,4.02116 -4.73759,4.02116 z"
         id="path5"
         sodipodi:nodetypes="cacac"
         clip-path="url(#clipPath96)" /><path
         style="fill:#b564e1;fill-opacity:1;stroke-width:0.288575"
         d="m 87.82147,119.60882 c 0,0 4.884509,-2.68913 7.538234,-2.41652 2.754477,0.28292 6.973176,4.02835 6.973176,4.02835 0,0 -6.540007,0.76861 -9.723405,0.22266 -1.706648,-0.29273 -4.788005,-1.83449 -4.788005,-1.83449 z"
         id="path6"
         sodipodi:nodetypes="cacac"
         clip-path="url(#clipPath95)" /><path
         style="fill:#b564e1;fill-opacity:1;stroke-width:0.288575"
         d="m 92.528625,116.98879 c 0,0 1.600194,-2.79092 3.082947,-3.42529 1.768818,-0.75676 5.890028,-0.007 5.890028,-0.007 0,0 -2.851486,1.81019 -4.453564,2.40902 -1.43294,0.53561 -4.519411,1.02353 -4.519411,1.02353 z"
         id="path7"
         sodipodi:nodetypes="cacac"
         clip-path="url(#clipPath94)" /><path
         style="fill:#b564e1;fill-opacity:1;stroke-width:0.288575"
         d="m 90.42793,114.83881 c 0,0 -0.671625,-3.91542 -0.216016,-5.81064 0.289873,-1.20583 1.825493,-3.32478 1.825493,-3.32478 0,0 0.695861,4.29414 0.121341,6.34802 -0.288022,1.02977 -1.730818,2.7874 -1.730818,2.7874 z"
         id="path8"
         sodipodi:nodetypes="cacac"
         clip-path="url(#clipPath93)" /><path
         style="fill:#b564e1;fill-opacity:1;stroke-width:0.288575"
         d="m 93.414699,108.44101 c 0,0 -1.161339,-3.24928 -1.615485,-4.90404 -0.282923,-1.03089 -0.689392,-3.12375 -0.689392,-3.12375 0,0 2.353563,2.25579 2.759754,3.68673 0.400022,1.40918 -0.454877,4.34106 -0.454877,4.34106 z"
         id="path9"
         sodipodi:nodetypes="cacac"
         clip-path="url(#clipPath92)" /><path
         style="fill:#b564e1;fill-opacity:1;stroke-width:0.288575"
         d="m 81.73937,110.20066 c 0,0 2.736124,4.48841 2.274107,6.82525 -0.479584,2.42559 -4.936784,5.94634 -4.936784,5.94634 0,0 -0.48041,-5.84358 0.319923,-8.63403 0.429069,-1.49598 2.342754,-4.13756 2.342754,-4.13756 z"
         id="path15"
         sodipodi:nodetypes="cacac"
         clip-path="url(#clipPath91)" /><path
         style="fill:#b564e1;fill-opacity:1;stroke-width:0.288575"
         d="m 94.383667,113.7548 c 0,0 1.307365,-3.02077 2.192125,-4.42906 0.964331,-1.53501 3.370736,-4.34118 3.370736,-4.34118 0,0 -0.208126,4.12727 -1.379126,5.812 -0.936367,1.34716 -4.183735,2.95824 -4.183735,2.95824 z"
         id="path16"
         sodipodi:nodetypes="cacac"
         clip-path="url(#clipPath90)" /><path
         style="fill:#b564e1;fill-opacity:1;stroke-width:0.288575"
         d="m 94.760693,103.87971 c 0,0 -1.29725,-3.22446 -1.615485,-4.904048 -0.125396,-0.661849 -0.110588,-2.011058 -0.110588,-2.011058 0,0 1.623024,1.990987 1.923179,3.157566 0.314494,1.22237 -0.197106,3.75754 -0.197106,3.75754 z"
         id="path17"
         sodipodi:nodetypes="cacac"
         clip-path="url(#clipPath89)" /></g></g></svg>
