<?xml version="1.0" encoding="UTF-8" standalone="no"?>
<!-- Created with Inkscape (http://www.inkscape.org/) -->

<!-- Created by jefParil -->

<!-- <a rel="license" href="http://creativecommons.org/licenses/by-nc/4.0/"><img alt="Creative Commons License" style="border-width:0" src="https://i.creativecommons.org/l/by-nc/4.0/88x31.png" /></a><br />This work is licensed under a <a rel="license" href="http://creativecommons.org/licenses/by-nc/4.0/">Creative Commons Attribution-NonCommercial 4.0 International License</a>. -->

<svg
   xmlns:dc="http://purl.org/dc/elements/1.1/"
   xmlns:cc="http://creativecommons.org/ns#"
   xmlns:rdf="http://www.w3.org/1999/02/22-rdf-syntax-ns#"
   xmlns:svg="http://www.w3.org/2000/svg"
   xmlns="http://www.w3.org/2000/svg"
   xmlns:sodipodi="http://sodipodi.sourceforge.net/DTD/sodipodi-0.dtd"
   xmlns:inkscape="http://www.inkscape.org/namespaces/inkscape"
   width="2000"
   height="2000"
   viewBox="0 0 529.16665 529.16668"
   version="1.1"
   id="svg8"
   sodipodi:docname="cricket_001.svg"
   inkscape:version="0.92.4 (unknown)"
   inkscape:export-filename="/home/student.unimelb.edu.au/jparil/cricket.png"
   inkscape:export-xdpi="90"
   inkscape:export-ydpi="90">
  <defs
     id="defs2">
    <clipPath
       clipPathUnits="userSpaceOnUse"
       id="clipPath821">
      <circle
         r="264.58337"
         cy="32.416653"
         cx="264.58337"
         id="circle823"
         style="opacity:1;fill:#ffb5b5;fill-opacity:1;fill-rule:nonzero;stroke:none;stroke-width:0.3671532;stroke-miterlimit:4;stroke-dasharray:none;stroke-dashoffset:0;stroke-opacity:1" />
    </clipPath>
    <clipPath
       clipPathUnits="userSpaceOnUse"
       id="clipPath1037">
      <rect
         y="30.238077"
         x="442.98813"
         height="294.82144"
         width="63.5"
         id="rect1039"
         style="opacity:1;fill:#fffac9;fill-opacity:1;fill-rule:nonzero;stroke:none;stroke-width:5;stroke-miterlimit:4;stroke-dasharray:none;stroke-dashoffset:0;stroke-opacity:1" />
    </clipPath>
    <clipPath
       clipPathUnits="userSpaceOnUse"
       id="clipPath1139">
      <rect
         style="opacity:1;fill:#fffac9;fill-opacity:1;fill-rule:nonzero;stroke:none;stroke-width:3.53553391;stroke-miterlimit:4;stroke-dasharray:none;stroke-dashoffset:0;stroke-opacity:1"
         id="rect1141"
         width="31.75"
         height="294.82144"
         x="604.53113"
         y="16.630957" />
    </clipPath>
    <clipPath
       clipPathUnits="userSpaceOnUse"
       id="clipPath1143">
      <rect
         style="opacity:1;fill:#fffac9;fill-opacity:1;fill-rule:nonzero;stroke:none;stroke-width:2.18217897;stroke-miterlimit:4;stroke-dasharray:none;stroke-dashoffset:0;stroke-opacity:1"
         id="rect1145"
         width="12.095238"
         height="294.82144"
         x="643.38739"
         y="37.797626" />
    </clipPath>
    <clipPath
       clipPathUnits="userSpaceOnUse"
       id="clipPath1147">
      <rect
         style="opacity:1;fill:#fffac9;fill-opacity:1;fill-rule:nonzero;stroke:none;stroke-width:2.18217897;stroke-miterlimit:4;stroke-dasharray:none;stroke-dashoffset:0;stroke-opacity:1"
         id="rect1149"
         width="12.095238"
         height="294.82144"
         x="584.8006"
         y="37.797626" />
    </clipPath>
    <clipPath
       clipPathUnits="userSpaceOnUse"
       id="clipPath1166">
      <rect
         style="opacity:1;fill:#fffac9;fill-opacity:1;fill-rule:nonzero;stroke:none;stroke-width:5;stroke-miterlimit:4;stroke-dasharray:none;stroke-dashoffset:0;stroke-opacity:1"
         id="rect1168"
         width="198.05951"
         height="61.988094"
         x="-353.78568"
         y="-169.33333" />
    </clipPath>
    <clipPath
       clipPathUnits="userSpaceOnUse"
       id="clipPath1194">
      <rect
         style="opacity:1;fill:#fffac9;fill-opacity:1;fill-rule:nonzero;stroke:none;stroke-width:4.10997486;stroke-miterlimit:4;stroke-dasharray:none;stroke-dashoffset:0;stroke-opacity:1"
         id="rect1196"
         width="264.58337"
         height="27.214285"
         x="-401.83466"
         y="-14.817155" />
    </clipPath>
    <clipPath
       clipPathUnits="userSpaceOnUse"
       id="clipPath1344">
      <rect
         y="-41.805096"
         x="-401.83469"
         height="9.0714273"
         width="264.58337"
         id="rect1346"
         style="opacity:1;fill:#fffac9;fill-opacity:1;fill-rule:nonzero;stroke:none;stroke-width:2.372895;stroke-miterlimit:4;stroke-dasharray:none;stroke-dashoffset:0;stroke-opacity:1" />
    </clipPath>
    <clipPath
       clipPathUnits="userSpaceOnUse"
       id="clipPath1348">
      <rect
         y="-41.805096"
         x="-401.83469"
         height="9.0714273"
         width="264.58337"
         id="rect1350"
         style="opacity:1;fill:#fffac9;fill-opacity:1;fill-rule:nonzero;stroke:none;stroke-width:2.372895;stroke-miterlimit:4;stroke-dasharray:none;stroke-dashoffset:0;stroke-opacity:1" />
    </clipPath>
    <clipPath
       clipPathUnits="userSpaceOnUse"
       id="clipPath1408">
      <rect
         y="42.105625"
         x="-612.32141"
         height="9.0714273"
         width="264.58337"
         id="rect1410"
         style="opacity:1;fill:#fffac9;fill-opacity:1;fill-rule:nonzero;stroke:none;stroke-width:2.372895;stroke-miterlimit:4;stroke-dasharray:none;stroke-dashoffset:0;stroke-opacity:1" />
    </clipPath>
    <clipPath
       clipPathUnits="userSpaceOnUse"
       id="clipPath1412">
      <rect
         y="42.105625"
         x="-612.32141"
         height="9.0714273"
         width="264.58337"
         id="rect1414"
         style="opacity:1;fill:#fffac9;fill-opacity:1;fill-rule:nonzero;stroke:none;stroke-width:2.372895;stroke-miterlimit:4;stroke-dasharray:none;stroke-dashoffset:0;stroke-opacity:1" />
    </clipPath>
    <clipPath
       clipPathUnits="userSpaceOnUse"
       id="clipPath1416">
      <rect
         y="42.105625"
         x="-612.32141"
         height="9.0714273"
         width="264.58337"
         id="rect1418"
         style="opacity:1;fill:#fffac9;fill-opacity:1;fill-rule:nonzero;stroke:none;stroke-width:2.372895;stroke-miterlimit:4;stroke-dasharray:none;stroke-dashoffset:0;stroke-opacity:1" />
    </clipPath>
    <clipPath
       clipPathUnits="userSpaceOnUse"
       id="clipPath1420">
      <rect
         y="42.105625"
         x="-612.32141"
         height="9.0714273"
         width="264.58337"
         id="rect1422"
         style="opacity:1;fill:#fffac9;fill-opacity:1;fill-rule:nonzero;stroke:none;stroke-width:2.372895;stroke-miterlimit:4;stroke-dasharray:none;stroke-dashoffset:0;stroke-opacity:1" />
    </clipPath>
    <clipPath
       clipPathUnits="userSpaceOnUse"
       id="clipPath1424">
      <rect
         y="521.38031"
         x="-627.44043"
         height="9.0714273"
         width="264.58337"
         id="rect1426"
         style="opacity:1;fill:#fffac9;fill-opacity:1;fill-rule:nonzero;stroke:none;stroke-width:2.372895;stroke-miterlimit:4;stroke-dasharray:none;stroke-dashoffset:0;stroke-opacity:1" />
    </clipPath>
    <clipPath
       clipPathUnits="userSpaceOnUse"
       id="clipPath1428">
      <rect
         y="521.38031"
         x="-627.44043"
         height="9.0714273"
         width="264.58337"
         id="rect1430"
         style="opacity:1;fill:#fffac9;fill-opacity:1;fill-rule:nonzero;stroke:none;stroke-width:2.372895;stroke-miterlimit:4;stroke-dasharray:none;stroke-dashoffset:0;stroke-opacity:1" />
    </clipPath>
    <clipPath
       clipPathUnits="userSpaceOnUse"
       id="clipPath1432">
      <rect
         y="521.38031"
         x="-627.44043"
         height="9.0714273"
         width="264.58337"
         id="rect1434"
         style="opacity:1;fill:#fffac9;fill-opacity:1;fill-rule:nonzero;stroke:none;stroke-width:2.372895;stroke-miterlimit:4;stroke-dasharray:none;stroke-dashoffset:0;stroke-opacity:1" />
    </clipPath>
    <clipPath
       clipPathUnits="userSpaceOnUse"
       id="clipPath1436">
      <rect
         y="521.38031"
         x="-627.44043"
         height="9.0714273"
         width="264.58337"
         id="rect1438"
         style="opacity:1;fill:#fffac9;fill-opacity:1;fill-rule:nonzero;stroke:none;stroke-width:2.372895;stroke-miterlimit:4;stroke-dasharray:none;stroke-dashoffset:0;stroke-opacity:1" />
    </clipPath>
    <clipPath
       clipPathUnits="userSpaceOnUse"
       id="clipPath821-2">
      <circle
         r="264.58337"
         cy="32.416653"
         cx="264.58337"
         id="circle823-9"
         style="opacity:1;fill:#ffb5b5;fill-opacity:1;fill-rule:nonzero;stroke:none;stroke-width:0.3671532;stroke-miterlimit:4;stroke-dasharray:none;stroke-dashoffset:0;stroke-opacity:1" />
    </clipPath>
    <clipPath
       clipPathUnits="userSpaceOnUse"
       id="clipPath1608">
      <rect
         transform="translate(0,232.16668)"
         clip-path="url(#clipPath821-2)"
         y="32.416645"
         x="-1.0172526e-05"
         height="264.58334"
         width="529.16669"
         id="rect1610"
         style="display:inline;opacity:1;fill:#92e38a;fill-opacity:0.51072962;fill-rule:nonzero;stroke:none;stroke-width:0.26458332;stroke-miterlimit:4;stroke-dasharray:none;stroke-dashoffset:0;stroke-opacity:1" />
    </clipPath>
    <clipPath
       clipPathUnits="userSpaceOnUse"
       id="clipPath964">
      <path
         sodipodi:nodetypes="sssss"
         inkscape:connector-curvature="0"
         id="path966"
         d="m 290.30917,366.90779 c -6.15154,0.94205 -24.78477,9.31312 -11.51898,21.32912 9.89208,8.96011 30.85809,10.01929 45.23817,7.21648 14.1166,-2.75145 5.48608,-27.53434 -5.44217,-26.8265 -9.06142,0.58693 -16.12151,-3.58058 -28.27702,-1.7191 z"
         style="fill:#579a3d;fill-opacity:1;fill-rule:evenodd;stroke:none;stroke-width:0.27009323px;stroke-linecap:butt;stroke-linejoin:miter;stroke-opacity:1" />
    </clipPath>
    <clipPath
       clipPathUnits="userSpaceOnUse"
       id="clipPath1002">
      <path
         sodipodi:nodetypes="ccssccsscccaassscccc"
         inkscape:connector-curvature="0"
         d="m 12.601074,294.37742 c 0,0 32.131674,-10.21595 48.389601,-18.37032 41.426615,-4.14251 38.245905,0.0434 80.961375,-11.46235 28.96681,-7.80247 78.2296,-0.60515 82.68789,11.50148 5.74972,15.61354 14.91825,17.92118 3.87587,30.3674 -31.01093,1.45828 -84.79603,6.329 -130.168061,0.42981 83.388971,14.70103 194.319311,-10.39514 232.558531,37.46195 14.65209,18.33737 -2.54304,58.09929 -28.41173,61.662 -56.001,7.71261 -111.20286,-28.08353 -163.40058,-47.04143 0,0 -29.99082,6.23652 -0.95565,24.35998 43.27113,41.78253 124.18689,28.80377 161.63672,63.2998 9.36893,9.3798 13.96783,24.45631 12.7857,37.66083 -2.0752,23.18003 -16.41091,45.64175 -33.83116,61.07404 -15.9155,14.09923 -37.88268,25.02118 -59.11839,23.95498 -19.89604,-0.99892 -48.6738,-19.83224 -52.86229,-27.87884 -4.18847,-8.04656 -45.67894,-43.5492 -59.74181,-55.83046 C 92.944238,473.28503 61.154053,410.57502 45.107086,401.03101 29.060111,391.48703 -84.940149,305.09551 -84.940149,305.09551 l 11.087592,-45.8264 z"
         style="fill:#51c922;fill-opacity:1;fill-rule:evenodd;stroke:none;stroke-width:0.26458332px;stroke-linecap:butt;stroke-linejoin:miter;stroke-opacity:1"
         id="path1004" />
    </clipPath>
    <clipPath
       clipPathUnits="userSpaceOnUse"
       id="clipPath1014">
      <path
         sodipodi:nodetypes="ccssccsscccaaccccc"
         inkscape:connector-curvature="0"
         d="m 100.54706,276.96054 c 0,0 27.57195,-19.40612 40.62497,-32.07232 38.2631,-16.40914 36.48849,-11.46042 73.76639,-35.27958 25.27942,-16.15258 74.42621,-24.10344 82.319,-13.89801 10.17907,13.16163 19.61716,12.60515 12.82895,27.79603 -29.13681,10.71681 -78.9673,31.53707 -124.01306,39.55588 83.94983,-11.05741 182.19772,-68.35236 233.05902,-34.2105 19.4885,13.08211 15.04712,56.17454 -8.55263,67.35191 -51.08916,24.19699 -114.50074,6.65901 -169.98341,4.27633 0,0 -26.72695,14.96708 6.41447,23.51971 53.83345,26.83523 127.10031,-9.87684 173.19065,11.75986 11.75604,6.12804 20.67607,19.12358 23.51971,32.07234 4.99189,22.73107 -1.92519,48.46423 -13.89801,68.42099 -10.93861,18.23288 -29.00416,33.90751 -49.1776,40.62497 C 290.06316,490.40123 226.68464,406.33524 163.62267,368.90127 145.44834,364.62496 10.744504,316.51644 10.744504,316.51644 L 7.5372706,269.47701 Z"
         style="fill:#51c922;fill-opacity:1;fill-rule:evenodd;stroke:none;stroke-width:0.26458332px;stroke-linecap:butt;stroke-linejoin:miter;stroke-opacity:1"
         id="path1016" />
    </clipPath>
  </defs>
  <sodipodi:namedview
     id="base"
     pagecolor="#ffffff"
     bordercolor="#666666"
     borderopacity="1.0"
     inkscape:pageopacity="0.0"
     inkscape:pageshadow="2"
     inkscape:zoom="0.24748738"
     inkscape:cx="-289.12231"
     inkscape:cy="717.87941"
     inkscape:document-units="mm"
     inkscape:current-layer="layer2"
     showgrid="true"
     inkscape:pagecheckerboard="true"
     units="px"
     inkscape:window-width="1920"
     inkscape:window-height="1043"
     inkscape:window-x="0"
     inkscape:window-y="0"
     inkscape:window-maximized="1"
     inkscape:snap-global="false">
    <inkscape:grid
       type="xygrid"
       id="grid888" />
  </sodipodi:namedview>
  <metadata
     id="metadata5">
    <rdf:RDF>
      <cc:Work
         rdf:about="">
        <dc:format>image/svg+xml</dc:format>
        <dc:type
           rdf:resource="http://purl.org/dc/dcmitype/StillImage" />
        <dc:title />
      </cc:Work>
    </rdf:RDF>
  </metadata>
  <g
     inkscape:label="base"
     inkscape:groupmode="layer"
     id="layer1"
     transform="translate(0,232.16668)"
     style="display:inline">
    <circle
       style="opacity:1;fill:#e5f5f9;fill-opacity:1;fill-rule:nonzero;stroke:none;stroke-width:0.3671532;stroke-miterlimit:4;stroke-dasharray:none;stroke-dashoffset:0;stroke-opacity:1"
       id="path815"
       cx="264.58334"
       cy="32.416653"
       r="264.58334" />
    <rect
       style="opacity:1;fill:#2ca25f;fill-opacity:1;fill-rule:nonzero;stroke:none;stroke-width:0.26458332;stroke-miterlimit:4;stroke-dasharray:none;stroke-dashoffset:0;stroke-opacity:1"
       id="rect817"
       width="529.16669"
       height="264.58334"
       x="-1.0172526e-05"
       y="32.416645"
       clip-path="url(#clipPath821)" />
  </g>
  <g
     inkscape:groupmode="layer"
     id="layer2"
     inkscape:label="cricket"
     style="display:inline">
    <g
       id="g1045"
       transform="translate(39.555888,-4.2763123)" />
    <g
       id="g967"
       inkscape:export-filename="/home/student.unimelb.edu.au/jparil/g967.png"
       inkscape:export-xdpi="90"
       inkscape:export-ydpi="90">
      <g
         transform="translate(75.427353,37.761308)"
         id="g1023">
        <path
           style="fill:none;fill-rule:evenodd;stroke:#7e551d;stroke-width:2.64583325;stroke-linecap:butt;stroke-linejoin:miter;stroke-miterlimit:4;stroke-dasharray:none;stroke-opacity:1"
           d="m 203.12483,87.637418 c 0,0 20.4615,-46.354106 41.69404,-48.643053 54.63448,-5.8898 131.49661,99.424265 131.49661,99.424265"
           id="path1017"
           inkscape:connector-curvature="0"
           sodipodi:nodetypes="cac" />
        <path
           sodipodi:nodetypes="cac"
           inkscape:connector-curvature="0"
           id="path1019"
           d="m 175.18713,84.964723 c 0,0 -20.4615,-46.354106 -41.69404,-48.643053 C 78.858611,30.43187 1.9964806,135.74593 1.9964806,135.74593"
           style="fill:none;fill-rule:evenodd;stroke:#7e551d;stroke-width:2.64583325;stroke-linecap:butt;stroke-linejoin:miter;stroke-miterlimit:4;stroke-dasharray:none;stroke-opacity:1" />
      </g>
      <g
         transform="translate(73.368188,37.761308)"
         id="g1012">
        <g
           transform="matrix(-1,0,0,1,382.43029,-3.2127975)"
           id="g984">
          <path
             style="fill:#7e551d;fill-opacity:1;fill-rule:evenodd;stroke:none;stroke-width:0.4730036px;stroke-linecap:butt;stroke-linejoin:miter;stroke-opacity:1"
             d="m 234.34794,241.69289 c 4.67867,0.0716 57.61212,29.99452 60.14925,35.70832 13.86129,45.49967 28.61122,98.44367 37.59329,154.73623 2.55952,3.65795 2.86316,0.99947 3.75931,0 L 302.01584,253.59567 c -0.65919,-0.45411 -53.95519,-56.58165 -68.47347,-31.03225 -5.02843,8.84908 -6.71274,19.01448 0.80557,19.12947 z"
             inkscape:connector-curvature="0"
             id="path978"
             sodipodi:nodetypes="sccccss" />
          <path
             sodipodi:nodetypes="sccccss"
             id="path980"
             inkscape:connector-curvature="0"
             d="m 232.83333,195.79166 c 3.29287,-0.0318 40.54769,-13.33478 42.33334,-15.87499 9.75564,-20.22796 17.40702,-46.22789 25.65652,-69.32621 1.41354,-2.65797 3.10317,-2.15285 3.44764,0.53454 l -23.8125,79.375 c -0.46394,0.20188 -37.97393,25.15471 -48.19196,13.79612 -3.53904,-3.93407 -4.72446,-8.45335 0.56696,-8.50446 z"
             style="fill:#7e551d;fill-opacity:1;fill-rule:evenodd;stroke:none;stroke-width:0.26458332px;stroke-linecap:butt;stroke-linejoin:miter;stroke-opacity:1" />
          <path
             style="fill:#7e551d;fill-opacity:1;fill-rule:evenodd;stroke:none;stroke-width:0.26458332px;stroke-linecap:butt;stroke-linejoin:miter;stroke-opacity:1"
             d="m 224.89583,158.74999 c 3.43661,0.59105 41.75438,-8.1058 42.33334,-15.87499 2.19503,-18.39482 5.69524,-41.94976 8.23813,-58.629555 1.17465,-7.704961 12.58754,-13.730372 14.70445,-13.477749 3.13926,0.374628 2.57644,2.375964 0.52505,3.182676 -5.96408,2.345385 -10.95553,5.530603 -11.71955,14.875128 l -6.45642,64.63283 c -0.46394,0.20188 -37.40697,32.52525 -47.625,21.16666 -3.53904,-3.93407 -5.2151,-16.77192 0,-15.875 z"
             inkscape:connector-curvature="0"
             id="path982"
             sodipodi:nodetypes="scsssccss" />
        </g>
        <g
           id="g968"
           transform="translate(0,-3.2127975)">
          <path
             sodipodi:nodetypes="sccccss"
             id="path940"
             inkscape:connector-curvature="0"
             d="m 234.34794,241.69289 c 4.67867,0.0716 57.61212,29.99452 60.14925,35.70832 13.86129,45.49967 28.61122,98.44367 37.59329,154.73623 2.55952,3.65795 2.86316,0.99947 3.75931,0 L 302.01584,253.59567 c -0.65919,-0.45411 -53.95519,-56.58165 -68.47347,-31.03225 -5.02843,8.84908 -6.71274,19.01448 0.80557,19.12947 z"
             style="fill:#7e551d;fill-opacity:1;fill-rule:evenodd;stroke:none;stroke-width:0.4730036px;stroke-linecap:butt;stroke-linejoin:miter;stroke-opacity:1" />
          <path
             style="fill:#7e551d;fill-opacity:1;fill-rule:evenodd;stroke:none;stroke-width:0.26458332px;stroke-linecap:butt;stroke-linejoin:miter;stroke-opacity:1"
             d="m 232.83333,195.79166 c 3.29287,-0.0318 40.54769,-13.33478 42.33334,-15.87499 9.75564,-20.22796 17.40702,-46.22789 25.65652,-69.32621 1.41354,-2.65797 3.10317,-2.15285 3.44764,0.53454 l -23.8125,79.375 c -0.46394,0.20188 -37.97393,25.15471 -48.19196,13.79612 -3.53904,-3.93407 -4.72446,-8.45335 0.56696,-8.50446 z"
             inkscape:connector-curvature="0"
             id="path938"
             sodipodi:nodetypes="sccccss" />
          <path
             sodipodi:nodetypes="scsssccss"
             id="path936"
             inkscape:connector-curvature="0"
             d="m 224.89583,158.74999 c 3.43661,0.59105 41.75438,-8.1058 42.33334,-15.87499 2.19503,-18.39482 5.69524,-41.94976 8.23813,-58.629555 1.17465,-7.704961 12.58754,-13.730372 14.70445,-13.477749 3.13926,0.374628 2.57644,2.375964 0.52505,3.182676 -5.96408,2.345385 -10.95553,5.530603 -11.71955,14.875128 l -6.45642,64.63283 c -0.46394,0.20188 -37.40697,32.52525 -47.625,21.16666 -3.53904,-3.93407 -5.2151,-16.77192 0,-15.875 z"
             style="fill:#7e551d;fill-opacity:1;fill-rule:evenodd;stroke:none;stroke-width:0.26458332px;stroke-linecap:butt;stroke-linejoin:miter;stroke-opacity:1" />
        </g>
      </g>
      <g
         transform="translate(68.420958,37.761308)"
         id="g946">
        <g
           id="g934"
           transform="matrix(1.2347792,0,0,1.6181134,-47.374929,-221.04523)"
           style="fill:#9b6b2b;fill-opacity:1">
          <path
             inkscape:connector-curvature="0"
             id="path926"
             d="m 201.08333,341.52977 32.5765,60.20659 -40.28024,-55.34947 z"
             style="fill:#9b6b2b;fill-opacity:1;fill-rule:evenodd;stroke:none;stroke-width:0.22767735px;stroke-linecap:butt;stroke-linejoin:miter;stroke-opacity:1" />
          <path
             style="fill:#9b6b2b;fill-opacity:1;fill-rule:evenodd;stroke:none;stroke-width:0.22767735px;stroke-linecap:butt;stroke-linejoin:miter;stroke-opacity:1"
             d="m 193.37959,341.52977 -32.5765,60.20659 40.28024,-55.34947 z"
             id="path924"
             inkscape:connector-curvature="0" />
        </g>
        <path
           style="fill:#9b6b2b;fill-opacity:1;fill-rule:evenodd;stroke:none;stroke-width:0.37399137px;stroke-linecap:butt;stroke-linejoin:miter;stroke-opacity:1"
           d="m 189.62834,337.48664 6.53403,128.43774 6.53405,-128.43774 z"
           id="path922"
           inkscape:connector-curvature="0" />
      </g>
      <path
         sodipodi:nodetypes="sssssssss"
         inkscape:connector-curvature="0"
         id="path894"
         d="m 222.25,198.02322 c 3.81844,-9.21853 11.94814,-17.34823 21.16667,-21.16667 13.03697,-5.40009 29.29636,-5.40009 42.33333,0 9.21853,3.81844 17.34823,11.94814 21.16667,21.16667 16.20027,39.1109 6.78105,85.2133 0,127 -3.57393,22.02353 -3.06654,50.45416 -21.16667,63.5 -11.44753,8.25091 -30.8858,8.25091 -42.33333,0 -18.10013,-13.04584 -17.59274,-41.47647 -21.16667,-63.5 -6.78105,-41.7867 -16.20027,-87.8891 0,-127 z"
         style="fill:#be9856;fill-opacity:1;fill-rule:evenodd;stroke:none;stroke-width:0.26458332px;stroke-linecap:butt;stroke-linejoin:miter;stroke-opacity:1" />
      <path
         sodipodi:nodetypes="sssss"
         inkscape:connector-curvature="0"
         id="path986"
         d="m 236.30054,365.67403 c 15.30814,1.43894 44.51472,-3.99367 57.46294,0.26725 3.80815,1.25316 3.98464,11.58547 0,12.02714 -13.23448,1.46696 -45.51231,3.24472 -59.06656,-0.53454 -3.81087,-1.06256 -2.33525,-12.1301 1.60362,-11.75985 z"
         style="fill:#a27740;fill-opacity:1;fill-rule:evenodd;stroke:none;stroke-width:0.26458332px;stroke-linecap:butt;stroke-linejoin:miter;stroke-opacity:1" />
      <path
         sodipodi:nodetypes="sssssss"
         inkscape:connector-curvature="0"
         id="path890"
         d="m 232.83333,126.96369 c 19.55546,-8.10013 43.94455,-8.10013 63.5,0 9.21853,3.81844 21.16668,11.1886 21.16668,21.16667 0,9.97806 -11.94814,17.34823 -21.16668,21.16667 -19.55545,8.10013 -43.94454,8.10013 -63.5,0 -9.21852,-3.81844 -21.16667,-11.18861 -21.16667,-21.16667 0,-9.97807 11.94814,-17.34823 21.16667,-21.16667 z"
         style="fill:#be9856;fill-opacity:1;fill-rule:evenodd;stroke:none;stroke-width:0.26458332px;stroke-linecap:butt;stroke-linejoin:miter;stroke-opacity:1" />
      <path
         style="fill:#a27740;fill-opacity:1;fill-rule:evenodd;stroke:none;stroke-width:0.32433569px;stroke-linecap:butt;stroke-linejoin:miter;stroke-opacity:1"
         d="m 236.30054,341.25355 c 15.30814,2.16226 44.51472,-6.00118 57.46294,0.40159 3.80815,1.88309 3.98464,17.40917 0,18.07286 -13.23448,2.20436 -45.51231,4.87575 -59.06656,-0.80324 -3.81087,-1.59668 -2.33525,-18.22758 1.60362,-17.67121 z"
         id="path988"
         inkscape:connector-curvature="0"
         sodipodi:nodetypes="sssss" />
      <path
         sodipodi:nodetypes="sssss"
         inkscape:connector-curvature="0"
         id="path990"
         d="m 236.30054,316.93202 c 15.30814,2.16226 44.51472,-6.00118 57.46294,0.40159 3.80815,1.88309 3.98464,17.40917 0,18.07286 -13.23448,2.20436 -45.51231,4.87575 -59.06656,-0.80324 -3.81087,-1.59668 -2.33525,-18.22758 1.60362,-17.67121 z"
         style="fill:#a27740;fill-opacity:1;fill-rule:evenodd;stroke:none;stroke-width:0.32433569px;stroke-linecap:butt;stroke-linejoin:miter;stroke-opacity:1" />
      <path
         style="fill:#a27740;fill-opacity:1;fill-rule:evenodd;stroke:none;stroke-width:0.32433569px;stroke-linecap:butt;stroke-linejoin:miter;stroke-opacity:1"
         d="m 236.30054,291.27415 c 15.30814,2.16226 44.51472,-6.00118 57.46294,0.40159 3.80815,1.88309 3.98464,17.40917 0,18.07286 -13.23448,2.20436 -45.51231,4.87575 -59.06656,-0.80324 -3.81087,-1.59668 -2.33525,-18.22758 1.60362,-17.67121 z"
         id="path992"
         inkscape:connector-curvature="0"
         sodipodi:nodetypes="sssss" />
      <path
         sodipodi:nodetypes="sssss"
         inkscape:connector-curvature="0"
         id="path998"
         d="m 236.30054,265.65831 c 15.30814,2.16226 44.51472,-6.00118 57.46294,0.40159 3.80815,1.88309 3.98464,17.40917 0,18.07286 -13.23448,2.20436 -45.51231,4.87575 -59.06656,-0.80324 -3.81087,-1.59668 -2.33525,-18.22758 1.60362,-17.67121 z"
         style="fill:#a27740;fill-opacity:1;fill-rule:evenodd;stroke:none;stroke-width:0.32433569px;stroke-linecap:butt;stroke-linejoin:miter;stroke-opacity:1" />
      <path
         style="fill:#a27740;fill-opacity:1;fill-rule:evenodd;stroke:none;stroke-width:0.41382456px;stroke-linecap:butt;stroke-linejoin:miter;stroke-opacity:1"
         d="m 236.30054,228.22307 c 15.30814,3.52007 44.51472,-9.76966 57.46294,0.65378 3.80815,3.06559 3.98464,28.34139 0,29.42184 -13.23448,3.58861 -45.51231,7.93752 -59.06656,-1.30764 -3.81087,-2.59932 -2.33525,-29.67371 1.60362,-28.76798 z"
         id="path1014"
         inkscape:connector-curvature="0"
         sodipodi:nodetypes="sssss" />
      <g
         transform="translate(70.560523,37.761308)"
         id="g1002">
        <path
           sodipodi:nodetypes="csscssc"
           inkscape:connector-curvature="0"
           id="path900"
           d="m 216.37743,140.03068 c 9.21853,3.81844 17.34823,11.94814 21.16667,21.16667 16.20027,39.1109 7.49382,85.33522 0,127 -4.07345,22.64794 -2.79417,49.64598 -18.76123,60.0255 -1.99424,4.31936 -22.72883,-25.83592 -23.20282,-72.83313 l -0.78104,-77.44137 c -0.42925,-42.56107 -1.74497,-73.03789 21.57842,-57.91767 z"
           style="fill:#cd8532;fill-opacity:1;fill-rule:evenodd;stroke:none;stroke-width:0.26458332px;stroke-linecap:butt;stroke-linejoin:miter;stroke-opacity:1" />
        <path
           style="fill:#cd8532;fill-opacity:1;fill-rule:evenodd;stroke:none;stroke-width:0.26458332px;stroke-linecap:butt;stroke-linejoin:miter;stroke-opacity:1"
           d="m 171.66819,144.5664 c -9.21853,3.81844 -17.34823,11.94814 -21.16667,21.16667 -16.20027,39.1109 -7.49382,85.33522 0,127 4.07345,22.64794 2.79417,49.64598 18.76123,60.0255 1.99424,4.31936 22.72883,-25.83592 23.20282,-72.83313 l 0.78104,-77.44137 c 0.42925,-42.56107 1.74497,-73.03789 -21.57842,-57.91767 z"
           id="path996"
           inkscape:connector-curvature="0"
           sodipodi:nodetypes="csscssc" />
      </g>
      <path
         style="fill:#9b6b2b;fill-opacity:1;fill-rule:evenodd;stroke:none;stroke-width:0.26458332px;stroke-linecap:butt;stroke-linejoin:miter;stroke-opacity:1"
         d="m 232.83333,178.36845 c 19.55546,-8.10013 43.94455,-8.10013 63.5,0 9.21853,3.81844 21.16668,11.1886 21.16668,21.16666 0,9.97806 -11.94814,17.34823 -21.16668,21.16667 -19.55545,8.10013 -43.94454,8.10013 -63.5,0 -9.21852,-3.81844 -21.16667,-11.18861 -21.16667,-21.16667 0,-9.97806 11.94814,-17.34822 21.16667,-21.16666 z"
         id="path892"
         inkscape:connector-curvature="0"
         sodipodi:nodetypes="sssssss" />
      <g
         transform="translate(69.547618,37.761308)"
         id="g963">
        <path
           style="fill:#4c412f;fill-opacity:1;fill-rule:evenodd;stroke:none;stroke-width:0.1260795px;stroke-linecap:butt;stroke-linejoin:miter;stroke-opacity:1"
           d="m 222.33827,95.076078 c 6.146,-5.85235 13.81115,-5.85235 19.95716,0 2.89725,2.75883 6.65238,8.083792 6.65238,15.292972 0,7.20917 -3.75514,12.53414 -6.65238,15.29297 -6.146,5.85236 -13.81115,5.85236 -19.95716,0 -2.48269,-10.49072 -1.65938,-21.59393 0,-30.585942 z"
           id="path898"
           inkscape:connector-curvature="0"
           sodipodi:nodetypes="cssscc" />
        <path
           sodipodi:nodetypes="cssscc"
           inkscape:connector-curvature="0"
           id="path906"
           d="m 167.73315,95.209713 c -6.14599,-5.85235 -13.81114,-5.85235 -19.95715,0 -2.89725,2.75883 -6.65238,8.083787 -6.65238,15.292967 0,7.20917 3.75513,12.53414 6.65238,15.29297 6.146,5.85236 13.81115,5.85236 19.95715,0 2.4827,-10.49072 1.65938,-21.59393 0,-30.585937 z"
           style="fill:#4c412f;fill-opacity:1;fill-rule:evenodd;stroke:none;stroke-width:0.1260795px;stroke-linecap:butt;stroke-linejoin:miter;stroke-opacity:1" />
        <ellipse
           style="opacity:1;fill:#ffffff;fill-opacity:1;fill-rule:evenodd;stroke:none;stroke-width:1.32291663;stroke-miterlimit:4;stroke-dasharray:none;stroke-dashoffset:100;stroke-opacity:1"
           id="path948"
           cx="240.58185"
           cy="102.43156"
           rx="3.96875"
           ry="4.5357141" />
        <ellipse
           ry="4.5357141"
           rx="3.96875"
           cy="102.43156"
           cx="240.58185"
           id="ellipse950"
           style="opacity:1;fill:#ffffff;fill-opacity:1;fill-rule:evenodd;stroke:none;stroke-width:1.32291663;stroke-miterlimit:4;stroke-dasharray:none;stroke-dashoffset:100;stroke-opacity:1" />
        <ellipse
           style="opacity:1;fill:#ffffff;fill-opacity:1;fill-rule:evenodd;stroke:none;stroke-width:1.32291663;stroke-miterlimit:4;stroke-dasharray:none;stroke-dashoffset:100;stroke-opacity:1"
           id="ellipse956"
           cx="-149.15614"
           cy="102.43155"
           rx="3.96875"
           ry="4.5357141"
           transform="scale(-1,1)" />
      </g>
    </g>
  </g>
</svg>
