<?xml version="1.0" encoding="UTF-8" standalone="no"?>
<!-- Created with Inkscape (http://www.inkscape.org/) -->

<svg
   width="121mm"
   height="121mm"
   viewBox="0 0 121 121"
   version="1.1"
   id="svg1"
   inkscape:version="1.3 (0e150ed6c4, 2023-07-21)"
   sodipodi:docname="db_001.svg"
   xmlns:inkscape="http://www.inkscape.org/namespaces/inkscape"
   xmlns:sodipodi="http://sodipodi.sourceforge.net/DTD/sodipodi-0.dtd"
   xmlns="http://www.w3.org/2000/svg"
   xmlns:svg="http://www.w3.org/2000/svg">
  <sodipodi:namedview
     id="namedview1"
     pagecolor="#ffffff"
     bordercolor="#000000"
     borderopacity="0.25"
     inkscape:showpageshadow="2"
     inkscape:pageopacity="0.0"
     inkscape:pagecheckerboard="0"
     inkscape:deskcolor="#d1d1d1"
     inkscape:document-units="mm"
     showgrid="false"
     inkscape:zoom="0.74029882"
     inkscape:cx="-118.19551"
     inkscape:cy="461.30021"
     inkscape:window-width="1920"
     inkscape:window-height="1027"
     inkscape:window-x="1912"
     inkscape:window-y="-8"
     inkscape:window-maximized="1"
     inkscape:current-layer="layer1">
    <inkscape:grid
       id="grid4"
       units="mm"
       originx="0"
       originy="0"
       spacingx="0.99999998"
       spacingy="1"
       empcolor="#0099e5"
       empopacity="0.30196078"
       color="#0099e5"
       opacity="0.14901961"
       empspacing="5"
       dotted="false"
       gridanglex="30"
       gridanglez="30"
       visible="false" />
  </sodipodi:namedview>
  <defs
     id="defs1" />
  <g
     inkscape:label="Layer 1"
     inkscape:groupmode="layer"
     id="layer1">
    <g
       id="g14"
       transform="translate(-44.5,-88)">
      <circle
         style="fill:#e5f5f9;fill-opacity:1;stroke:none;stroke-width:0.264583;stroke-opacity:1"
         id="path13"
         cx="105"
         cy="148.5"
         r="60" />
      <g
         id="g13"
         transform="translate(16.133521,49.325488)">
        <g
           id="g8"
           transform="translate(-10.075636,-18.666835)">
          <path
             style="fill:#bed9ec;fill-opacity:1;stroke:none;stroke-width:0.264583;stroke-opacity:1"
             d="m 55.151279,138.16873 0.0031,13.70555 c 1.512951,6.76375 16.183788,8.05956 24.922022,8.29325 8.743078,0.23382 24.687079,-2.4389 24.922019,-8.29325 l 0.002,-13.70555"
             id="path7"
             sodipodi:nodetypes="ccscc" />
          <ellipse
             style="fill:#33aeff;fill-opacity:1;stroke:none;stroke-width:0.307298;stroke-opacity:1"
             id="ellipse7"
             cx="80.075638"
             cy="138.16873"
             rx="24.924358"
             ry="8.1703806" />
        </g>
        <g
           id="g9"
           transform="translate(-10.075636,-36.832594)">
          <path
             style="fill:#bed9ec;fill-opacity:1;stroke:none;stroke-width:0.264583;stroke-opacity:1"
             d="m 55.151279,138.16873 0.0031,13.70555 c 1.512951,6.76375 16.183788,8.05956 24.922022,8.29325 8.743078,0.23382 24.687079,-2.4389 24.922019,-8.29325 l 0.002,-13.70555"
             id="path8"
             sodipodi:nodetypes="ccscc" />
          <ellipse
             style="fill:#33aeff;fill-opacity:1;stroke:none;stroke-width:0.307298;stroke-opacity:1"
             id="ellipse8"
             cx="80.075638"
             cy="138.16873"
             rx="24.924358"
             ry="8.1703806" />
        </g>
        <g
           id="g7"
           transform="translate(-10.075636,-54.998353)">
          <path
             style="fill:#bed9ec;fill-opacity:1;stroke:none;stroke-width:0.264583;stroke-opacity:1"
             d="m 55.151279,138.16873 0.0031,13.70555 c 1.512951,6.76375 16.183788,8.05956 24.922022,8.29325 8.743078,0.23382 24.687079,-2.4389 24.922019,-8.29325 l 0.002,-13.70555"
             id="path6"
             sodipodi:nodetypes="ccscc" />
          <ellipse
             style="fill:#33aeff;fill-opacity:1;stroke:none;stroke-width:0.307298;stroke-opacity:1"
             id="ellipse6"
             cx="80.075638"
             cy="138.16873"
             rx="24.924358"
             ry="8.1703806" />
        </g>
        <g
           id="g6"
           transform="translate(-10.075636,-73.164112)">
          <path
             style="fill:#bed9ec;fill-opacity:1;stroke:none;stroke-width:0.264583;stroke-opacity:1"
             d="m 55.151279,138.16873 0.0031,13.70555 c 1.512951,6.76375 16.183788,8.05956 24.922022,8.29325 8.743078,0.23382 24.687079,-2.4389 24.922019,-8.29325 l 0.002,-13.70555"
             id="path5"
             sodipodi:nodetypes="ccscc" />
          <ellipse
             style="fill:#33aeff;fill-opacity:1;stroke:none;stroke-width:0.307298;stroke-opacity:1"
             id="path4"
             cx="80.075638"
             cy="138.16873"
             rx="24.924358"
             ry="8.1703806" />
        </g>
        <path
           style="fill:#edf8b1;fill-opacity:1;stroke:none;stroke-width:0.18744;stroke-opacity:1"
           d="m 97.342694,123.65747 0.002,9.7095 c 1.07183,4.79169 11.465176,5.70969 17.655656,5.87524 6.19391,0.16565 17.48922,-1.7278 17.65566,-5.87524 l 0.001,-9.7095"
           id="path9"
           sodipodi:nodetypes="ccscc" />
        <ellipse
           style="fill:#7fcdbb;fill-opacity:1;stroke:none;stroke-width:0.217701;stroke-opacity:1"
           id="ellipse9"
           cx="115"
           cy="123.65747"
           rx="17.657314"
           ry="5.7881927" />
        <path
           style="fill:#edf8b1;fill-opacity:1;stroke:none;stroke-width:0.18744;stroke-opacity:1"
           d="m 97.342694,110.78819 0.002,9.70951 c 1.07183,4.79168 11.465176,5.70968 17.655656,5.87523 6.19391,0.16565 17.48922,-1.7278 17.65566,-5.87523 l 0.001,-9.70951"
           id="path10"
           sodipodi:nodetypes="ccscc" />
        <ellipse
           style="fill:#7fcdbb;fill-opacity:1;stroke:none;stroke-width:0.217701;stroke-opacity:1"
           id="ellipse10"
           cx="115"
           cy="110.78819"
           rx="17.657314"
           ry="5.7881927" />
        <path
           style="fill:#edf8b1;fill-opacity:1;stroke:none;stroke-width:0.18744;stroke-opacity:1"
           d="m 97.342694,97.918906 0.002,9.709514 c 1.07183,4.79168 11.465176,5.70968 17.655656,5.87523 6.19391,0.16565 17.48922,-1.7278 17.65566,-5.87523 l 0.001,-9.709514"
           id="path11"
           sodipodi:nodetypes="ccscc" />
        <ellipse
           style="fill:#7fcdbb;fill-opacity:1;stroke:none;stroke-width:0.217701;stroke-opacity:1"
           id="ellipse11"
           cx="115"
           cy="97.918907"
           rx="17.657314"
           ry="5.7881927" />
        <path
           style="fill:#edf8b1;fill-opacity:1;stroke:none;stroke-width:0.18744;stroke-opacity:1"
           d="m 97.342694,85.049627 0.002,9.709507 c 1.07183,4.791684 11.465176,5.709686 17.655656,5.875236 6.19391,0.16565 17.48922,-1.727804 17.65566,-5.875236 l 0.001,-9.709507"
           id="path12"
           sodipodi:nodetypes="ccscc" />
        <ellipse
           style="fill:#7fcdbb;fill-opacity:1;stroke:none;stroke-width:0.217701;stroke-opacity:1"
           id="ellipse12"
           cx="115"
           cy="85.049629"
           rx="17.657314"
           ry="5.7881927" />
      </g>
    </g>
  </g>
</svg>
