<?xml version="1.0" encoding="UTF-8" standalone="no"?>
<!-- Created with Inkscape (http://www.inkscape.org/) -->
<!-- Created by jefParil -->
<!-- <a rel="license" href="http://creativecommons.org/licenses/by-nc/4.0/"><img alt="Creative Commons License" style="border-width:0" src="https://i.creativecommons.org/l/by-nc/4.0/88x31.png" /></a><br />This work is licensed under a <a rel="license" href="http://creativecommons.org/licenses/by-nc/4.0/">Creative Commons Attribution-NonCommercial 4.0 International License</a>. -->

<svg
   xmlns:dc="http://purl.org/dc/elements/1.1/"
   xmlns:cc="http://creativecommons.org/ns#"
   xmlns:rdf="http://www.w3.org/1999/02/22-rdf-syntax-ns#"
   xmlns:svg="http://www.w3.org/2000/svg"
   xmlns="http://www.w3.org/2000/svg"
   xmlns:sodipodi="http://sodipodi.sourceforge.net/DTD/sodipodi-0.dtd"
   xmlns:inkscape="http://www.inkscape.org/namespaces/inkscape"
   width="180mm"
   height="140mm"
   viewBox="0 0 179.99998 140"
   version="1.1"
   id="svg893"
   inkscape:version="0.92.4 (unknown)"
   sodipodi:docname="dog_head1.svg">
  <defs
     id="defs887" />
  <sodipodi:namedview
     id="base"
     pagecolor="#ffffff"
     bordercolor="#666666"
     borderopacity="1.0"
     inkscape:pageopacity="0.0"
     inkscape:pageshadow="2"
     inkscape:zoom="0.9899495"
     inkscape:cx="147.15436"
     inkscape:cy="296.30561"
     inkscape:document-units="mm"
     inkscape:current-layer="layer1"
     showgrid="false"
     inkscape:pagecheckerboard="true"
     units="mm"
     inkscape:window-width="1920"
     inkscape:window-height="1043"
     inkscape:window-x="0"
     inkscape:window-y="0"
     inkscape:window-maximized="1" />
  <metadata
     id="metadata890">
    <rdf:RDF>
      <cc:Work
         rdf:about="">
        <dc:format>image/svg+xml</dc:format>
        <dc:type
           rdf:resource="http://purl.org/dc/dcmitype/StillImage" />
        <dc:title></dc:title>
      </cc:Work>
    </rdf:RDF>
  </metadata>
  <g
     inkscape:label="Layer 1"
     inkscape:groupmode="layer"
     id="layer1"
     transform="translate(0,-157.00003)">
    <g
       id="g900"
       transform="matrix(0.99068301,0,0,1.0115872,6.5037881,-3.4413955)">
      <g
         id="g850">
        <path
           style="fill:#df8c35;fill-opacity:1;fill-rule:evenodd;stroke:none;stroke-width:0.2625666px;stroke-linecap:butt;stroke-linejoin:miter;stroke-opacity:1"
           d="m 84.38009,179.07419 c -8.255632,0.34974 -22.826111,1.29466 -22.826111,1.29466 0,0 -14.466203,-11.8826 -23.062804,-15.15764 -14.095466,-5.36993 -44.7661205,-6.60756 -44.7661205,-6.60756 0,0 -0.519021,9.67236 -0.1683827,16.09979 0.364496,6.68151 0.289317,18.24087 1.7370934,23.42652 2.4310423,8.70751 9.4683812,23.13239 9.4683812,23.13239 -7.5128096,14.6566 -5.11746948,14.70327 -4.67399684,22.27796 0.62468794,10.66992 3.93744964,21.66324 10.20093344,30.39866 7.308739,10.1932 30.065918,23.06106 30.065918,23.06106 0,0 11.333377,-6.48054 15.021773,-11.55686 4.154091,-5.71725 3.003198,-14.0609 6.99077,-19.89004 -1.086549,-0.80245 22.496333,-19.91636 22.178503,-19.91636 z"
           id="path827"
           inkscape:connector-curvature="0"
           sodipodi:nodetypes="ccacsscaacaccc" />
        <path
           sodipodi:nodetypes="caaaac"
           inkscape:connector-curvature="0"
           id="path931"
           d="m 41.699462,210.13614 c 0,0 9.787714,1.47146 14.056795,4.15735 2.915805,1.83451 7.448555,4.11732 7.30359,7.79598 -0.161297,4.09237 -5.098469,7.07955 -8.73923,6.91231 -2.760371,-0.12679 -4.893246,-3.40117 -6.69967,-5.8529 -2.774215,-3.76525 -5.921485,-13.01274 -5.921485,-13.01274 z"
           style="fill:#ffc17f;fill-opacity:1;fill-rule:evenodd;stroke:none;stroke-width:0.26737657px;stroke-linecap:butt;stroke-linejoin:miter;stroke-opacity:1" />
        <path
           sodipodi:nodetypes="ssaaas"
           inkscape:connector-curvature="0"
           id="path933"
           d="m 44.486162,251.05555 c 4.560441,-2.99741 9.890731,-2.68161 16.176703,0.31582 3.974162,1.89507 4.770351,-9.53053 2.911798,-13.89674 -1.733134,-4.0716 -6.807065,-7.2642 -11.32368,-7.2642 -4.516629,0 -9.692588,3.15262 -11.323704,7.2642 -1.728634,4.3574 -0.110002,15.99232 3.558883,13.58092 z"
           style="fill:#634343;fill-opacity:1;fill-rule:evenodd;stroke:none;stroke-width:0.22376302px;stroke-linecap:butt;stroke-linejoin:miter;stroke-opacity:1" />
        <ellipse
           style="opacity:1;fill:#ffffff;fill-opacity:1;fill-rule:nonzero;stroke:none;stroke-width:0.8015787;stroke-miterlimit:4;stroke-dasharray:none;stroke-dashoffset:0;stroke-opacity:1"
           id="circle935"
           cx="57.163109"
           cy="235.39558"
           rx="3.4238589"
           ry="3.3423805" />
        <ellipse
           style="opacity:1;fill:#000000;fill-opacity:1;fill-rule:nonzero;stroke:none;stroke-width:0.70138139;stroke-miterlimit:4;stroke-dasharray:none;stroke-dashoffset:0;stroke-opacity:1"
           id="circle937"
           cx="52.381336"
           cy="240.89601"
           rx="2.9958763"
           ry="2.9245827" />
        <path
           style="fill:#ffc17f;fill-opacity:1;fill-rule:evenodd;stroke:none;stroke-width:0.28488705px;stroke-linecap:butt;stroke-linejoin:miter;stroke-opacity:1"
           d="m 18.981154,211.15611 c 9.961582,-0.62421 24.619229,-14.00535 27.187365,-22.41637 2.247142,-7.35968 -10.498332,-12.05799 -17.583667,-15.49417 -7.791802,-3.77878 -25.670288,-4.78803 -25.670288,-4.78803 0,0 0.2171027,15.24671 2.8077659,22.30339 2.7789457,7.56953 4.9815291,20.91385 13.2588241,20.39518 z"
           id="path839"
           inkscape:connector-curvature="0"
           sodipodi:nodetypes="ssacas" />
        <path
           sodipodi:nodetypes="caacacc"
           inkscape:connector-curvature="0"
           id="path841"
           d="m 4.762147,221.26235 c -7.512809,14.6566 -5.117469,14.70327 -4.673997,22.27796 0.624688,10.66992 3.93745,21.66324 10.200931,30.39866 7.30874,10.1932 30.06592,23.06106 30.06592,23.06106 0,0 11.33338,-6.48054 15.02177,-11.55686 4.15409,-5.71725 3.0032,-14.0609 6.99077,-19.89004 -25.73357,24.57232 -71.733552,-12.73627 -57.605394,-44.29078 z"
           style="fill:#ffc17f;fill-opacity:1;fill-rule:evenodd;stroke:none;stroke-width:0.2625666px;stroke-linecap:butt;stroke-linejoin:miter;stroke-opacity:1" />
      </g>
      <g
         id="g882">
        <path
           sodipodi:nodetypes="ccacsscaacaccc"
           inkscape:connector-curvature="0"
           id="path852"
           d="m 84.18283,179.07419 c 8.255632,0.34974 22.82611,1.29466 22.82611,1.29466 0,0 14.4662,-11.8826 23.0628,-15.15764 14.09547,-5.36993 44.76613,-6.60756 44.76613,-6.60756 0,0 0.51902,9.67236 0.16838,16.09979 -0.3645,6.68151 -0.28932,18.24087 -1.7371,23.42652 -2.43104,8.70751 -9.46838,23.13239 -9.46838,23.13239 7.51281,14.6566 5.11747,14.70327 4.674,22.27796 -0.62469,10.66992 -3.93745,21.66324 -10.20093,30.39866 -7.30874,10.1932 -30.06592,23.06106 -30.06592,23.06106 0,0 -11.33338,-6.48054 -15.02177,-11.55686 -4.1541,-5.71725 -3.0032,-14.0609 -6.99077,-19.89004 1.08655,-0.80245 -22.496337,-19.91636 -22.178507,-19.91636 z"
           style="fill:#df8c35;fill-opacity:1;fill-rule:evenodd;stroke:none;stroke-width:0.2625666px;stroke-linecap:butt;stroke-linejoin:miter;stroke-opacity:1" />
        <path
           style="fill:#ffc17f;fill-opacity:1;fill-rule:evenodd;stroke:none;stroke-width:0.26737657px;stroke-linecap:butt;stroke-linejoin:miter;stroke-opacity:1"
           d="m 126.86346,210.13614 c 0,0 -9.78772,1.47146 -14.0568,4.15735 -2.9158,1.83451 -7.44855,4.11732 -7.30359,7.79598 0.1613,4.09237 5.09847,7.07955 8.73923,6.91231 2.76037,-0.12679 4.89325,-3.40117 6.69967,-5.8529 2.77422,-3.76525 5.92149,-13.01274 5.92149,-13.01274 z"
           id="path854"
           inkscape:connector-curvature="0"
           sodipodi:nodetypes="caaaac" />
        <path
           style="fill:#634343;fill-opacity:1;fill-rule:evenodd;stroke:none;stroke-width:0.22376302px;stroke-linecap:butt;stroke-linejoin:miter;stroke-opacity:1"
           d="m 108.28636,251.05555 c 4.56044,-2.99741 9.89073,-2.68161 16.17671,0.31582 3.97416,1.89507 4.77035,-9.53053 2.91179,-13.89674 -1.73313,-4.0716 -6.80706,-7.2642 -11.32368,-7.2642 -4.51663,0 -9.69259,3.15262 -11.3237,7.2642 -1.72863,4.3574 -0.11,15.99232 3.55888,13.58092 z"
           id="path856"
           inkscape:connector-curvature="0"
           sodipodi:nodetypes="ssaaas" />
        <ellipse
           ry="3.3423805"
           rx="3.4238589"
           cy="235.39558"
           cx="120.96331"
           id="ellipse858"
           style="opacity:1;fill:#ffffff;fill-opacity:1;fill-rule:nonzero;stroke:none;stroke-width:0.8015787;stroke-miterlimit:4;stroke-dasharray:none;stroke-dashoffset:0;stroke-opacity:1" />
        <ellipse
           ry="2.9245827"
           rx="2.9958763"
           cy="240.89601"
           cx="116.18153"
           id="ellipse860"
           style="opacity:1;fill:#000000;fill-opacity:1;fill-rule:nonzero;stroke:none;stroke-width:0.70138139;stroke-miterlimit:4;stroke-dasharray:none;stroke-dashoffset:0;stroke-opacity:1" />
        <path
           sodipodi:nodetypes="ssacas"
           inkscape:connector-curvature="0"
           id="path862"
           d="m 149.58177,211.15611 c -9.96159,-0.62421 -24.61923,-14.00535 -27.18737,-22.41637 -2.24714,-7.35968 10.49833,-12.05799 17.58367,-15.49417 7.7918,-3.77878 25.67029,-4.78803 25.67029,-4.78803 0,0 -0.21711,15.24671 -2.80777,22.30339 -2.77895,7.56953 -4.98153,20.91385 -13.25882,20.39518 z"
           style="fill:#ffc17f;fill-opacity:1;fill-rule:evenodd;stroke:none;stroke-width:0.28488705px;stroke-linecap:butt;stroke-linejoin:miter;stroke-opacity:1" />
        <path
           style="fill:#ffc17f;fill-opacity:1;fill-rule:evenodd;stroke:none;stroke-width:0.2625666px;stroke-linecap:butt;stroke-linejoin:miter;stroke-opacity:1"
           d="m 163.80077,221.26235 c 7.51281,14.6566 5.11747,14.70327 4.674,22.27796 -0.62469,10.66992 -3.93745,21.66324 -10.20093,30.39866 -7.30874,10.1932 -30.06592,23.06106 -30.06592,23.06106 0,0 -11.33338,-6.48054 -15.02177,-11.55686 -4.15409,-5.71725 -3.0032,-14.0609 -6.99077,-19.89004 25.73357,24.57232 71.73355,-12.73627 57.60539,-44.29078 z"
           id="path864"
           inkscape:connector-curvature="0"
           sodipodi:nodetypes="caacacc" />
      </g>
    </g>
  </g>
</svg>
