<?xml version="1.0" encoding="UTF-8" standalone="no"?>
<!-- Created with Inkscape (http://www.inkscape.org/) -->
<!-- Created by jefParil -->
<!-- <a rel="license" href="http://creativecommons.org/licenses/by-nc/4.0/"><img alt="Creative Commons License" style="border-width:0" src="https://i.creativecommons.org/l/by-nc/4.0/88x31.png" /></a><br />This work is licensed under a <a rel="license" href="http://creativecommons.org/licenses/by-nc/4.0/">Creative Commons Attribution-NonCommercial 4.0 International License</a>. -->

<svg
   xmlns:dc="http://purl.org/dc/elements/1.1/"
   xmlns:cc="http://creativecommons.org/ns#"
   xmlns:rdf="http://www.w3.org/1999/02/22-rdf-syntax-ns#"
   xmlns:svg="http://www.w3.org/2000/svg"
   xmlns="http://www.w3.org/2000/svg"
   xmlns:sodipodi="http://sodipodi.sourceforge.net/DTD/sodipodi-0.dtd"
   xmlns:inkscape="http://www.inkscape.org/namespaces/inkscape"
   width="350mm"
   height="240mm"
   viewBox="0 0 349.99998 240"
   version="1.1"
   id="svg893"
   inkscape:version="0.92.4 (unknown)"
   sodipodi:docname="dog_legs.svg">
  <defs
     id="defs887" />
  <sodipodi:namedview
     id="base"
     pagecolor="#ffffff"
     bordercolor="#666666"
     borderopacity="1.0"
     inkscape:pageopacity="0.0"
     inkscape:pageshadow="2"
     inkscape:zoom="0.49497475"
     inkscape:cx="161.93044"
     inkscape:cy="483.93631"
     inkscape:document-units="mm"
     inkscape:current-layer="layer1"
     showgrid="false"
     inkscape:pagecheckerboard="true"
     units="mm"
     inkscape:window-width="1920"
     inkscape:window-height="1043"
     inkscape:window-x="0"
     inkscape:window-y="0"
     inkscape:window-maximized="1" />
  <metadata
     id="metadata890">
    <rdf:RDF>
      <cc:Work
         rdf:about="">
        <dc:format>image/svg+xml</dc:format>
        <dc:type
           rdf:resource="http://purl.org/dc/dcmitype/StillImage" />
        <dc:title></dc:title>
      </cc:Work>
    </rdf:RDF>
  </metadata>
  <g
     inkscape:label="Layer 1"
     inkscape:groupmode="layer"
     id="layer1"
     transform="translate(0,-57.000007)">
    <g
       id="g1246"
       transform="matrix(1.2325085,0,0,1.0015862,-213.52846,21.197959)">
      <path
         style="fill:#df8c35;fill-opacity:1;fill-rule:evenodd;stroke:none;stroke-width:0.244828px;stroke-linecap:butt;stroke-linejoin:miter;stroke-opacity:1"
         d="m 364.13824,155.21919 c 8.53398,5.2185 11.42038,16.28661 16.24073,24.94657 7.82566,14.05905 20.47742,43.65651 20.47742,43.65651 0,0 -14.49181,4.31719 -16.94683,10.39442 -3.4085,8.43748 0.90306,19.56066 7.06118,26.3325 9.08028,9.98524 24.59673,16.19991 38.13041,14.55217 10.88853,-1.3257 22.78495,-8.70183 26.8325,-18.70995 3.09917,-7.66315 0.26903,-17.78727 -4.94283,-24.25361 -3.855,-4.7829 -16.94686,-7.62256 -16.94686,-7.62256 0,0 -0.76073,-39.48294 -6.35506,-58.20869 -5.92291,-19.82558 -14.26003,-39.99378 -28.24474,-55.43685 -6.54822,-7.23108 -15.35799,-12.891989 -24.71416,-15.938078 -18.85634,-6.139037 -59.49611,-3.464807 -59.49611,-3.464807 0,0 -40.92303,-2.591073 -59.49609,3.464807 -9.35477,3.050205 -18.16594,8.706998 -24.71416,15.938078 -13.98472,15.44307 -22.32183,35.61127 -28.24473,55.43685 -5.59434,18.72575 -6.35508,58.20869 -6.35508,58.20869 0,0 -13.09184,2.83966 -16.94685,7.62256 -5.21185,6.46634 -8.04201,16.59046 -4.94283,24.25361 4.04755,10.00812 15.94397,17.38425 26.83251,18.70995 13.53366,1.64774 29.05012,-4.56693 38.1304,-14.55217 6.15812,-6.77184 10.46969,-17.89502 7.06119,-26.3325 -2.45502,-6.07723 -16.94684,-10.39442 -16.94684,-10.39442 0,0 12.65177,-29.59746 20.47742,-43.65651 4.82035,-8.65996 7.7142,-19.71636 16.24073,-24.94657 13.9152,-8.53563 48.90433,-5.5437 48.90433,-5.5437 0,0 34.63123,-3.18424 48.90435,5.5437 z"
         id="path1220"
         inkscape:connector-curvature="0"
         sodipodi:nodetypes="aacaaaaacaaacaaacaaaaacaaca" />
      <path
         sodipodi:nodetypes="cc"
         inkscape:connector-curvature="0"
         id="path1222"
         d="m 188.72123,271.03066 c 2.21597,-10.5149 6.69722,-19.89715 12.94351,-28.39689"
         style="fill:none;fill-rule:evenodd;stroke:#a06d3a;stroke-width:7;stroke-linecap:butt;stroke-linejoin:miter;stroke-miterlimit:4;stroke-dasharray:none;stroke-opacity:1" />
      <path
         style="fill:none;fill-rule:evenodd;stroke:#a06d3a;stroke-width:7;stroke-linecap:butt;stroke-linejoin:miter;stroke-miterlimit:4;stroke-dasharray:none;stroke-opacity:1"
         d="m 211.83647,274.33136 c -1.58718,-18.6169 3.76351,-21.97049 6.77851,-30.46259"
         id="path1224"
         inkscape:connector-curvature="0"
         sodipodi:nodetypes="cc" />
      <path
         style="fill:none;fill-rule:evenodd;stroke:#a06d3a;stroke-width:7;stroke-linecap:butt;stroke-linejoin:miter;stroke-miterlimit:4;stroke-dasharray:none;stroke-opacity:1"
         d="m 440.85675,271.06287 c -2.21597,-10.5149 -6.69722,-19.89715 -12.94351,-28.39689"
         id="path1226"
         inkscape:connector-curvature="0"
         sodipodi:nodetypes="cc" />
      <path
         sodipodi:nodetypes="cc"
         inkscape:connector-curvature="0"
         id="path1228"
         d="m 417.74151,274.36357 c 1.58718,-18.6169 -3.76351,-21.97049 -6.77851,-30.46259"
         style="fill:none;fill-rule:evenodd;stroke:#a06d3a;stroke-width:7;stroke-linecap:butt;stroke-linejoin:miter;stroke-miterlimit:4;stroke-dasharray:none;stroke-opacity:1" />
      <path
         sodipodi:nodetypes="ccssc"
         inkscape:connector-curvature="0"
         id="path1232"
         d="m 240.39842,90.397742 c 48.86267,-72.01907 99.02696,-75.052149 150.74002,3.999158 0,0 -17.84906,39.27755 -35.70155,47.98999 -23.21588,11.32991 -54.39571,9.85287 -77.35346,-1.99958 -18.47821,-9.53981 -37.68501,-49.989568 -37.68501,-49.989568 z"
         style="fill:#ffc17f;fill-opacity:1;fill-rule:evenodd;stroke:none;stroke-width:0.49286762px;stroke-linecap:butt;stroke-linejoin:miter;stroke-opacity:1" />
    </g>
  </g>
</svg>
