<?xml version="1.0" encoding="UTF-8" standalone="no"?>
<!-- Created with Inkscape (http://www.inkscape.org/) -->

<!-- Created by jefParil -->

<!-- <a rel="license" href="http://creativecommons.org/licenses/by-nc/4.0/"><img alt="Creative Commons License" style="border-width:0" src="https://i.creativecommons.org/l/by-nc/4.0/88x31.png" /></a><br />This work is licensed under a <a rel="license" href="http://creativecommons.org/licenses/by-nc/4.0/">Creative Commons Attribution-NonCommercial 4.0 International License</a>. -->

<svg
   xmlns:dc="http://purl.org/dc/elements/1.1/"
   xmlns:cc="http://creativecommons.org/ns#"
   xmlns:rdf="http://www.w3.org/1999/02/22-rdf-syntax-ns#"
   xmlns:svg="http://www.w3.org/2000/svg"
   xmlns="http://www.w3.org/2000/svg"
   xmlns:sodipodi="http://sodipodi.sourceforge.net/DTD/sodipodi-0.dtd"
   xmlns:inkscape="http://www.inkscape.org/namespaces/inkscape"
   width="2000"
   height="2000"
   viewBox="0 0 529.16665 529.16668"
   version="1.1"
   id="svg840"
   inkscape:version="0.92.5 (2060ec1f9f, 2020-04-08)"
   sodipodi:docname="frog_001.svg"
   inkscape:export-filename="/home/jfparil/frog.png"
   inkscape:export-xdpi="90"
   inkscape:export-ydpi="90">
  <defs
     id="defs834" />
  <sodipodi:namedview
     id="base"
     pagecolor="#ffffff"
     bordercolor="#666666"
     borderopacity="1.0"
     inkscape:pageopacity="0.0"
     inkscape:pageshadow="2"
     inkscape:zoom="0.32009702"
     inkscape:cx="889.74206"
     inkscape:cy="1087.1962"
     inkscape:document-units="mm"
     inkscape:current-layer="layer1"
     showgrid="true"
     units="px"
     inkscape:pagecheckerboard="true"
     inkscape:snap-global="false"
     inkscape:window-width="1920"
     inkscape:window-height="1043"
     inkscape:window-x="0"
     inkscape:window-y="0"
     inkscape:window-maximized="1">
    <inkscape:grid
       type="xygrid"
       id="grid1396" />
  </sodipodi:namedview>
  <metadata
     id="metadata837">
    <rdf:RDF>
      <cc:Work
         rdf:about="">
        <dc:format>image/svg+xml</dc:format>
        <dc:type
           rdf:resource="http://purl.org/dc/dcmitype/StillImage" />
        <dc:title />
      </cc:Work>
    </rdf:RDF>
  </metadata>
  <g
     inkscape:label="Layer 1"
     inkscape:groupmode="layer"
     id="layer1"
     transform="translate(0,232.16668)">
    <g
       id="g4580"
       transform="matrix(1.2215537,0,0,1.3168608,-53.399165,8.0479144)">
      <path
         sodipodi:nodetypes="cccccccccccccscc"
         inkscape:connector-curvature="0"
         id="path848"
         d="m 116.5467,-73.304417 c -4.60351,-11.936518 1.20259,-26.475437 4.95943,-40.502043 12.47153,-16.42203 38.36085,-12.71737 58.68664,-17.35802 17.5546,6.416 26.21605,21.72514 30.58317,41.328619 30.03212,-11.295449 60.06425,-4.119822 90.09637,-0.826574 -1.23068,-14.529315 7.57557,-24.040155 23.97061,-29.756605 26.81301,-20.83163 42.61035,-3.10844 61.16635,4.95944 l 18.1846,38.848894 c 29.2892,11.698073 53.56702,30.28679 65.29919,66.125786 7.23243,45.914894 -4.02747,81.042598 -23.144,111.58727 -36.60672,21.01105 -74.7154,33.76129 -115.72015,30.58316 -42.15227,19.32163 -86.27737,14.96928 -130.59841,8.26574 C 142.16596,137.39842 122.31651,117.566 85.963521,105.23519 79.392995,110.334 57.441118,59.282551 54.553773,44.895432 50.735074,25.867545 46.697514,-1.5316594 49.594338,-0.56605127 62.75287,-27.310061 79.430827,-53.094228 116.5467,-73.304417 Z"
         style="fill:#64c453;fill-opacity:1;stroke:#000000;stroke-width:2.64583325;stroke-linecap:butt;stroke-linejoin:miter;stroke-miterlimit:4;stroke-dasharray:none;stroke-opacity:1" />
      <path
         sodipodi:nodetypes="ccccc"
         inkscape:connector-curvature="0"
         id="path850"
         d="m 126.46556,-71.65127 c 8.93682,10.134367 22.50048,17.955311 44.6349,21.490879 14.12922,-5.984041 25.54144,-14.685083 33.0629,-27.276885 -1.39896,-16.242586 -11.5507,-27.014684 -30.58318,-32.236314 -24.6626,-4.79106 -44.03127,16.744018 -47.11462,38.02232 z"
         style="fill:#ffffff;fill-opacity:1;stroke:#000000;stroke-width:2.64583325;stroke-linecap:butt;stroke-linejoin:miter;stroke-miterlimit:4;stroke-dasharray:none;stroke-opacity:1" />
      <path
         inkscape:connector-curvature="0"
         id="path852"
         d="m 139.69072,-74.130988 47.94119,-9.092295"
         style="fill:none;stroke:#000000;stroke-width:7.9375;stroke-linecap:butt;stroke-linejoin:miter;stroke-miterlimit:4;stroke-dasharray:none;stroke-opacity:1" />
      <path
         style="fill:#ffffff;fill-opacity:1;stroke:#000000;stroke-width:2.68948817;stroke-linecap:butt;stroke-linejoin:miter;stroke-miterlimit:4;stroke-dasharray:none;stroke-opacity:1"
         d="m 311.30861,-88.016798 c 4.42342,13.127659 13.89842,25.464748 32.73103,36.337416 15.03165,-1.329765 28.5855,-6.285264 40.02313,-16.432838 4.66091,-16.763204 -0.63414,-30.932882 -16.03068,-42.47113 -20.67257,-12.96923 -46.14801,2.233 -56.72348,22.566552 z"
         id="path854"
         inkscape:connector-curvature="0"
         sodipodi:nodetypes="ccccc" />
      <path
         style="fill:none;stroke:#000000;stroke-width:7.9375;stroke-linecap:butt;stroke-linejoin:miter;stroke-miterlimit:4;stroke-dasharray:none;stroke-opacity:1"
         d="m 328.86651,-87.563015 48.15973,7.852891"
         id="path856"
         inkscape:connector-curvature="0" />
      <path
         sodipodi:nodetypes="cccccccccccc"
         inkscape:connector-curvature="0"
         id="path4563"
         d="M 80.177515,-8.0052032 C 69.143061,10.71309 55.021784,25.462609 58.686633,63.080006 l 25.623742,44.634914 c 37.746805,13.62812 75.493605,33.64359 113.240405,33.06289 45.18595,4.72023 90.37191,10.11353 135.55786,-6.61257 52.18287,-3.80897 77.62459,-19.5029 111.58725,-31.40975 15.21977,-19.325529 23.26665,-49.410401 29.7566,-81.830662 -2.40922,-14.6860814 -22.53844,-22.284161 -34.71603,-33.062892 l 10.74545,24.797168 C 406.20117,60.180233 353.39243,83.538705 295.91288,93.663193 224.71217,98.489 159.78795,65.655874 92.576099,46.548575 70.113712,35.029264 80.378881,11.609024 80.177515,-8.0052032 Z"
         style="fill:#cdea6e;fill-opacity:1;stroke:#000000;stroke-width:2.64583325;stroke-linecap:butt;stroke-linejoin:miter;stroke-miterlimit:4;stroke-dasharray:none;stroke-opacity:1" />
      <path
         sodipodi:nodetypes="cc"
         inkscape:connector-curvature="0"
         id="path4567"
         d="M 299.48434,15.18236 286.55543,10.135852"
         style="fill:none;stroke:#000000;stroke-width:7.9375;stroke-linecap:butt;stroke-linejoin:miter;stroke-miterlimit:4;stroke-dasharray:none;stroke-opacity:1" />
      <path
         style="fill:none;stroke:#000000;stroke-width:7.9375;stroke-linecap:butt;stroke-linejoin:miter;stroke-miterlimit:4;stroke-dasharray:none;stroke-opacity:1"
         d="m 253.49253,17.662077 12.92891,-5.046508"
         id="path4569"
         inkscape:connector-curvature="0"
         sodipodi:nodetypes="cc" />
      <path
         sodipodi:nodetypes="ccccc"
         inkscape:connector-curvature="0"
         id="path4561"
         d="M 100.01525,-17.097498 C 70.264367,-13.791209 72.121104,42.415704 91.749527,42.415704 148.14742,74.337732 210.30999,90.118637 277.72831,91.183465 337.88037,95.194459 378.28732,64.651524 421.55189,39.109418 436.06034,24.752687 457.95499,12.704148 438.9099,-12.138064"
         style="fill:none;stroke:#000000;stroke-width:7.9375;stroke-linecap:butt;stroke-linejoin:miter;stroke-miterlimit:4;stroke-dasharray:none;stroke-opacity:1" />
    </g>
  </g>
</svg>
