<?xml version="1.0" encoding="UTF-8" standalone="no"?>
<!-- Created with Inkscape (http://www.inkscape.org/) -->

<!-- Created by jefParil -->

<!-- <a rel="license" href="http://creativecommons.org/licenses/by-nc/4.0/"><img alt="Creative Commons License" style="border-width:0" src="https://i.creativecommons.org/l/by-nc/4.0/88x31.png" /></a><br />This work is licensed under a <a rel="license" href="http://creativecommons.org/licenses/by-nc/4.0/">Creative Commons Attribution-NonCommercial 4.0 International License</a>. -->

<svg
   sodipodi:docname="helix_002.svg"
   inkscape:version="1.2.1 (9c6d41e410, 2022-07-14)"
   id="svg888"
   version="1.1"
   viewBox="0 0 529.16666 529.16666"
   height="2000"
   width="2000"
   xmlns:inkscape="http://www.inkscape.org/namespaces/inkscape"
   xmlns:sodipodi="http://sodipodi.sourceforge.net/DTD/sodipodi-0.dtd"
   xmlns="http://www.w3.org/2000/svg"
   xmlns:svg="http://www.w3.org/2000/svg"
   xmlns:rdf="http://www.w3.org/1999/02/22-rdf-syntax-ns#"
   xmlns:cc="http://creativecommons.org/ns#"
   xmlns:dc="http://purl.org/dc/elements/1.1/">
  <sodipodi:namedview
     inkscape:window-maximized="1"
     inkscape:window-y="0"
     inkscape:window-x="0"
     inkscape:window-height="1052"
     inkscape:window-width="1920"
     units="px"
     inkscape:pagecheckerboard="true"
     showgrid="true"
     inkscape:current-layer="layer3"
     inkscape:document-units="mm"
     inkscape:cy="947.5231"
     inkscape:cx="32.324882"
     inkscape:zoom="0.24748737"
     inkscape:pageshadow="2"
     inkscape:pageopacity="0.0"
     borderopacity="1.0"
     bordercolor="#666666"
     pagecolor="#ffffff"
     id="base"
     inkscape:snap-bbox="false"
     inkscape:snap-smooth-nodes="true"
     inkscape:snap-others="true"
     inkscape:snap-to-guides="true"
     inkscape:snap-midpoints="true"
     inkscape:snap-global="true"
     inkscape:object-paths="true"
     inkscape:showpageshadow="2"
     inkscape:deskcolor="#d1d1d1">
    <inkscape:grid
       id="grid5831"
       type="xygrid" />
  </sodipodi:namedview>
  <defs
     id="defs882">
    <clipPath
       clipPathUnits="userSpaceOnUse"
       id="clipPath340">
      <g
         id="g344">
        <ellipse
           style="display:inline;opacity:1;fill:#41b6c4;fill-opacity:1;stroke-width:0.595057"
           ry="264.3829"
           rx="264.50702"
           cy="226.72852"
           cx="28.320581"
           id="ellipse342" />
      </g>
    </clipPath>
    <clipPath
       clipPathUnits="userSpaceOnUse"
       id="clipPath382">
      <g
         id="g386">
        <ellipse
           style="display:inline;opacity:1;fill:#41b6c4;fill-opacity:1;stroke-width:0.595057"
           ry="264.3829"
           rx="264.50702"
           cy="226.72852"
           cx="28.320581"
           id="ellipse384" />
      </g>
    </clipPath>
  </defs>
  <metadata
     id="metadata885">
    <rdf:RDF>
      <cc:Work
         rdf:about="">
        <dc:format>image/svg+xml</dc:format>
        <dc:type
           rdf:resource="http://purl.org/dc/dcmitype/StillImage" />
        <dc:title />
      </cc:Work>
    </rdf:RDF>
  </metadata>
  <g
     inkscape:groupmode="layer"
     id="layer3"
     inkscape:label="layer"
     transform="translate(249.31008,31.749999)">
    <g
       id="g379">
      <path
         id="ellipse69"
         style="display:inline;fill:#41b6c4;fill-opacity:1;stroke-width:0.46394"
         d="m 15.273263,-31.549489 a 264.50702,264.3829 0 0 0 -159.187713,53.2691 l 22.61516,22.45858 c 0.39329,0.39154 0.76504,0.79766 1.11621,1.21749 0.35117,0.41983 0.68193,0.85338 0.99219,1.3007 0.31026,0.44731 0.6002,0.90835 0.87075,1.38234 0.27055,0.47399 0.52141,0.96103 0.75344,1.4609 0.23204,0.49986 0.44503,1.01245 0.63976,1.53737 0.19472,0.52492 0.37106,1.06209 0.52968,1.61127 0.15862,0.54918 0.29952,1.11047 0.42323,1.6831 0.12371,0.57263 0.23039,1.15656 0.32039,1.75183 0.09,0.59528 0.16368,1.20191 0.22118,1.81901 0.0575,0.61711 0.0989,1.24496 0.12506,1.88309 0.0524,1.27628 0.0434,2.59357 -0.0222,3.94912 -0.0656,1.35554 -0.18773,2.74916 -0.36174,4.17752 -0.17401,1.42836 -0.40003,2.89157 -0.67283,4.38629 -0.27279,1.49473 -0.59249,3.0208 -0.95446,4.57544 -0.36197,1.55463 -0.76614,3.13788 -1.20768,4.74596 -0.44154,1.60808 -0.92045,3.24126 -1.43195,4.89634 -0.5115,1.65508 -1.05545,3.33198 -1.6273,5.0276 -0.57185,1.69562 -1.17162,3.41004 -1.79421,5.13974 -0.62258,1.7297 -1.26795,3.474909 -1.93166,5.232239 -1.32743,3.51466 -2.72774,7.07802 -4.16202,10.66446 -1.43428,3.58645 -2.83408,7.14981 -4.1615,10.66446 -0.66372,1.75734 -1.3096,3.50254 -1.93219,5.23224 -0.62258,1.7297 -1.22184,3.44412 -1.79368,5.13974 -0.57185,1.69562 -1.11631,3.37252 -1.62781,5.0276 -0.5115,1.65508 -0.99042,3.28826 -1.43196,4.89634 -0.44154,1.60808 -0.8457,3.19082 -1.20767,4.74545 -0.36198,1.55463 -0.68167,3.08122 -0.95447,4.57595 -0.27279,1.49472 -0.4983,2.95793 -0.67231,4.38629 -0.17401,1.42837 -0.29664,2.82146 -0.36225,4.17701 -0.0656,1.35555 -0.0746,2.67335 -0.0222,3.94963 0.0262,0.63814 0.0681,1.26598 0.12557,1.88309 0.0575,0.61711 0.13066,1.22322 0.22066,1.81849 0.09,0.59527 0.19668,1.17972 0.3204,1.75235 0.12371,0.57263 0.26461,1.1334 0.42323,1.68258 0.15861,0.54918 0.33495,1.08687 0.52968,1.61179 0.19472,0.52493 0.40772,1.03751 0.63975,1.53738 0.23204,0.49986 0.48342,0.9869 0.75396,1.46089 0.27055,0.47399 0.56049,0.93503 0.87075,1.38234 0.31026,0.44732 0.6405,0.88087 0.99167,1.3007 v 0 c -0.35117,-0.41983 -0.68141,-0.85338 -0.99167,-1.3007 -0.31026,-0.44731 -0.6002,-0.90835 -0.87075,-1.38234 -0.27054,-0.47399 -0.52192,-0.96103 -0.75396,-1.46089 -0.23203,-0.49987 -0.44503,-1.01245 -0.63975,-1.53738 -0.19473,-0.52492 -0.37107,-1.06261 -0.52968,-1.61179 -0.15862,-0.54918 -0.29952,-1.10995 -0.42323,-1.68258 -0.12372,-0.57263 -0.23039,-1.15708 -0.3204,-1.75235 -0.09,-0.59527 -0.16316,-1.20138 -0.22066,-1.81849 -0.0575,-0.61711 -0.0994,-1.24495 -0.12557,-1.88309 -0.0524,-1.27628 -0.0434,-2.59408 0.0222,-3.94963 0.0656,-1.35555 0.18824,-2.74864 0.36225,-4.17701 0.17401,-1.42836 0.39952,-2.89157 0.67231,-4.38629 0.2728,-1.49473 0.59249,-3.02132 0.95447,-4.57595 0.36197,-1.55463 0.76613,-3.13737 1.20767,-4.74545 0.44154,-1.60808 0.92046,-3.24126 1.43196,-4.89634 0.5115,-1.65508 1.05596,-3.33198 1.62781,-5.0276 0.57184,-1.69562 1.1711,-3.41004 1.79368,-5.13974 0.62259,-1.7297 1.26847,-3.4749 1.93219,-5.23224 1.32742,-3.51465 2.72722,-7.07801 4.1615,-10.66446 1.43428,-3.58644 2.83459,-7.1498 4.16202,-10.66446 0.66371,-1.75733 1.30908,-3.502539 1.93166,-5.232239 0.62259,-1.7297 1.22236,-3.44412 1.79421,-5.13974 0.57185,-1.69562 1.1158,-3.37252 1.6273,-5.0276 0.5115,-1.65508 0.99041,-3.28826 1.43195,-4.89634 0.44154,-1.60808 0.84571,-3.19133 1.20768,-4.74596 0.36197,-1.55464 0.68167,-3.08071 0.95446,-4.57544 0.2728,-1.49472 0.49882,-2.95793 0.67283,-4.38629 0.17401,-1.42836 0.29612,-2.82198 0.36174,-4.17752 0.0656,-1.35555 0.0746,-2.67284 0.0222,-3.94912 -0.0262,-0.63813 -0.0676,-1.26598 -0.12506,-1.88309 -0.0575,-0.6171 -0.13117,-1.22373 -0.22118,-1.81901 -0.09,-0.59527 -0.19668,-1.1792 -0.32039,-1.75183 -0.12371,-0.57263 -0.26461,-1.13392 -0.42323,-1.6831 -0.15862,-0.54918 -0.33496,-1.08635 -0.52968,-1.61127 -0.19473,-0.52492 -0.40772,-1.03751 -0.63976,-1.53737 -0.23203,-0.49987 -0.48289,-0.98691 -0.75344,-1.4609 -0.27055,-0.47399 -0.56049,-0.93503 -0.87075,-1.38234 -0.31026,-0.44732 -0.64102,-0.88087 -0.99219,-1.3007 -0.35117,-0.41983 -0.72292,-0.82595 -1.11621,-1.21749 l -22.61516,-22.45858 a 264.50702,264.3829 0 0 0 -7.5215,5.89163 c -0.004,0.10454 0.004,0.20093 -0.002,0.30592 -0.0656,1.35555 -0.18825,2.74865 -0.36226,4.17701 -0.17401,1.42836 -0.39951,2.89157 -0.67231,4.3863 -0.27279,1.49472 -0.59249,3.02131 -0.95446,4.57594 -0.36197,1.55463 -0.76614,3.13737 -1.20768,4.74545 -0.44154,1.60808 -0.92045,3.24126 -1.43195,4.89634 -0.5115,1.65508 -1.05596,3.33198 -1.62781,5.0276 -0.57185,1.69562 -1.1711,3.41004 -1.79369,5.13974 -0.62258,1.7297 -1.26847,3.47491 -1.93218,5.23224 -1.32743,3.51466 -2.72722,7.07802 -4.1615,10.66446 -1.43428,3.58645 -2.8346,7.14981 -4.16202,10.66447 -0.66372,1.75733 -1.30908,3.50254 -1.93167,5.23224 -0.62258,1.7297 -1.22236,3.44412 -1.7942,5.13974 -0.57185,1.69561 -1.1158,3.372519 -1.6273,5.027599 -0.51149,1.65507 -0.99041,3.28826 -1.43195,4.89634 -0.44154,1.60808 -0.8457,3.19133 -1.20768,4.74596 -0.36197,1.55463 -0.68166,3.08071 -0.95446,4.57543 -0.2728,1.49473 -0.49882,2.95793 -0.67283,4.3863 -0.17401,1.42837 -0.29612,2.82198 -0.36173,4.17753 -0.0656,1.35553 -0.0746,2.67282 -0.0222,3.9491 0.0262,0.63814 0.0676,1.26598 0.12505,1.88309 0.0575,0.61711 0.13117,1.22374 0.22118,1.81901 0.09,0.59527 0.19668,1.1792 0.32039,1.75183 0.12371,0.57263 0.26461,1.13392 0.42323,1.6831 0.15862,0.54918 0.33496,1.08635 0.52969,1.61127 0.19472,0.52493 0.40771,1.03751 0.63975,1.53738 0.23203,0.49986 0.4829,0.9869 0.75344,1.46089 0.27055,0.47399 0.56049,0.93503 0.87075,1.38234 0.31026,0.44732 0.64102,0.88087 0.99219,1.3007 0.35039,0.4189 0.7213,0.82417 1.11362,1.21491 8.7e-4,8.7e-4 0.002,0.002 0.003,0.003 v 0 c -8.7e-4,-8.7e-4 -0.002,-0.002 -0.003,-0.003 v 0 c -0.39232,-0.39074 -0.76323,-0.79601 -1.11362,-1.21491 -0.35117,-0.41983 -0.68193,-0.85338 -0.99219,-1.3007 -0.31026,-0.44731 -0.6002,-0.90835 -0.87075,-1.38234 -0.27054,-0.47399 -0.52141,-0.96103 -0.75344,-1.46089 -0.23204,-0.49987 -0.44503,-1.01245 -0.63975,-1.53738 -0.19473,-0.52492 -0.37107,-1.06209 -0.52969,-1.61127 -0.15862,-0.54918 -0.29952,-1.11047 -0.42323,-1.6831 -0.12371,-0.57263 -0.23039,-1.15656 -0.32039,-1.75183 -0.09,-0.59527 -0.16368,-1.2019 -0.22118,-1.81901 -0.0575,-0.61711 -0.0989,-1.24495 -0.12505,-1.88309 -0.0524,-1.27628 -0.0434,-2.59357 0.0222,-3.9491 0.0656,-1.35555 0.18772,-2.74916 0.36173,-4.17753 0.17401,-1.42837 0.40003,-2.89157 0.67283,-4.3863 0.2728,-1.49472 0.59249,-3.0208 0.95446,-4.57543 0.36198,-1.55463 0.76614,-3.13788 1.20768,-4.74596 0.44154,-1.60808 0.92046,-3.24127 1.43195,-4.89634 0.5115,-1.65508 1.05545,-3.331989 1.6273,-5.027599 0.57184,-1.69562 1.17162,-3.41004 1.7942,-5.13974 0.62259,-1.7297 1.26795,-3.47491 1.93167,-5.23224 1.32742,-3.51466 2.72774,-7.07802 4.16202,-10.66447 1.43428,-3.58644 2.83407,-7.1498 4.1615,-10.66446 0.66371,-1.75733 1.3096,-3.50254 1.93218,-5.23224 0.62259,-1.7297 1.22184,-3.44412 1.79369,-5.13974 0.57185,-1.69562 1.11631,-3.37252 1.62781,-5.0276 0.5115,-1.65508 0.99041,-3.28826 1.43195,-4.89634 0.44154,-1.60808 0.84571,-3.19082 1.20768,-4.74545 0.36197,-1.55463 0.68167,-3.08122 0.95446,-4.57594 0.2728,-1.49473 0.4983,-2.95794 0.67231,-4.3863 0.17401,-1.42836 0.29664,-2.82146 0.36226,-4.17701 0.005,-0.10499 -0.003,-0.20138 0.002,-0.30592 A 264.50702,264.3829 0 0 0 -249.2336,232.83333 264.50702,264.3829 0 0 0 15.273263,497.21616 264.50702,264.3829 0 0 0 279.7801,232.83333 264.50702,264.3829 0 0 0 15.273263,-31.549489 Z" />
      <path
         id="rect1449"
         clip-path="none"
         style="display:inline;fill:#225ea8;fill-opacity:0.18617;stroke:none;stroke-width:0.268669"
         d="m 12.516839,497.11331 a 264.50702,264.3829 0 0 0 2.75642,0.10283 264.50702,264.3829 0 0 0 19.76624,-0.73897 264.50702,264.3829 0 0 0 19.65616,-2.21382 264.50702,264.3829 0 0 0 19.436032,-3.67574 264.50702,264.3829 0 0 0 19.106302,-5.11701 264.50702,264.3829 0 0 0 18.670177,-6.53035 264.50702,264.3829 0 0 0 18.13016,-7.90597 264.50702,264.3829 0 0 0 17.48834,-9.23872 264.50702,264.3829 0 0 0 16.74833,-10.51873 264.50702,264.3829 0 0 0 15.91531,-11.74089 264.50702,264.3829 0 0 0 14.9934,-12.89637 264.50702,264.3829 0 0 0 13.98674,-13.98002 264.50702,264.3829 0 0 0 12.90257,-14.98617 264.50702,264.3829 0 0 0 11.74606,-15.90807 264.50702,264.3829 0 0 0 10.5239,-16.74058 264.50702,264.3829 0 0 0 9.24285,-17.48007 264.50702,264.3829 0 0 0 7.91011,-18.12138 264.50702,264.3829 0 0 0 6.53294,-18.66191 264.50702,264.3829 0 0 0 5.11958,-19.09754 264.50702,264.3829 0 0 0 3.6773,-19.4262 264.50702,264.3829 0 0 0 2.21485,-19.64687 264.50702,264.3829 0 0 0 0.73949,-19.75745 264.50702,264.3829 0 0 0 -0.0879,-6.80733 264.50702,264.3829 0 0 0 -0.26304,-6.80269 264.50702,264.3829 0 0 0 -0.43821,-6.7939 264.50702,264.3829 0 0 0 -0.61288,-6.77995 264.50702,264.3829 0 0 0 -0.78755,-6.76238 264.50702,264.3829 0 0 0 -0.96119,-6.73964 264.50702,264.3829 0 0 0 -1.13481,-6.71276 264.50702,264.3829 0 0 0 -1.30741,-6.68125 264.50702,264.3829 0 0 0 -1.47898,-6.64559 264.50702,264.3829 0 0 0 -1.64951,-6.60528 264.50702,264.3829 0 0 0 -1.81902,-6.56032 264.50702,264.3829 0 0 0 -1.98799,-6.51175 264.50702,264.3829 0 0 0 -2.15439,-6.45801 264.50702,264.3829 0 0 0 -2.32027,-6.40064 264.50702,264.3829 0 0 0 -2.4846,-6.33915 264.50702,264.3829 0 0 0 -2.64687,-6.27248 264.50702,264.3829 0 0 0 -2.8081,-6.20272 264.50702,264.3829 0 0 0 -2.96622,-6.12831 264.50702,264.3829 0 0 0 -3.12333,-6.04976 264.50702,264.3829 0 0 0 -3.27835,-5.9676 264.50702,264.3829 0 0 0 -3.4308,-5.880779 264.50702,264.3829 0 0 0 -3.58118,-5.79087 264.50702,264.3829 0 0 0 -3.72897,-5.69681 264.50702,264.3829 0 0 0 -3.8747,-5.59914 264.50702,264.3829 0 0 0 -4.01784,-5.49734 264.50702,264.3829 0 0 0 -4.15788,-5.39191 264.50702,264.3829 0 0 0 -4.29535,-5.2834 264.50702,264.3829 0 0 0 -4.43022,-5.17126 264.50702,264.3829 0 0 0 -4.56148,-5.05551 264.50702,264.3829 0 0 0 -4.69067,-4.93613 264.50702,264.3829 0 0 0 -4.81624,-4.81366 264.50702,264.3829 0 0 0 -4.93872,-4.6886 264.50702,264.3829 0 0 0 -5.05757,-4.55942 264.50702,264.3829 0 0 0 -5.17333,-4.42815 264.50702,264.3829 0 0 0 -5.28598,-4.29328 264.50702,264.3829 0 0 0 -5.3945,-4.15582 264.50702,264.3829 0 0 0 -5.49993,-4.01577 264.50702,264.3829 0 0 0 -5.60172,-3.87315 264.50702,264.3829 0 0 0 -5.6994,-3.7274197 264.50702,264.3829 0 0 0 -5.79344,-3.5796306 264.50702,264.3829 0 0 0 -5.88388,-3.42925 264.50702,264.3829 0 0 0 -5.97069,-3.27628 264.50702,264.3829 0 0 0 -6.05235,-3.12178 264.50702,264.3829 0 0 0 -6.13141,-2.96519 264.50702,264.3829 0 0 0 -6.2053,-2.8065497 264.50702,264.3829 0 0 0 -6.27559,-2.64583 264.50702,264.3829 0 0 0 -6.34173,-2.48305 264.50702,264.3829 0 0 0 -6.40374,-2.31924 264.50702,264.3829 0 0 0 -6.461107,-2.15387 264.50702,264.3829 0 0 0 -6.51485,-1.98645 264.50702,264.3829 0 0 0 -6.56342,-1.81849 264.50702,264.3829 0 0 0 -6.608362,-1.64899 264.50702,264.3829 0 0 0 -6.64869,-1.47795 264.50702,264.3829 0 0 0 -6.684352,-1.3069 264.50702,264.3829 0 0 0 -6.71587,-1.1343 264.50702,264.3829 0 0 0 -6.74274,-0.96066 264.50702,264.3829 0 0 0 -6.76548,-0.78755 264.50702,264.3829 0 0 0 -6.78356,-0.61236 264.50702,264.3829 0 0 0 -6.797,-0.43822 264.50702,264.3829 0 0 0 -6.80579,-0.26303 264.50702,264.3829 0 0 0 -6.81044,-0.0873 264.50702,264.3829 0 0 0 -2.75642,0.10283 z" />
      <g
         id="g362">
        <path
           id="path718"
           clip-path="none"
           style="fill:#c6dbef;fill-opacity:1;stroke:none;stroke-width:0.339385;stroke-opacity:1"
           d="m 133.06249,428.7945 25.96069,25.78086 a 264.50702,264.3829 0 0 0 22.81411,-16.45584 c -22.11163,0.82377 -40.33481,-0.96465 -48.7748,-9.32502 z" />
        <path
           style="fill:#c6dbef;fill-opacity:1;stroke:none;stroke-width:0.339385;stroke-opacity:1"
           d="m 180.38374,323.8359 c -12.62295,-12.50386 -47.11598,-10.31612 -83.798317,-6.65767 -36.682284,3.65853 -71.17525,5.84631 -83.798135,-6.65747 h -1.1e-5 l -36.107742,-35.85711 -2.08e-4,-2.2e-4 c 12.622875,12.50379 47.115842,10.31599 83.798136,6.65747 36.68227,-3.65851 71.175237,-5.84629 83.798127,6.65749 l -1.00099,-0.99404 36.10792,35.85729"
           title="t cos(t)"
           id="path5962-5"
           inkscape:connector-curvature="0"
           sodipodi:nodetypes="csccccsccc"
           clip-path="none" />
        <path
           sodipodi:nodetypes="csccccsccc"
           inkscape:connector-curvature="0"
           id="path5958-6"
           title="t cos(t)"
           d="m 30.173791,174.6686 c -12.622947,-12.50386 -47.115979,-10.31613 -83.798317,-6.65768 -36.682285,3.65853 -71.175254,5.84631 -83.798134,-6.65747 l -2e-5,1e-5 -36.10774,-35.85711 -2.1e-4,-2.3e-4 c 12.62288,12.50379 47.11585,10.31599 83.798144,6.65748 36.682274,-3.65852 71.17524,-5.8463 83.798125,6.65748 l -1.000987,-0.99404 36.107924,35.85729"
           style="fill:#c6dbef;fill-opacity:1;stroke:none;stroke-width:0.339385;stroke-opacity:1"
           clip-path="none" />
        <path
           id="path5990-9"
           clip-path="none"
           style="fill:#c6dbef;fill-opacity:1;stroke:none;stroke-width:0.339385;stroke-opacity:1"
           d="m 36.870385,334.43643 36.097021,35.8464 c 12.62287,12.50376 47.115734,10.31599 83.797984,6.65747 32.2832,-3.21972 62.86758,-5.29805 78.34406,2.77244 a 264.50702,264.3829 0 0 0 0.59221,-0.94258 L 204.4555,347.74053 c -12.62287,-12.50377 -47.11574,-10.31599 -83.79798,-6.65747 -36.671491,3.65743 -71.155151,5.84487 -83.787135,-6.64663 z" />
        <path
           style="fill:#c6dbef;fill-opacity:1;stroke:none;stroke-width:0.339385;stroke-opacity:1"
           d="M 90.353703,234.43079 C 77.730757,221.92693 43.237726,224.11466 6.555388,227.77312 c -36.682285,3.65852 -71.175242,5.84631 -83.798127,-6.65747 l -1.1e-5,1e-5 -36.10774,-35.85711 -2.1e-4,-2.3e-4 c 12.62287,12.50379 47.115842,10.31599 83.798136,6.65748 36.682274,-3.65852 71.175231,-5.84631 83.798125,6.65748 l -1.000987,-0.99404 36.107929,35.85729"
           title="t cos(t)"
           id="path5994-2"
           inkscape:connector-curvature="0"
           sodipodi:nodetypes="csccccsccc"
           clip-path="none" />
        <path
           sodipodi:nodetypes="csccccsccc"
           inkscape:connector-curvature="0"
           id="path5996-7"
           title="t cos(t)"
           d="m 73.486281,370.79844 c -12.585145,-12.52925 -3.300205,-39.75011 8.174042,-68.44167 11.47428,-28.69156 20.759197,-55.91242 8.17406,-68.44168 l 1e-5,-1e-5 -36.107931,-35.8573 -2.2e-4,-2e-4 c 12.585136,12.52925 3.300196,39.7501 -8.174062,68.44168 -11.474256,28.69156 -20.759185,55.9124 -8.174051,68.44166 l -1.000987,-0.99403 36.107933,35.85729"
           style="fill:#f7fbff;fill-opacity:1;stroke:none;stroke-width:0.339385;stroke-opacity:1"
           clip-path="none" />
        <path
           id="path5998-0"
           clip-path="none"
           style="fill:#c6dbef;fill-opacity:1;stroke:none;stroke-width:0.339385;stroke-opacity:1"
           d="m -134.76199,39.660114 c -9.84626,-0.05048 -20.78579,0.633459 -32.18047,1.623156 a 264.50702,264.3829 0 0 0 -33.92816,39.450822 c 15.84687,1.32412 36.05179,-0.279858 56.97637,-2.36678 36.6823,-3.65845 71.175053,-5.845857 83.797988,6.657991 l -1.000972,-0.994254 -35.106901,-34.863505 c -7.100375,-7.033375 -21.120595,-9.418034 -38.557855,-9.50743 z" />
        <path
           id="path5909-9"
           clip-path="none"
           style="fill:#f7fbff;fill-opacity:1;stroke:none;stroke-width:0.339385;stroke-opacity:1"
           d="m -132.13373,13.488068 a 264.50702,264.3829 0 0 0 -11.78067,8.231539 264.50702,264.3829 0 0 0 -7.52151,5.89163 264.50702,264.3829 0 0 0 -4.10724,3.593062 c -2.55986,8.293754 -5.93943,17.138037 -9.5343,26.127087 -11.47275,28.687774 -20.75658,55.905194 -8.17883,68.436654 l -0.99632,-0.98909 1.00097,0.99426 35.1069,34.86298 1.00149,0.99426 c -12.58514,-12.52924 -3.30058,-39.74976 8.17366,-68.441304 11.47426,-28.691539 20.7593,-55.912567 8.17418,-68.441817 z" />
        <path
           style="fill:#f7fbff;fill-opacity:1;stroke:none;stroke-width:0.339385;stroke-opacity:1"
           d="m -76.963565,221.39288 c -12.585144,-12.52925 -3.300195,-39.75009 8.174051,-68.44166 11.474267,-28.69157 20.759196,-55.912415 8.174062,-68.441677 l 1.1e-5,-8e-6 -36.107942,-35.857308 -2.3e-4,-2.1e-4 c 12.585136,12.529246 3.300205,39.750106 -8.174067,68.441673 -11.47424,28.69157 -20.75918,55.91241 -8.17404,68.44168 l -1.00099,-0.99405 36.107931,35.8573"
           title="t cos(t)"
           id="path6000-3"
           inkscape:connector-curvature="0"
           sodipodi:nodetypes="csccccsccc"
           clip-path="none" />
        <path
           style="fill:#f7fbff;fill-opacity:1;stroke:none;stroke-width:0.339385;stroke-opacity:1"
           d="M 13.306367,311.03625 C 0.721223,298.50699 10.006163,271.28614 21.480409,242.59457 32.954676,213.90301 42.239605,186.68216 29.654472,174.1529 l 1e-5,-10e-6 -36.107942,-35.85731 -2.2e-4,-2e-4 c 12.585135,12.52925 3.300195,39.7501 -8.174063,68.44168 -11.474255,28.69156 -20.759184,55.9124 -8.174051,68.44166 l -1.000987,-0.99403 36.107934,35.8573"
           title="t cos(t)"
           id="path5960-6"
           inkscape:connector-curvature="0"
           sodipodi:nodetypes="csccccsccc"
           clip-path="none" />
        <path
           id="path5964-0"
           clip-path="none"
           style="fill:#f7fbff;fill-opacity:1;stroke:none;stroke-width:0.339385;stroke-opacity:1"
           d="m 150.96161,292.93768 c 12.56922,12.53399 3.2865,39.74751 -8.18451,68.43096 -11.47424,28.69153 -20.7593,55.91257 -8.17418,68.44182 l 24.73751,24.56542 a 264.50702,264.3829 0 0 0 5.43791,-3.47007 c -0.91573,-14.11909 6.05015,-33.53273 14.10715,-53.67941 11.47425,-28.69154 20.75878,-55.91257 8.17366,-68.44182 z" />
        <path
           id="path5992-1"
           clip-path="none"
           style="fill:#f7fbff;fill-opacity:1;stroke:none;stroke-width:0.339385;stroke-opacity:1"
           d="m 213.35836,356.66919 c 10.48806,10.44149 5.77345,31.09549 -2.72541,54.29178 a 264.50702,264.3829 0 0 0 25.03516,-32.13706 z" />
      </g>
    </g>
  </g>
</svg>
