<?xml version="1.0" encoding="UTF-8" standalone="no"?>
<!-- Created with Inkscape (http://www.inkscape.org/) -->

<!-- Created by jefParil -->

<!-- <a rel="license" href="http://creativecommons.org/licenses/by-nc/4.0/"><img alt="Creative Commons License" style="border-width:0" src="https://i.creativecommons.org/l/by-nc/4.0/88x31.png" /></a><br />This work is licensed under a <a rel="license" href="http://creativecommons.org/licenses/by-nc/4.0/">Creative Commons Attribution-NonCommercial 4.0 International License</a>. -->

<svg
   xmlns:dc="http://purl.org/dc/elements/1.1/"
   xmlns:cc="http://creativecommons.org/ns#"
   xmlns:rdf="http://www.w3.org/1999/02/22-rdf-syntax-ns#"
   xmlns:svg="http://www.w3.org/2000/svg"
   xmlns="http://www.w3.org/2000/svg"
   xmlns:sodipodi="http://sodipodi.sourceforge.net/DTD/sodipodi-0.dtd"
   xmlns:inkscape="http://www.inkscape.org/namespaces/inkscape"
   width="2000"
   height="2000"
   viewBox="0 0 529.16665 529.16668"
   version="1.1"
   id="svg8"
   sodipodi:docname="hwe.svg"
   inkscape:version="0.92.4 (unknown)"
   inkscape:export-filename="/home/student.unimelb.edu.au/jparil/hwe.png"
   inkscape:export-xdpi="90"
   inkscape:export-ydpi="90">
  <defs
     id="defs2">
    <clipPath
       clipPathUnits="userSpaceOnUse"
       id="clipPath821">
      <circle
         r="264.58337"
         cy="32.416653"
         cx="264.58337"
         id="circle823"
         style="opacity:1;fill:#ffb5b5;fill-opacity:1;fill-rule:nonzero;stroke:none;stroke-width:0.3671532;stroke-miterlimit:4;stroke-dasharray:none;stroke-dashoffset:0;stroke-opacity:1" />
    </clipPath>
    <clipPath
       clipPathUnits="userSpaceOnUse"
       id="clipPath1037">
      <rect
         y="30.238077"
         x="442.98813"
         height="294.82144"
         width="63.5"
         id="rect1039"
         style="opacity:1;fill:#fffac9;fill-opacity:1;fill-rule:nonzero;stroke:none;stroke-width:5;stroke-miterlimit:4;stroke-dasharray:none;stroke-dashoffset:0;stroke-opacity:1" />
    </clipPath>
    <clipPath
       clipPathUnits="userSpaceOnUse"
       id="clipPath1139">
      <rect
         style="opacity:1;fill:#fffac9;fill-opacity:1;fill-rule:nonzero;stroke:none;stroke-width:3.53553391;stroke-miterlimit:4;stroke-dasharray:none;stroke-dashoffset:0;stroke-opacity:1"
         id="rect1141"
         width="31.75"
         height="294.82144"
         x="604.53113"
         y="16.630957" />
    </clipPath>
    <clipPath
       clipPathUnits="userSpaceOnUse"
       id="clipPath1143">
      <rect
         style="opacity:1;fill:#fffac9;fill-opacity:1;fill-rule:nonzero;stroke:none;stroke-width:2.18217897;stroke-miterlimit:4;stroke-dasharray:none;stroke-dashoffset:0;stroke-opacity:1"
         id="rect1145"
         width="12.095238"
         height="294.82144"
         x="643.38739"
         y="37.797626" />
    </clipPath>
    <clipPath
       clipPathUnits="userSpaceOnUse"
       id="clipPath1147">
      <rect
         style="opacity:1;fill:#fffac9;fill-opacity:1;fill-rule:nonzero;stroke:none;stroke-width:2.18217897;stroke-miterlimit:4;stroke-dasharray:none;stroke-dashoffset:0;stroke-opacity:1"
         id="rect1149"
         width="12.095238"
         height="294.82144"
         x="584.8006"
         y="37.797626" />
    </clipPath>
    <clipPath
       clipPathUnits="userSpaceOnUse"
       id="clipPath1166">
      <rect
         style="opacity:1;fill:#fffac9;fill-opacity:1;fill-rule:nonzero;stroke:none;stroke-width:5;stroke-miterlimit:4;stroke-dasharray:none;stroke-dashoffset:0;stroke-opacity:1"
         id="rect1168"
         width="198.05951"
         height="61.988094"
         x="-353.78568"
         y="-169.33333" />
    </clipPath>
    <clipPath
       clipPathUnits="userSpaceOnUse"
       id="clipPath1194">
      <rect
         style="opacity:1;fill:#fffac9;fill-opacity:1;fill-rule:nonzero;stroke:none;stroke-width:4.10997486;stroke-miterlimit:4;stroke-dasharray:none;stroke-dashoffset:0;stroke-opacity:1"
         id="rect1196"
         width="264.58337"
         height="27.214285"
         x="-401.83466"
         y="-14.817155" />
    </clipPath>
    <clipPath
       clipPathUnits="userSpaceOnUse"
       id="clipPath1344">
      <rect
         y="-41.805096"
         x="-401.83469"
         height="9.0714273"
         width="264.58337"
         id="rect1346"
         style="opacity:1;fill:#fffac9;fill-opacity:1;fill-rule:nonzero;stroke:none;stroke-width:2.372895;stroke-miterlimit:4;stroke-dasharray:none;stroke-dashoffset:0;stroke-opacity:1" />
    </clipPath>
    <clipPath
       clipPathUnits="userSpaceOnUse"
       id="clipPath1348">
      <rect
         y="-41.805096"
         x="-401.83469"
         height="9.0714273"
         width="264.58337"
         id="rect1350"
         style="opacity:1;fill:#fffac9;fill-opacity:1;fill-rule:nonzero;stroke:none;stroke-width:2.372895;stroke-miterlimit:4;stroke-dasharray:none;stroke-dashoffset:0;stroke-opacity:1" />
    </clipPath>
    <clipPath
       clipPathUnits="userSpaceOnUse"
       id="clipPath1408">
      <rect
         y="42.105625"
         x="-612.32141"
         height="9.0714273"
         width="264.58337"
         id="rect1410"
         style="opacity:1;fill:#fffac9;fill-opacity:1;fill-rule:nonzero;stroke:none;stroke-width:2.372895;stroke-miterlimit:4;stroke-dasharray:none;stroke-dashoffset:0;stroke-opacity:1" />
    </clipPath>
    <clipPath
       clipPathUnits="userSpaceOnUse"
       id="clipPath1412">
      <rect
         y="42.105625"
         x="-612.32141"
         height="9.0714273"
         width="264.58337"
         id="rect1414"
         style="opacity:1;fill:#fffac9;fill-opacity:1;fill-rule:nonzero;stroke:none;stroke-width:2.372895;stroke-miterlimit:4;stroke-dasharray:none;stroke-dashoffset:0;stroke-opacity:1" />
    </clipPath>
    <clipPath
       clipPathUnits="userSpaceOnUse"
       id="clipPath1416">
      <rect
         y="42.105625"
         x="-612.32141"
         height="9.0714273"
         width="264.58337"
         id="rect1418"
         style="opacity:1;fill:#fffac9;fill-opacity:1;fill-rule:nonzero;stroke:none;stroke-width:2.372895;stroke-miterlimit:4;stroke-dasharray:none;stroke-dashoffset:0;stroke-opacity:1" />
    </clipPath>
    <clipPath
       clipPathUnits="userSpaceOnUse"
       id="clipPath1420">
      <rect
         y="42.105625"
         x="-612.32141"
         height="9.0714273"
         width="264.58337"
         id="rect1422"
         style="opacity:1;fill:#fffac9;fill-opacity:1;fill-rule:nonzero;stroke:none;stroke-width:2.372895;stroke-miterlimit:4;stroke-dasharray:none;stroke-dashoffset:0;stroke-opacity:1" />
    </clipPath>
    <clipPath
       clipPathUnits="userSpaceOnUse"
       id="clipPath1424">
      <rect
         y="521.38031"
         x="-627.44043"
         height="9.0714273"
         width="264.58337"
         id="rect1426"
         style="opacity:1;fill:#fffac9;fill-opacity:1;fill-rule:nonzero;stroke:none;stroke-width:2.372895;stroke-miterlimit:4;stroke-dasharray:none;stroke-dashoffset:0;stroke-opacity:1" />
    </clipPath>
    <clipPath
       clipPathUnits="userSpaceOnUse"
       id="clipPath1428">
      <rect
         y="521.38031"
         x="-627.44043"
         height="9.0714273"
         width="264.58337"
         id="rect1430"
         style="opacity:1;fill:#fffac9;fill-opacity:1;fill-rule:nonzero;stroke:none;stroke-width:2.372895;stroke-miterlimit:4;stroke-dasharray:none;stroke-dashoffset:0;stroke-opacity:1" />
    </clipPath>
    <clipPath
       clipPathUnits="userSpaceOnUse"
       id="clipPath1432">
      <rect
         y="521.38031"
         x="-627.44043"
         height="9.0714273"
         width="264.58337"
         id="rect1434"
         style="opacity:1;fill:#fffac9;fill-opacity:1;fill-rule:nonzero;stroke:none;stroke-width:2.372895;stroke-miterlimit:4;stroke-dasharray:none;stroke-dashoffset:0;stroke-opacity:1" />
    </clipPath>
    <clipPath
       clipPathUnits="userSpaceOnUse"
       id="clipPath1436">
      <rect
         y="521.38031"
         x="-627.44043"
         height="9.0714273"
         width="264.58337"
         id="rect1438"
         style="opacity:1;fill:#fffac9;fill-opacity:1;fill-rule:nonzero;stroke:none;stroke-width:2.372895;stroke-miterlimit:4;stroke-dasharray:none;stroke-dashoffset:0;stroke-opacity:1" />
    </clipPath>
    <clipPath
       clipPathUnits="userSpaceOnUse"
       id="clipPath821-2">
      <circle
         r="264.58337"
         cy="32.416653"
         cx="264.58337"
         id="circle823-9"
         style="opacity:1;fill:#ffb5b5;fill-opacity:1;fill-rule:nonzero;stroke:none;stroke-width:0.3671532;stroke-miterlimit:4;stroke-dasharray:none;stroke-dashoffset:0;stroke-opacity:1" />
    </clipPath>
    <clipPath
       clipPathUnits="userSpaceOnUse"
       id="clipPath1608">
      <rect
         transform="translate(0,232.16668)"
         clip-path="url(#clipPath821-2)"
         y="32.416645"
         x="-1.0172526e-05"
         height="264.58334"
         width="529.16669"
         id="rect1610"
         style="display:inline;opacity:1;fill:#92e38a;fill-opacity:0.51072962;fill-rule:nonzero;stroke:none;stroke-width:0.26458332;stroke-miterlimit:4;stroke-dasharray:none;stroke-dashoffset:0;stroke-opacity:1" />
    </clipPath>
    <clipPath
       clipPathUnits="userSpaceOnUse"
       id="clipPath910">
      <rect
         style="opacity:1;fill:#8aabe3;fill-opacity:0.5098038;fill-rule:nonzero;stroke:none;stroke-width:10;stroke-miterlimit:4;stroke-dasharray:none;stroke-dashoffset:0;stroke-opacity:1"
         id="rect912"
         width="964.30841"
         height="245.88794"
         x="-137.91107"
         y="148.39813" />
    </clipPath>
    <clipPath
       clipPathUnits="userSpaceOnUse"
       id="clipPath2265">
      <circle
         r="264.58337"
         cy="40.735226"
         cx="264.58331"
         id="circle2267"
         style="display:inline;opacity:1;fill:#d6f3ff;fill-opacity:1;fill-rule:nonzero;stroke:none;stroke-width:0.3671532;stroke-miterlimit:4;stroke-dasharray:none;stroke-dashoffset:0;stroke-opacity:1"
         inkscape:transform-center-x="255.50968"
         inkscape:transform-center-y="-231.98996" />
    </clipPath>
  </defs>
  <sodipodi:namedview
     id="base"
     pagecolor="#ffffff"
     bordercolor="#666666"
     borderopacity="1.0"
     inkscape:pageopacity="0.0"
     inkscape:pageshadow="2"
     inkscape:zoom="0.24748737"
     inkscape:cx="745.89978"
     inkscape:cy="1175.7315"
     inkscape:document-units="mm"
     inkscape:current-layer="layer2"
     showgrid="false"
     inkscape:pagecheckerboard="true"
     units="px"
     inkscape:window-width="1920"
     inkscape:window-height="1043"
     inkscape:window-x="0"
     inkscape:window-y="0"
     inkscape:window-maximized="1" />
  <metadata
     id="metadata5">
    <rdf:RDF>
      <cc:Work
         rdf:about="">
        <dc:format>image/svg+xml</dc:format>
        <dc:type
           rdf:resource="http://purl.org/dc/dcmitype/StillImage" />
        <dc:title />
      </cc:Work>
    </rdf:RDF>
  </metadata>
  <g
     inkscape:label="base"
     inkscape:groupmode="layer"
     id="layer1"
     transform="translate(0,232.16668)"
     style="display:inline">
    <circle
       style="opacity:1;fill:#d6f3ff;fill-opacity:1;fill-rule:nonzero;stroke:none;stroke-width:0.3671532;stroke-miterlimit:4;stroke-dasharray:none;stroke-dashoffset:0;stroke-opacity:1"
       id="path815"
       cx="264.58334"
       cy="32.416653"
       r="264.58334" />
    <circle
       r="264.58334"
       cy="32.416653"
       cx="264.58334"
       id="circle906"
       style="opacity:1;fill:#8aabe3;fill-opacity:1;fill-rule:nonzero;stroke:none;stroke-width:0.3671532;stroke-miterlimit:4;stroke-dasharray:none;stroke-dashoffset:0;stroke-opacity:1"
       clip-path="url(#clipPath910)" />
  </g>
  <g
     inkscape:groupmode="layer"
     id="layer2"
     inkscape:label="dist"
     style="display:inline">
    <g
       transform="translate(5.1909733e-5,223.84814)"
       style="display:inline"
       id="g2219"
       clip-path="url(#clipPath2265)">
      <path
         inkscape:connector-curvature="0"
         style="opacity:1;fill:none;fill-opacity:1;fill-rule:nonzero;stroke:#628ebf;stroke-width:17;stroke-miterlimit:4;stroke-dasharray:34, 17;stroke-dashoffset:170;stroke-opacity:1"
         d="m 20.185578,-91.46329 c 5.61833,0.185319 11.236675,0.401799 16.855019,0.661898 5.618317,0.260076 11.236661,0.563894 16.854992,0.92825 5.61835,0.36434 11.236692,0.789502 16.855045,1.298288 5.618354,0.508809 11.236685,1.101664 16.85503,1.809081 5.618332,0.707416 11.236676,1.530025 16.855016,2.507623 5.61832,0.977605 11.23666,2.111137 16.85502,3.450799 5.61831,1.339677 11.23666,2.886874 16.855,4.701684 5.61834,1.814818 11.23668,3.899278 16.855,6.319763 5.61835,2.420485 11.23668,5.179802 16.85505,8.341787 5.61834,3.161985 11.23668,6.730275 16.85502,10.750605 5.61834,4.020338 11.23668,8.496908 16.85499,13.435979 5.61834,4.93909 11.23669,10.3446 16.85502,16.162151 5.61835,5.817533 11.23669,12.0495335 16.85503,18.5707353 5.61834,6.5212079 11.23666,13.3316047 16.85501,20.2474677 5.61834,6.915865 11.2367,13.934779 16.85505,20.850848 5.61833,6.91607 11.23666,13.725692 16.855,20.247468 5.61834,6.521775 11.23667,12.752383 16.855,18.57074 5.61835,5.81835 11.23668,11.222145 16.85503,16.162142 5.61835,4.939997 11.23668,9.414751 16.85502,13.435981 5.61831,4.02124 11.23666,7.58782 16.855,10.75062 5.61835,3.16277 11.23671,5.92063 16.85504,8.34177 5.61834,2.42118 11.23668,4.50441 16.85502,6.31978 5.61833,1.81536 11.23666,3.36158 16.85501,4.70166 5.61835,1.3401 11.23666,2.47289 16.85502,3.45082 5.61833,0.97792 11.23666,1.79996 16.85501,2.50762 5.61833,0.70766 11.23667,1.3001 16.855,1.80907 5.61838,0.50898 11.23671,0.93384 16.85505,1.2983 5.61835,0.36449 11.23668,0.66809 16.85501,0.92825 5.61832,0.26019 11.23667,0.47659 16.85501,0.6619"
         title="1 / (1+exp(x))"
         id="path2150" />
      <path
         id="path2157"
         title="1 / (1+exp(x))"
         d="m 508.98109,-91.46329 c -5.61832,0.185319 -11.23666,0.401799 -16.85501,0.661898 -5.61832,0.260076 -11.23666,0.563894 -16.855,0.92825 -5.61834,0.36434 -11.23668,0.789502 -16.85505,1.298288 -5.61834,0.508809 -11.23667,1.101664 -16.85501,1.809081 -5.61833,0.707416 -11.23667,1.530025 -16.85501,2.507623 -5.61833,0.977605 -11.23667,2.111137 -16.85502,3.450799 -5.61833,1.339677 -11.23668,2.886874 -16.855,4.701684 -5.61834,1.814818 -11.23669,3.899278 -16.85502,6.319763 -5.61834,2.420485 -11.23666,5.179802 -16.85505,8.341787 -5.61833,3.161985 -11.23666,6.730275 -16.855,10.750605 -5.61833,4.020338 -11.23667,8.496908 -16.85501,13.435979 -5.61834,4.93909 -11.23669,10.3446 -16.85503,16.162151 -5.61834,5.817533 -11.23666,12.0495335 -16.855,18.5707353 -5.61835,6.5212079 -11.23667,13.3316047 -16.85501,20.2474677 -5.61835,6.915865 -11.23671,13.934779 -16.85505,20.850848 -5.61834,6.91607 -11.23667,13.725692 -16.855,20.247468 -5.61834,6.521775 -11.23669,12.752383 -16.85502,18.57074 -5.61835,5.81835 -11.23668,11.222145 -16.85501,16.162142 -5.61834,4.939997 -11.23667,9.414751 -16.85502,13.435981 -5.61833,4.02124 -11.23667,7.58782 -16.85502,10.75062 -5.61836,3.16277 -11.2367,5.92063 -16.85504,8.34177 -5.61833,2.42118 -11.23666,4.50441 -16.855,6.31978 -5.61835,1.81536 -11.23667,3.36158 -16.85501,4.70166 -5.61836,1.3401 -11.23669,2.47289 -16.85502,3.45082 -5.618336,0.97792 -11.236679,1.79996 -16.855022,2.50762 -5.618334,0.70766 -11.236676,1.3001 -16.854995,1.80907 -5.618388,0.50898 -11.236719,0.93384 -16.855066,1.2983 -5.618345,0.36449 -11.236661,0.66809 -16.855006,0.92825 -5.618331,0.26019 -11.236675,0.47659 -16.855019,0.6619"
         style="opacity:1;fill:none;fill-opacity:1;fill-rule:nonzero;stroke:#d38ca2;stroke-width:17;stroke-miterlimit:4;stroke-dasharray:34, 17;stroke-dashoffset:170;stroke-opacity:1"
         inkscape:connector-curvature="0" />
      <path
         inkscape:connector-curvature="0"
         style="opacity:1;fill:none;fill-opacity:1;fill-rule:nonzero;stroke:#9a81c2;stroke-width:20;stroke-miterlimit:4;stroke-dasharray:none;stroke-dashoffset:0;stroke-opacity:1"
         d="m 13.906956,149.48986 c 5.762703,-0.5984 11.52539,-1.35936 17.288053,-2.37315 5.762674,-1.01379 11.525376,-2.28174 17.288025,-3.91934 5.76269,-1.63758 11.525351,-3.64784 17.288045,-6.16605 5.762647,-2.51822 11.52535,-5.54902 17.28802,-9.23101 5.762704,-3.68211 11.525341,-8.02161 17.288041,-13.13298 5.76265,-5.11147 11.52535,-11.00209 17.28804,-17.725041 5.76267,-6.723055 11.52531,-14.285944 17.28801,-22.640821 5.7627,-8.354979 11.52537,-17.508149 17.28803,-27.27923 5.7627,-9.771081 11.52533,-20.163396 17.28803,-30.852674 5.76266,-10.6893841 11.52535,-21.6748791 17.28805,-32.508359 5.76262,-10.833587 11.5253,-21.50944 17.28801,-31.509677 5.76265,-10.000254 11.52534,-19.314732 17.28801,-27.437201 5.76268,-8.122476 11.52532,-15.039824 17.28805,-20.349744 5.76263,-5.309933 11.52533,-8.998493 17.288,-10.847153 5.76266,-1.84866 11.52536,-1.845 17.28801,0 5.76268,1.84501 11.52538,5.54043 17.28803,10.847153 5.76272,5.306713 11.52536,12.22966 17.28805,20.349744 5.76267,8.120093 11.52533,17.438308 17.28803,27.437201 5.76269,9.998887 11.52532,20.676411 17.28801,31.509677 5.76267,10.8331584 11.52534,21.8184381 17.28802,32.508359 5.7627,10.689921 11.52535,21.080414 17.28803,30.852674 5.76269,9.772259 11.52539,18.922754 17.28803,27.27923 5.7627,8.356477 11.52534,15.916167 17.28803,22.640821 5.7627,6.724661 11.52534,12.612051 17.28801,17.725041 5.7627,5.11298 11.52533,9.44961 17.28805,13.13298 5.76268,3.68339 11.52533,6.71173 17.28802,9.23101 5.76269,2.51927 11.52533,4.5277 17.28802,6.16605 5.76266,1.63835 11.52536,2.90511 17.288,3.91934 5.7627,1.01486 11.52535,1.77484 17.28805,2.37315"
         title="(1/sqrt(2*pi)) * (exp(-1*(x**2)/2))"
         id="path961" />
      <path
         id="path2161"
         title="1 / (1+exp(x))"
         d="m 20.185578,-91.46329 c 5.61833,0.185319 11.236675,0.401799 16.855019,0.661898 5.618317,0.260076 11.236661,0.563894 16.854992,0.92825 5.61835,0.36434 11.236692,0.789502 16.855045,1.298288 5.618354,0.508809 11.236685,1.101664 16.85503,1.809081 5.618332,0.707416 11.236676,1.530025 16.855016,2.507623 5.61832,0.977605 11.23666,2.111137 16.85502,3.450799 5.61831,1.339677 11.23666,2.886874 16.855,4.701684 5.61834,1.814818 11.23668,3.899278 16.855,6.319763 5.61835,2.420485 11.23668,5.179802 16.85505,8.341787 5.61834,3.161985 11.23668,6.730275 16.85502,10.750605 5.61834,4.020338 11.23668,8.496908 16.85499,13.435979 5.61834,4.93909 11.23669,10.3446 16.85502,16.162151 5.61835,5.817533 11.23669,12.0495335 16.85503,18.5707353 5.61834,6.5212079 11.23666,13.3316047 16.85501,20.2474677 5.61834,6.915865 11.2367,13.934779 16.85505,20.850848 5.61833,6.91607 11.23666,13.725692 16.855,20.247468 5.61834,6.521775 11.23667,12.752383 16.855,18.57074 5.61835,5.81835 11.23668,11.222145 16.85503,16.162142 5.61835,4.939997 11.23668,9.414751 16.85502,13.435981 5.61831,4.02124 11.23666,7.58782 16.855,10.75062 5.61835,3.16277 11.23671,5.92063 16.85504,8.34177 5.61834,2.42118 11.23668,4.50441 16.85502,6.31978 5.61833,1.81536 11.23666,3.36158 16.85501,4.70166 5.61835,1.3401 11.23666,2.47289 16.85502,3.45082 5.61833,0.97792 11.23666,1.79996 16.85501,2.50762 5.61833,0.70766 11.23667,1.3001 16.855,1.80907 5.61838,0.50898 11.23671,0.93384 16.85505,1.2983 5.61835,0.36449 11.23668,0.66809 16.85501,0.92825 5.61832,0.26019 11.23667,0.47659 16.85501,0.6619"
         style="opacity:1;fill:none;fill-opacity:1;fill-rule:nonzero;stroke:#628ebf;stroke-width:17;stroke-miterlimit:4;stroke-dasharray:34, 17;stroke-dashoffset:170;stroke-opacity:1"
         inkscape:connector-curvature="0" />
      <path
         inkscape:connector-curvature="0"
         style="opacity:1;fill:none;fill-opacity:1;fill-rule:nonzero;stroke:#d38ca2;stroke-width:17;stroke-miterlimit:4;stroke-dasharray:34, 17;stroke-dashoffset:170;stroke-opacity:1"
         d="m 508.98109,-91.46329 c -5.61832,0.185319 -11.23666,0.401799 -16.85501,0.661898 -5.61832,0.260076 -11.23666,0.563894 -16.855,0.92825 -5.61834,0.36434 -11.23668,0.789502 -16.85505,1.298288 -5.61834,0.508809 -11.23667,1.101664 -16.85501,1.809081 -5.61833,0.707416 -11.23667,1.530025 -16.85501,2.507623 -5.61833,0.977605 -11.23667,2.111137 -16.85502,3.450799 -5.61833,1.339677 -11.23668,2.886874 -16.855,4.701684 -5.61834,1.814818 -11.23669,3.899278 -16.85502,6.319763 -5.61834,2.420485 -11.23666,5.179802 -16.85505,8.341787 -5.61833,3.161985 -11.23666,6.730275 -16.855,10.750605 -5.61833,4.020338 -11.23667,8.496908 -16.85501,13.435979 -5.61834,4.93909 -11.23669,10.3446 -16.85503,16.162151 -5.61834,5.817533 -11.23666,12.0495335 -16.855,18.5707353 -5.61835,6.5212079 -11.23667,13.3316047 -16.85501,20.2474677 -5.61835,6.915865 -11.23671,13.934779 -16.85505,20.850848 -5.61834,6.91607 -11.23667,13.725692 -16.855,20.247468 -5.61834,6.521775 -11.23669,12.752383 -16.85502,18.57074 -5.61835,5.81835 -11.23668,11.222145 -16.85501,16.162142 -5.61834,4.939997 -11.23667,9.414751 -16.85502,13.435981 -5.61833,4.02124 -11.23667,7.58782 -16.85502,10.75062 -5.61836,3.16277 -11.2367,5.92063 -16.85504,8.34177 -5.61833,2.42118 -11.23666,4.50441 -16.855,6.31978 -5.61835,1.81536 -11.23667,3.36158 -16.85501,4.70166 -5.61836,1.3401 -11.23669,2.47289 -16.85502,3.45082 -5.618336,0.97792 -11.236679,1.79996 -16.855022,2.50762 -5.618334,0.70766 -11.236676,1.3001 -16.854995,1.80907 -5.618388,0.50898 -11.236719,0.93384 -16.855066,1.2983 -5.618345,0.36449 -11.236661,0.66809 -16.855006,0.92825 -5.618331,0.26019 -11.236675,0.47659 -16.855019,0.6619"
         title="1 / (1+exp(x))"
         id="path2163" />
    </g>
  </g>
</svg>
