<?xml version="1.0" encoding="UTF-8" standalone="no"?>
<!-- Created with Inkscape (http://www.inkscape.org/) -->

<!-- Created by jefParil -->

<!-- <a rel="license" href="http://creativecommons.org/licenses/by-nc/4.0/"><img alt="Creative Commons License" style="border-width:0" src="https://i.creativecommons.org/l/by-nc/4.0/88x31.png" /></a><br />This work is licensed under a <a rel="license" href="http://creativecommons.org/licenses/by-nc/4.0/">Creative Commons Attribution-NonCommercial 4.0 International License</a>. -->

<svg
   xmlns:dc="http://purl.org/dc/elements/1.1/"
   xmlns:cc="http://creativecommons.org/ns#"
   xmlns:rdf="http://www.w3.org/1999/02/22-rdf-syntax-ns#"
   xmlns:svg="http://www.w3.org/2000/svg"
   xmlns="http://www.w3.org/2000/svg"
   xmlns:sodipodi="http://sodipodi.sourceforge.net/DTD/sodipodi-0.dtd"
   xmlns:inkscape="http://www.inkscape.org/namespaces/inkscape"
   width="2000"
   height="2000"
   viewBox="0 0 529.16665 529.16668"
   version="1.1"
   id="svg8"
   sodipodi:docname="maize_002.svg"
   inkscape:version="0.92.4 (unknown)"
   inkscape:export-filename="/home/student.unimelb.edu.au/jparil/maize.png"
   inkscape:export-xdpi="90"
   inkscape:export-ydpi="90">
  <defs
     id="defs2">
    <clipPath
       clipPathUnits="userSpaceOnUse"
       id="clipPath821">
      <circle
         r="264.58337"
         cy="32.416653"
         cx="264.58337"
         id="circle823"
         style="opacity:1;fill:#ffb5b5;fill-opacity:1;fill-rule:nonzero;stroke:none;stroke-width:0.3671532;stroke-miterlimit:4;stroke-dasharray:none;stroke-dashoffset:0;stroke-opacity:1" />
    </clipPath>
    <clipPath
       clipPathUnits="userSpaceOnUse"
       id="clipPath1037">
      <rect
         y="30.238077"
         x="442.98813"
         height="294.82144"
         width="63.5"
         id="rect1039"
         style="opacity:1;fill:#fffac9;fill-opacity:1;fill-rule:nonzero;stroke:none;stroke-width:5;stroke-miterlimit:4;stroke-dasharray:none;stroke-dashoffset:0;stroke-opacity:1" />
    </clipPath>
    <clipPath
       clipPathUnits="userSpaceOnUse"
       id="clipPath1139">
      <rect
         style="opacity:1;fill:#fffac9;fill-opacity:1;fill-rule:nonzero;stroke:none;stroke-width:3.53553391;stroke-miterlimit:4;stroke-dasharray:none;stroke-dashoffset:0;stroke-opacity:1"
         id="rect1141"
         width="31.75"
         height="294.82144"
         x="604.53113"
         y="16.630957" />
    </clipPath>
    <clipPath
       clipPathUnits="userSpaceOnUse"
       id="clipPath1143">
      <rect
         style="opacity:1;fill:#fffac9;fill-opacity:1;fill-rule:nonzero;stroke:none;stroke-width:2.18217897;stroke-miterlimit:4;stroke-dasharray:none;stroke-dashoffset:0;stroke-opacity:1"
         id="rect1145"
         width="12.095238"
         height="294.82144"
         x="643.38739"
         y="37.797626" />
    </clipPath>
    <clipPath
       clipPathUnits="userSpaceOnUse"
       id="clipPath1147">
      <rect
         style="opacity:1;fill:#fffac9;fill-opacity:1;fill-rule:nonzero;stroke:none;stroke-width:2.18217897;stroke-miterlimit:4;stroke-dasharray:none;stroke-dashoffset:0;stroke-opacity:1"
         id="rect1149"
         width="12.095238"
         height="294.82144"
         x="584.8006"
         y="37.797626" />
    </clipPath>
    <clipPath
       clipPathUnits="userSpaceOnUse"
       id="clipPath1166">
      <rect
         style="opacity:1;fill:#fffac9;fill-opacity:1;fill-rule:nonzero;stroke:none;stroke-width:5;stroke-miterlimit:4;stroke-dasharray:none;stroke-dashoffset:0;stroke-opacity:1"
         id="rect1168"
         width="198.05951"
         height="61.988094"
         x="-353.78568"
         y="-169.33333" />
    </clipPath>
    <clipPath
       clipPathUnits="userSpaceOnUse"
       id="clipPath1194">
      <rect
         style="opacity:1;fill:#fffac9;fill-opacity:1;fill-rule:nonzero;stroke:none;stroke-width:4.10997486;stroke-miterlimit:4;stroke-dasharray:none;stroke-dashoffset:0;stroke-opacity:1"
         id="rect1196"
         width="264.58337"
         height="27.214285"
         x="-401.83466"
         y="-14.817155" />
    </clipPath>
    <clipPath
       clipPathUnits="userSpaceOnUse"
       id="clipPath1344">
      <rect
         y="-41.805096"
         x="-401.83469"
         height="9.0714273"
         width="264.58337"
         id="rect1346"
         style="opacity:1;fill:#fffac9;fill-opacity:1;fill-rule:nonzero;stroke:none;stroke-width:2.372895;stroke-miterlimit:4;stroke-dasharray:none;stroke-dashoffset:0;stroke-opacity:1" />
    </clipPath>
    <clipPath
       clipPathUnits="userSpaceOnUse"
       id="clipPath1348">
      <rect
         y="-41.805096"
         x="-401.83469"
         height="9.0714273"
         width="264.58337"
         id="rect1350"
         style="opacity:1;fill:#fffac9;fill-opacity:1;fill-rule:nonzero;stroke:none;stroke-width:2.372895;stroke-miterlimit:4;stroke-dasharray:none;stroke-dashoffset:0;stroke-opacity:1" />
    </clipPath>
    <clipPath
       clipPathUnits="userSpaceOnUse"
       id="clipPath1408">
      <rect
         y="42.105625"
         x="-612.32141"
         height="9.0714273"
         width="264.58337"
         id="rect1410"
         style="opacity:1;fill:#fffac9;fill-opacity:1;fill-rule:nonzero;stroke:none;stroke-width:2.372895;stroke-miterlimit:4;stroke-dasharray:none;stroke-dashoffset:0;stroke-opacity:1" />
    </clipPath>
    <clipPath
       clipPathUnits="userSpaceOnUse"
       id="clipPath1412">
      <rect
         y="42.105625"
         x="-612.32141"
         height="9.0714273"
         width="264.58337"
         id="rect1414"
         style="opacity:1;fill:#fffac9;fill-opacity:1;fill-rule:nonzero;stroke:none;stroke-width:2.372895;stroke-miterlimit:4;stroke-dasharray:none;stroke-dashoffset:0;stroke-opacity:1" />
    </clipPath>
    <clipPath
       clipPathUnits="userSpaceOnUse"
       id="clipPath1416">
      <rect
         y="42.105625"
         x="-612.32141"
         height="9.0714273"
         width="264.58337"
         id="rect1418"
         style="opacity:1;fill:#fffac9;fill-opacity:1;fill-rule:nonzero;stroke:none;stroke-width:2.372895;stroke-miterlimit:4;stroke-dasharray:none;stroke-dashoffset:0;stroke-opacity:1" />
    </clipPath>
    <clipPath
       clipPathUnits="userSpaceOnUse"
       id="clipPath1420">
      <rect
         y="42.105625"
         x="-612.32141"
         height="9.0714273"
         width="264.58337"
         id="rect1422"
         style="opacity:1;fill:#fffac9;fill-opacity:1;fill-rule:nonzero;stroke:none;stroke-width:2.372895;stroke-miterlimit:4;stroke-dasharray:none;stroke-dashoffset:0;stroke-opacity:1" />
    </clipPath>
    <clipPath
       clipPathUnits="userSpaceOnUse"
       id="clipPath1424">
      <rect
         y="521.38031"
         x="-627.44043"
         height="9.0714273"
         width="264.58337"
         id="rect1426"
         style="opacity:1;fill:#fffac9;fill-opacity:1;fill-rule:nonzero;stroke:none;stroke-width:2.372895;stroke-miterlimit:4;stroke-dasharray:none;stroke-dashoffset:0;stroke-opacity:1" />
    </clipPath>
    <clipPath
       clipPathUnits="userSpaceOnUse"
       id="clipPath1428">
      <rect
         y="521.38031"
         x="-627.44043"
         height="9.0714273"
         width="264.58337"
         id="rect1430"
         style="opacity:1;fill:#fffac9;fill-opacity:1;fill-rule:nonzero;stroke:none;stroke-width:2.372895;stroke-miterlimit:4;stroke-dasharray:none;stroke-dashoffset:0;stroke-opacity:1" />
    </clipPath>
    <clipPath
       clipPathUnits="userSpaceOnUse"
       id="clipPath1432">
      <rect
         y="521.38031"
         x="-627.44043"
         height="9.0714273"
         width="264.58337"
         id="rect1434"
         style="opacity:1;fill:#fffac9;fill-opacity:1;fill-rule:nonzero;stroke:none;stroke-width:2.372895;stroke-miterlimit:4;stroke-dasharray:none;stroke-dashoffset:0;stroke-opacity:1" />
    </clipPath>
    <clipPath
       clipPathUnits="userSpaceOnUse"
       id="clipPath1436">
      <rect
         y="521.38031"
         x="-627.44043"
         height="9.0714273"
         width="264.58337"
         id="rect1438"
         style="opacity:1;fill:#fffac9;fill-opacity:1;fill-rule:nonzero;stroke:none;stroke-width:2.372895;stroke-miterlimit:4;stroke-dasharray:none;stroke-dashoffset:0;stroke-opacity:1" />
    </clipPath>
    <clipPath
       clipPathUnits="userSpaceOnUse"
       id="clipPath821-2">
      <circle
         r="264.58337"
         cy="32.416653"
         cx="264.58337"
         id="circle823-9"
         style="opacity:1;fill:#ffb5b5;fill-opacity:1;fill-rule:nonzero;stroke:none;stroke-width:0.3671532;stroke-miterlimit:4;stroke-dasharray:none;stroke-dashoffset:0;stroke-opacity:1" />
    </clipPath>
    <clipPath
       clipPathUnits="userSpaceOnUse"
       id="clipPath1608">
      <rect
         transform="translate(0,232.16668)"
         clip-path="url(#clipPath821-2)"
         y="32.416645"
         x="-1.0172526e-05"
         height="264.58334"
         width="529.16669"
         id="rect1610"
         style="display:inline;opacity:1;fill:#92e38a;fill-opacity:0.51072962;fill-rule:nonzero;stroke:none;stroke-width:0.26458332;stroke-miterlimit:4;stroke-dasharray:none;stroke-dashoffset:0;stroke-opacity:1" />
    </clipPath>
  </defs>
  <sodipodi:namedview
     id="base"
     pagecolor="#ffffff"
     bordercolor="#666666"
     borderopacity="1.0"
     inkscape:pageopacity="0.0"
     inkscape:pageshadow="2"
     inkscape:zoom="0.35355339"
     inkscape:cx="931.92639"
     inkscape:cy="1101.5717"
     inkscape:document-units="mm"
     inkscape:current-layer="layer1"
     showgrid="false"
     inkscape:pagecheckerboard="true"
     units="px"
     inkscape:window-width="1920"
     inkscape:window-height="1043"
     inkscape:window-x="0"
     inkscape:window-y="0"
     inkscape:window-maximized="1"
     inkscape:snap-global="false" />
  <metadata
     id="metadata5">
    <rdf:RDF>
      <cc:Work
         rdf:about="">
        <dc:format>image/svg+xml</dc:format>
        <dc:type
           rdf:resource="http://purl.org/dc/dcmitype/StillImage" />
        <dc:title />
      </cc:Work>
    </rdf:RDF>
  </metadata>
  <g
     inkscape:label="base"
     inkscape:groupmode="layer"
     id="layer1"
     transform="translate(0,232.16668)"
     style="display:inline">
    <circle
       style="opacity:1;fill:#e3edf5;fill-opacity:1;fill-rule:nonzero;stroke:none;stroke-width:0.3671532;stroke-miterlimit:4;stroke-dasharray:none;stroke-dashoffset:0;stroke-opacity:1"
       id="path815"
       cx="264.01639"
       cy="32.227665"
       r="264.58334"
       inkscape:export-filename="/home/student.unimelb.edu.au/jparil/maize.png"
       inkscape:export-xdpi="90"
       inkscape:export-ydpi="90" />
    <rect
       style="opacity:1;fill:#fff7d6;fill-opacity:1;fill-rule:nonzero;stroke:none;stroke-width:0.26458332;stroke-miterlimit:4;stroke-dasharray:none;stroke-dashoffset:0;stroke-opacity:1"
       id="rect817"
       width="529.16669"
       height="264.58334"
       x="-1.0172526e-05"
       y="32.416645"
       clip-path="url(#clipPath821)" />
    <path
       style="display:inline;fill:#8f648b;fill-opacity:1;fill-rule:evenodd;stroke:none;stroke-width:0.26458332px;stroke-linecap:butt;stroke-linejoin:miter;stroke-opacity:1"
       d="m 256.17115,216.68508 c 0,0 -4.80082,-0.57783 -6.82874,0.46771 -2.79631,1.4417 -4.55297,4.49613 -5.98684,7.29647 -1.44089,2.81405 -0.31364,6.82064 -2.43215,9.16733 -1.83171,2.02899 -7.67063,2.89989 -7.67063,2.89989 l 7.29645,0.18709 c 0,0 3.74476,-1.19823 4.77077,-2.7128 1.53587,-2.26722 0.11812,-5.59073 1.12253,-8.13835 0.85354,-2.16497 1.97434,-4.6012 4.0224,-5.70621 1.67486,-0.90366 5.70621,-0.18709 5.70621,-0.18709 z"
       id="path1049"
       inkscape:connector-curvature="0"
       sodipodi:nodetypes="csssccssscc" />
    <path
       sodipodi:nodetypes="csssccssscc"
       inkscape:connector-curvature="0"
       id="path1051"
       d="m 267.6771,216.68508 c 0,0 4.80082,-0.57783 6.82874,0.46771 2.79631,1.4417 4.55297,4.49613 5.98684,7.29647 1.44089,2.81405 0.31364,6.82064 2.43216,9.16733 1.8317,2.02899 7.67062,2.89989 7.67062,2.89989 l -7.29645,0.18709 c 0,0 -3.74475,-1.19823 -4.77077,-2.7128 -1.53587,-2.26722 -0.11811,-5.59073 -1.12253,-8.13835 -0.85354,-2.16497 -1.97434,-4.6012 -4.0224,-5.70621 -1.67486,-0.90366 -5.70621,-0.18709 -5.70621,-0.18709 z"
       style="display:inline;fill:#8f648b;fill-opacity:1;fill-rule:evenodd;stroke:none;stroke-width:0.26458332px;stroke-linecap:butt;stroke-linejoin:miter;stroke-opacity:1" />
    <path
       sodipodi:nodetypes="csssccssscc"
       inkscape:connector-curvature="0"
       id="path1071"
       d="m 257.8756,223.36711 c 0,0 -3.19835,-0.38496 -4.54936,0.31159 -1.86292,0.96047 -3.03322,2.99536 -3.98847,4.86096 -0.95994,1.87474 -0.20895,4.54396 -1.62032,6.10735 -1.2203,1.35172 -5.11023,1.93192 -5.11023,1.93192 l 4.86095,0.12464 c 0,0 2.49478,-0.79827 3.17832,-1.80729 1.02321,-1.51043 0.0787,-3.72458 0.74784,-5.42182 0.56863,-1.44232 1.31532,-3.06536 2.67975,-3.80153 1.1158,-0.60201 3.80152,-0.12463 3.80152,-0.12463 z"
       style="display:inline;fill:#8f648b;fill-opacity:1;fill-rule:evenodd;stroke:none;stroke-width:0.17626731px;stroke-linecap:butt;stroke-linejoin:miter;stroke-opacity:1" />
    <path
       style="display:inline;fill:#8f648b;fill-opacity:1;fill-rule:evenodd;stroke:none;stroke-width:0.17626731px;stroke-linecap:butt;stroke-linejoin:miter;stroke-opacity:1"
       d="m 265.54094,223.36711 c 0,0 3.19834,-0.38496 4.54936,0.31159 1.86292,0.96047 3.03322,2.99536 3.98847,4.86096 0.95994,1.87474 0.20896,4.54396 1.62033,6.10735 1.22029,1.35172 5.11022,1.93192 5.11022,1.93192 l -4.86095,0.12464 c 0,0 -2.49478,-0.79827 -3.17832,-1.80729 -1.02321,-1.51043 -0.0787,-3.72458 -0.74784,-5.42182 -0.56863,-1.44232 -1.31532,-3.06536 -2.67975,-3.80153 -1.1158,-0.60201 -3.80152,-0.12463 -3.80152,-0.12463 z"
       id="path1073"
       inkscape:connector-curvature="0"
       sodipodi:nodetypes="csssccssscc" />
    <circle
       style="opacity:1;fill:#e3d45b;fill-opacity:1;fill-rule:evenodd;stroke:none;stroke-width:2.64583325;stroke-miterlimit:4;stroke-dasharray:none;stroke-dashoffset:642.51971436;stroke-opacity:1"
       id="path1075"
       cx="256.77814"
       cy="-120.77711"
       r="1.5" />
    <circle
       r="1.5"
       cy="-111.25208"
       cx="250.29584"
       id="circle1077"
       style="opacity:1;fill:#e3d45b;fill-opacity:1;fill-rule:evenodd;stroke:none;stroke-width:2.64583325;stroke-miterlimit:4;stroke-dasharray:none;stroke-dashoffset:642.51971436;stroke-opacity:1" />
    <circle
       style="opacity:1;fill:#e3d45b;fill-opacity:1;fill-rule:evenodd;stroke:none;stroke-width:2.64583325;stroke-miterlimit:4;stroke-dasharray:none;stroke-dashoffset:642.51971436;stroke-opacity:1"
       id="circle1079"
       cx="244.34271"
       cy="-115.48544"
       r="1.5" />
    <circle
       r="1.5"
       cy="-134.80002"
       cx="257.57187"
       id="circle1083"
       style="opacity:1;fill:#e3d45b;fill-opacity:1;fill-rule:evenodd;stroke:none;stroke-width:2.64583325;stroke-miterlimit:4;stroke-dasharray:none;stroke-dashoffset:642.51971436;stroke-opacity:1" />
    <circle
       style="opacity:1;fill:#e3d45b;fill-opacity:1;fill-rule:evenodd;stroke:none;stroke-width:2.64583325;stroke-miterlimit:4;stroke-dasharray:none;stroke-dashoffset:642.51971436;stroke-opacity:1"
       id="circle1085"
       cx="252.80937"
       cy="-138.90108"
       r="1.5" />
    <circle
       r="1.5"
       cy="-143.00211"
       cx="248.04688"
       id="circle1087"
       style="opacity:1;fill:#e3d45b;fill-opacity:1;fill-rule:evenodd;stroke:none;stroke-width:2.64583325;stroke-miterlimit:4;stroke-dasharray:none;stroke-dashoffset:642.51971436;stroke-opacity:1" />
    <circle
       style="opacity:1;fill:#e3d45b;fill-opacity:1;fill-rule:evenodd;stroke:none;stroke-width:2.64583325;stroke-miterlimit:4;stroke-dasharray:none;stroke-dashoffset:642.51971436;stroke-opacity:1"
       id="circle1089"
       cx="-265.77396"
       cy="-108.60627"
       r="1.5"
       transform="scale(-1,1)" />
    <circle
       r="1.5"
       cy="-112.83961"
       cx="-271.72708"
       id="circle1091"
       style="opacity:1;fill:#e3d45b;fill-opacity:1;fill-rule:evenodd;stroke:none;stroke-width:2.64583325;stroke-miterlimit:4;stroke-dasharray:none;stroke-dashoffset:642.51971436;stroke-opacity:1"
       transform="scale(-1,1)" />
    <circle
       style="opacity:1;fill:#e3d45b;fill-opacity:1;fill-rule:evenodd;stroke:none;stroke-width:2.64583325;stroke-miterlimit:4;stroke-dasharray:none;stroke-dashoffset:642.51971436;stroke-opacity:1"
       id="circle1093"
       cx="-277.68021"
       cy="-117.07294"
       r="1.5"
       transform="scale(-1,1)" />
    <circle
       transform="scale(-1,1)"
       r="1.5"
       cy="-121.83543"
       cx="-265.77396"
       id="circle1095"
       style="opacity:1;fill:#e3d45b;fill-opacity:1;fill-rule:evenodd;stroke:none;stroke-width:2.64583325;stroke-miterlimit:4;stroke-dasharray:none;stroke-dashoffset:642.51971436;stroke-opacity:1" />
    <circle
       transform="scale(-1,1)"
       style="opacity:1;fill:#e3d45b;fill-opacity:1;fill-rule:evenodd;stroke:none;stroke-width:2.64583325;stroke-miterlimit:4;stroke-dasharray:none;stroke-dashoffset:642.51971436;stroke-opacity:1"
       id="circle1097"
       cx="-271.72708"
       cy="-126.06877"
       r="1.5" />
    <circle
       transform="scale(-1,1)"
       r="1.5"
       cy="-130.30211"
       cx="-277.68021"
       id="circle1099"
       style="opacity:1;fill:#e3d45b;fill-opacity:1;fill-rule:evenodd;stroke:none;stroke-width:2.64583325;stroke-miterlimit:4;stroke-dasharray:none;stroke-dashoffset:642.51971436;stroke-opacity:1" />
    <circle
       style="opacity:1;fill:#e3d45b;fill-opacity:1;fill-rule:evenodd;stroke:none;stroke-width:2.64583325;stroke-miterlimit:4;stroke-dasharray:none;stroke-dashoffset:642.51971436;stroke-opacity:1"
       id="circle1101"
       cx="-265.77396"
       cy="-135.59377"
       r="1.5"
       transform="scale(-1,1)" />
    <circle
       r="1.5"
       cy="-140.22397"
       cx="-270.80103"
       id="circle1103"
       style="opacity:1;fill:#e3d45b;fill-opacity:1;fill-rule:evenodd;stroke:none;stroke-width:2.64583325;stroke-miterlimit:4;stroke-dasharray:none;stroke-dashoffset:642.51971436;stroke-opacity:1"
       transform="scale(-1,1)" />
    <circle
       style="opacity:1;fill:#e3d45b;fill-opacity:1;fill-rule:evenodd;stroke:none;stroke-width:2.64583325;stroke-miterlimit:4;stroke-dasharray:none;stroke-dashoffset:642.51971436;stroke-opacity:1"
       id="circle1105"
       cx="-275.82812"
       cy="-144.85419"
       r="1.5"
       transform="scale(-1,1)" />
    <circle
       style="opacity:1;fill:#e3d45b;fill-opacity:1;fill-rule:evenodd;stroke:none;stroke-width:2.64583325;stroke-miterlimit:4;stroke-dasharray:none;stroke-dashoffset:642.51971436;stroke-opacity:1"
       id="circle1107"
       cx="250.825"
       cy="-125.01044"
       r="1.5" />
    <circle
       r="1.5"
       cy="-129.24377"
       cx="244.87187"
       id="circle1109"
       style="opacity:1;fill:#e3d45b;fill-opacity:1;fill-rule:evenodd;stroke:none;stroke-width:2.64583325;stroke-miterlimit:4;stroke-dasharray:none;stroke-dashoffset:642.51971436;stroke-opacity:1" />
    <circle
       style="opacity:1;fill:#e3d45b;fill-opacity:1;fill-rule:evenodd;stroke:none;stroke-width:2.64583325;stroke-miterlimit:4;stroke-dasharray:none;stroke-dashoffset:642.51971436;stroke-opacity:1"
       id="circle1113"
       cx="256.24896"
       cy="-107.01878"
       r="1.5" />
  </g>
  <g
     inkscape:groupmode="layer"
     id="layer3"
     inkscape:label="plant"
     style="display:inline">
    <path
       sodipodi:nodetypes="sssssssssssss"
       inkscape:connector-curvature="0"
       id="path1045"
       d="m 213.37978,279.14046 c 1.43121,-2.39393 -4.95443,-5.42394 -8.93028,-5.13838 -4.80747,0.34529 -7.74244,4.51835 -8.38352,7.59079 -0.53994,2.58771 3.74704,4.76209 4.19175,7.35722 0.35448,2.06862 -0.33148,4.19826 -1.27574,6.18941 -1.19553,2.52095 -4.92327,5.38105 -6.92553,6.3062 -0.42101,0.19452 0.38754,0.45766 0.81366,0.26777 1.75267,-0.78107 5.1984,-4.06233 6.65671,-6.41002 1.3301,-2.14126 1.64614,-4.07323 1.41569,-6.38757 -0.25943,-2.60543 -4.77037,-4.81424 -4.19177,-7.3985 0.61082,-2.72821 3.62283,-6.86515 7.91226,-7.06943 2.99871,-0.1428 8.29012,1.83478 8.14063,4.52736 -0.0259,0.46682 0.31534,0.60136 0.57614,0.16515 z"
       style="fill:#bc5897;fill-opacity:1;fill-rule:evenodd;stroke:none;stroke-width:0.20424388px;stroke-linecap:butt;stroke-linejoin:miter;stroke-opacity:1" />
    <path
       style="fill:#bc5897;fill-opacity:1;fill-rule:evenodd;stroke:none;stroke-width:0.21126243px;stroke-linecap:butt;stroke-linejoin:miter;stroke-opacity:1"
       d="m 213.43901,278.2352 c 1.48413,-2.46998 -5.13758,-5.59623 -9.26042,-5.3016 -4.98519,0.35625 -8.02867,4.66187 -8.69345,7.83191 -0.5599,2.6699 3.88557,4.91335 4.34672,7.59092 0.36758,2.13433 -0.34374,4.33161 -1.32291,6.38601 -1.23972,2.60103 -5.10527,5.55198 -7.18155,6.50652 -0.43658,0.2007 0.40186,0.47219 0.84374,0.27627 1.81746,-0.80588 5.39057,-4.19137 6.9028,-6.61363 1.37927,-2.20928 1.70699,-4.20262 1.46802,-6.59047 -0.26902,-2.68819 -4.94672,-4.96716 -4.34673,-7.63351 0.6334,-2.81487 3.75676,-7.08322 8.20477,-7.29399 3.10956,-0.14734 8.59659,1.89306 8.44158,4.67117 -0.0269,0.48165 0.32699,0.62046 0.59743,0.1704 z"
       id="path1047"
       inkscape:connector-curvature="0"
       sodipodi:nodetypes="sssssssssssss" />
    <path
       style="fill:#bc5897;fill-opacity:1;fill-rule:evenodd;stroke:none;stroke-width:0.21126243px;stroke-linecap:butt;stroke-linejoin:miter;stroke-opacity:1"
       d="m 214.04036,277.23294 c 1.48413,-2.46998 -5.13758,-5.59623 -9.26042,-5.3016 -4.98519,0.35625 -8.02867,4.66187 -8.69345,7.83191 -0.5599,2.6699 3.88557,4.91335 4.34672,7.59092 0.36758,2.13433 -0.34374,4.33161 -1.32291,6.38601 -1.23972,2.60103 -5.10527,5.55198 -7.18155,6.50652 -0.43658,0.2007 0.40186,0.47219 0.84374,0.27627 1.81746,-0.80588 5.39057,-4.19137 6.9028,-6.61363 1.37927,-2.20928 1.70699,-4.20262 1.46802,-6.59047 -0.26902,-2.68819 -4.94672,-4.96716 -4.34673,-7.63351 0.6334,-2.81487 3.75676,-7.08322 8.20477,-7.29399 3.10956,-0.14734 8.59659,1.89306 8.44158,4.67117 -0.0269,0.48165 0.32699,0.62046 0.59743,0.1704 z"
       id="path1043"
       inkscape:connector-curvature="0"
       sodipodi:nodetypes="sssssssssssss" />
    <path
       sodipodi:nodetypes="sssssssssssss"
       inkscape:connector-curvature="0"
       id="path1041"
       d="m 213.439,275.09478 c 1.48413,-2.46998 -5.13758,-5.59623 -9.26042,-5.3016 -4.98519,0.35625 -8.02867,4.66187 -8.69345,7.83191 -0.5599,2.6699 3.88557,4.91335 4.34672,7.59092 0.36758,2.13433 -0.34374,4.33161 -1.32291,6.38601 -1.23972,2.60103 -5.10527,5.55198 -7.18155,6.50652 -0.43658,0.2007 0.40186,0.47219 0.84374,0.27627 1.81746,-0.80588 5.39057,-4.19137 6.9028,-6.61363 1.37927,-2.20928 1.70699,-4.20262 1.46802,-6.59047 -0.26902,-2.68819 -4.94672,-4.96716 -4.34673,-7.63351 0.6334,-2.81487 3.75676,-7.08322 8.20477,-7.29399 3.10956,-0.14734 8.59659,1.89306 8.44158,4.67117 -0.0269,0.48165 0.32699,0.62046 0.59743,0.1704 z"
       style="fill:#bc5897;fill-opacity:1;fill-rule:evenodd;stroke:none;stroke-width:0.21126243px;stroke-linecap:butt;stroke-linejoin:miter;stroke-opacity:1" />
    <path
       style="fill:#bc5897;fill-opacity:1;fill-rule:evenodd;stroke:none;stroke-width:0.21126243px;stroke-linecap:butt;stroke-linejoin:miter;stroke-opacity:1"
       d="m 215.64397,275.62932 c 1.48413,-2.46998 -5.13758,-5.59623 -9.26042,-5.3016 -4.98519,0.35625 -8.02867,4.66187 -8.69345,7.83191 -0.5599,2.6699 3.88557,4.91335 4.34672,7.59092 0.36758,2.13433 -0.34374,4.33161 -1.32291,6.38601 -1.23972,2.60103 -5.10527,5.55198 -7.18155,6.50652 -0.43658,0.2007 0.40186,0.47219 0.84374,0.27627 1.81746,-0.80588 5.39057,-4.19137 6.9028,-6.61363 1.37927,-2.20928 1.70699,-4.20262 1.46802,-6.59047 -0.26902,-2.68819 -4.94672,-4.96716 -4.34673,-7.63351 0.6334,-2.81487 3.75676,-7.08322 8.20477,-7.29399 3.10956,-0.14734 8.59659,1.89306 8.44158,4.67117 -0.0269,0.48165 0.32699,0.62046 0.59743,0.1704 z"
       id="path1039"
       inkscape:connector-curvature="0"
       sodipodi:nodetypes="sssssssssssss" />
    <path
       sodipodi:nodetypes="sssssssssssss"
       inkscape:connector-curvature="0"
       id="path1037"
       d="m 216.64623,273.42435 c 1.48413,-2.46998 -5.13758,-5.59623 -9.26042,-5.3016 -4.98519,0.35625 -8.02867,4.66187 -8.69345,7.83191 -0.5599,2.6699 3.88557,4.91335 4.34672,7.59092 0.36758,2.13433 -0.34374,4.33161 -1.32291,6.38601 -1.23972,2.60103 -5.10527,5.55198 -7.18155,6.50652 -0.43658,0.2007 0.40186,0.47219 0.84374,0.27627 1.81746,-0.80588 5.39057,-4.19137 6.9028,-6.61363 1.37927,-2.20928 1.70699,-4.20262 1.46802,-6.59047 -0.26902,-2.68819 -4.94672,-4.96716 -4.34673,-7.63351 0.6334,-2.81487 3.75676,-7.08322 8.20477,-7.29399 3.10956,-0.14734 8.59659,1.89306 8.44158,4.67117 -0.0269,0.48165 0.32699,0.62046 0.59743,0.1704 z"
       style="fill:#bc5897;fill-opacity:1;fill-rule:evenodd;stroke:none;stroke-width:0.21126243px;stroke-linecap:butt;stroke-linejoin:miter;stroke-opacity:1" />
    <path
       sodipodi:nodetypes="sssssssssssss"
       inkscape:connector-curvature="0"
       id="path1035"
       d="m 212.83763,273.62479 c 1.48413,-2.46998 -5.13758,-5.59623 -9.26042,-5.3016 -4.98519,0.35625 -8.02867,4.66187 -8.69345,7.83191 -0.5599,2.6699 3.88557,4.91335 4.34672,7.59092 0.36758,2.13433 -0.34374,4.33161 -1.32291,6.38601 -1.23972,2.60103 -5.10527,5.55198 -7.18155,6.50652 -0.43658,0.2007 0.40186,0.47219 0.84374,0.27627 1.81746,-0.80588 5.39057,-4.19137 6.9028,-6.61363 1.37927,-2.20928 1.70699,-4.20262 1.46802,-6.59047 -0.26902,-2.68819 -4.94672,-4.96716 -4.34673,-7.63351 0.6334,-2.81487 3.75676,-7.08322 8.20477,-7.29399 3.10956,-0.14734 8.59659,1.89306 8.44158,4.67117 -0.0269,0.48165 0.32699,0.62046 0.59743,0.1704 z"
       style="fill:#bc5897;fill-opacity:1;fill-rule:evenodd;stroke:none;stroke-width:0.21126243px;stroke-linecap:butt;stroke-linejoin:miter;stroke-opacity:1" />
    <path
       style="fill:#55ac49;fill-opacity:1;fill-rule:evenodd;stroke:none;stroke-width:0.22283332px;stroke-linecap:butt;stroke-linejoin:miter;stroke-opacity:1"
       d="m 259.48579,280.03362 c 0,0 12.77253,-65.34536 28.68051,-88.69037 10.95852,-16.0817 27.01311,-24.38333 42.25143,-29.90165 9.79688,-3.54779 30.30245,-1.58646 30.30245,-1.58646 0,0 -19.07065,-9.50912 -28.80747,-8.09622 -19.34161,2.80666 -40.93661,11.37272 -53.78222,32.19078 -15.39209,24.94492 -18.6447,96.08392 -18.6447,96.08392 z"
       id="path973"
       inkscape:connector-curvature="0"
       sodipodi:nodetypes="csscssc" />
    <path
       sodipodi:nodetypes="csscssc"
       inkscape:connector-curvature="0"
       id="path975"
       d="m 263.20232,249.11504 c 0,0 -10.10198,-54.19005 -22.68382,-73.54976 -8.66726,-13.33634 -21.36506,-20.22077 -33.41726,-24.79705 -7.74849,-2.94213 -23.96664,-1.31563 -23.96664,-1.31563 0,0 15.08324,-7.88578 22.78423,-6.71408 15.29755,2.32752 32.37735,9.43124 42.53714,26.69538 12.17381,20.6865 14.74635,79.68114 14.74635,79.68114 z"
       style="fill:#79a93e;fill-opacity:1;fill-rule:evenodd;stroke:none;stroke-width:0.18046677px;stroke-linecap:butt;stroke-linejoin:miter;stroke-opacity:1" />
    <path
       sodipodi:nodetypes="csscssc"
       inkscape:connector-curvature="0"
       id="path971"
       d="m 260.92209,368.40444 c 0,0 15.8246,-64.96069 35.53386,-88.16828 13.57712,-15.98703 33.46803,-24.23979 52.34763,-29.72563 12.13789,-3.5269 37.54337,-1.57712 37.54337,-1.57712 0,0 -23.62767,-9.45314 -35.69115,-8.04856 -23.96339,2.79014 -50.71863,11.30577 -66.63377,32.00128 -19.07009,24.79808 -23.09994,95.51831 -23.09994,95.51831 z"
       style="fill:#5d9635;fill-opacity:1;fill-rule:evenodd;stroke:none;stroke-width:0.24730101px;stroke-linecap:butt;stroke-linejoin:miter;stroke-opacity:1" />
    <path
       style="fill:#579c40;fill-opacity:1;fill-rule:evenodd;stroke:none;stroke-width:0.24804513px;stroke-linecap:butt;stroke-linejoin:miter;stroke-opacity:1"
       d="m 262.52194,339.07337 c 0,0 -15.91997,-64.96069 -35.74802,-88.16828 -13.65897,-15.98703 -33.66976,-24.23979 -52.66315,-29.72563 -12.21104,-3.5269 -37.76964,-1.57712 -37.76964,-1.57712 0,0 23.77007,-9.45314 35.90627,-8.04856 24.10781,2.79014 51.02431,11.30577 67.03538,32.00128 19.18502,24.79808 23.23916,95.51831 23.23916,95.51831 z"
       id="path969"
       inkscape:connector-curvature="0"
       sodipodi:nodetypes="csscssc" />
    <path
       sodipodi:nodetypes="caacaac"
       inkscape:connector-curvature="0"
       id="path959"
       d="m 258.53571,447.52381 c 0,0 3.2855,-86.5817 29.48215,-117.17261 16.37791,-19.12516 44.91844,-34.71774 69.54761,-29.48215 25.28639,5.3753 52.91667,56.69642 52.91667,56.69642 0,0 -34.48197,-36.48803 -57.45238,-38.55357 -19.44341,-1.74839 -40.15534,9.34957 -53.67262,23.43454 -26.01832,27.11102 -40.82143,105.07737 -40.82143,105.07737 z"
       style="fill:#409440;fill-opacity:1;fill-rule:evenodd;stroke:none;stroke-width:0.26458332px;stroke-linecap:butt;stroke-linejoin:miter;stroke-opacity:1" />
    <path
       style="fill:#bc5897;fill-opacity:1;fill-rule:evenodd;stroke:none;stroke-width:0.21126243px;stroke-linecap:butt;stroke-linejoin:miter;stroke-opacity:1"
       d="m 211.90219,272.35527 c 1.48413,-2.46998 -5.13758,-5.59623 -9.26042,-5.3016 -4.98519,0.35625 -8.02867,4.66187 -8.69345,7.83191 -0.5599,2.6699 3.88557,4.91335 4.34672,7.59092 0.36758,2.13433 -0.34374,4.33161 -1.32291,6.38601 -1.23972,2.60103 -5.10527,5.55198 -7.18155,6.50652 -0.43658,0.2007 0.40186,0.47219 0.84374,0.27627 1.81746,-0.80588 5.39057,-4.19137 6.9028,-6.61363 1.37927,-2.20928 1.70699,-4.20262 1.46802,-6.59047 -0.26902,-2.68819 -4.94672,-4.96716 -4.34673,-7.63351 0.6334,-2.81487 3.75676,-7.08322 8.20477,-7.29399 3.10956,-0.14734 8.59659,1.89306 8.44158,4.67117 -0.0269,0.48165 0.32699,0.62046 0.59743,0.1704 z"
       id="path1033"
       inkscape:connector-curvature="0"
       sodipodi:nodetypes="sssssssssssss" />
    <path
       style="display:inline;fill:#347114;fill-opacity:1;fill-rule:evenodd;stroke:none;stroke-width:0.15101345px;stroke-linecap:butt;stroke-linejoin:miter;stroke-opacity:1"
       d="m 261.32486,332.7677 c 0,0 -22.03689,-5.44148 -31.90237,-11.43912 -5.5296,-3.36164 -8.02655,-9.53859 -10.6792,-14.92814 -3.95502,-8.03567 -6.68572,-23.51111 -7.88706,-31.40318 -0.45467,-2.98691 -0.69027,-4.88758 -0.69027,-4.88758 0,0 18.52999,6.60541 26.36811,12.41909 6.45291,4.78628 9.90515,12.0013 14.0376,18.43737 5.53161,8.61522 10.75319,31.80156 10.75319,31.80156 z"
       id="path999"
       inkscape:connector-curvature="0"
       sodipodi:nodetypes="cssscssc" />
    <path
       style="fill:#409440;fill-opacity:1;fill-rule:evenodd;stroke:none;stroke-width:0.26458332px;stroke-linecap:butt;stroke-linejoin:miter;stroke-opacity:1"
       d="m 263.82738,427.1131 c 0,0 -3.2855,-86.5817 -29.48215,-117.17261 -16.37791,-19.12516 -44.91844,-34.71774 -69.54761,-29.48215 -25.28639,5.3753 -52.91667,56.69642 -52.91667,56.69642 0,0 34.48197,-36.48803 57.45238,-38.55357 19.44341,-1.74839 40.15534,9.34957 53.67262,23.43454 26.01832,27.11102 40.82143,105.07737 40.82143,105.07737 z"
       id="path957"
       inkscape:connector-curvature="0"
       sodipodi:nodetypes="caacaac" />
    <path
       sodipodi:nodetypes="cccc"
       inkscape:connector-curvature="0"
       id="path1016"
       d="m 261.32486,332.7677 c -19.28804,-11.23762 -29.88003,-36.30345 -40.0086,-56.98837 14.99775,2.47559 24.64689,15.07986 29.25541,25.29158 5.53161,8.58684 10.75319,31.69679 10.75319,31.69679 z"
       style="display:inline;fill:#6ebb46;fill-opacity:1;fill-rule:evenodd;stroke:none;stroke-width:0.1507645px;stroke-linecap:butt;stroke-linejoin:miter;stroke-opacity:1" />
    <path
       style="fill:#37bf37;fill-opacity:1;fill-rule:evenodd;stroke:none;stroke-width:0.26458332px;stroke-linecap:butt;stroke-linejoin:miter;stroke-opacity:1"
       d="M 256.40264,467.2657 261.40997,64.924929 268.51032,467.7857 Z"
       id="path955"
       inkscape:connector-curvature="0" />
    <path
       style="fill:#ddc73e;fill-opacity:1;fill-rule:evenodd;stroke:none;stroke-width:0.32745528px;stroke-linecap:butt;stroke-linejoin:miter;stroke-opacity:1"
       d="m 260.19162,136.79229 1.33681,-73.94543 1.1853,74.04066 z"
       id="path981"
       inkscape:connector-curvature="0"
       sodipodi:nodetypes="cccc" />
    <path
       sodipodi:nodetypes="cccc"
       inkscape:connector-curvature="0"
       id="path983"
       d="m 261.46956,136.15418 -27.19258,-20.02307 28.64246,17.9589 z"
       style="fill:#ddc73e;fill-opacity:1;fill-rule:evenodd;stroke:none;stroke-width:0.2212007px;stroke-linecap:butt;stroke-linejoin:miter;stroke-opacity:1" />
    <path
       style="fill:#ddc73e;fill-opacity:1;fill-rule:evenodd;stroke:none;stroke-width:0.2212007px;stroke-linecap:butt;stroke-linejoin:miter;stroke-opacity:1"
       d="m 262.18519,133.69733 27.19258,-20.02307 -28.64246,17.9589 z"
       id="path985"
       inkscape:connector-curvature="0"
       sodipodi:nodetypes="cccc" />
    <path
       style="fill:#ddc73e;fill-opacity:1;fill-rule:evenodd;stroke:none;stroke-width:0.20587541px;stroke-linecap:butt;stroke-linejoin:miter;stroke-opacity:1"
       d="m 261.23395,124.43692 -23.55518,-20.02307 24.81111,17.9589 z"
       id="path987"
       inkscape:connector-curvature="0"
       sodipodi:nodetypes="cccc" />
    <path
       sodipodi:nodetypes="cccc"
       inkscape:connector-curvature="0"
       id="path989"
       d="M 261.85385,121.98007 285.40902,101.957 260.59791,119.9159 Z"
       style="fill:#ddc73e;fill-opacity:1;fill-rule:evenodd;stroke:none;stroke-width:0.20587541px;stroke-linecap:butt;stroke-linejoin:miter;stroke-opacity:1" />
    <path
       sodipodi:nodetypes="cccc"
       inkscape:connector-curvature="0"
       id="path991"
       d="M 261.46467,109.12889 241.08056,91.630817 262.55152,107.32502 Z"
       style="fill:#ddc73e;fill-opacity:1;fill-rule:evenodd;stroke:none;stroke-width:0.17903455px;stroke-linecap:butt;stroke-linejoin:miter;stroke-opacity:1" />
    <path
       style="fill:#ddc73e;fill-opacity:1;fill-rule:evenodd;stroke:none;stroke-width:0.17903455px;stroke-linecap:butt;stroke-linejoin:miter;stroke-opacity:1"
       d="M 262.00112,106.98186 282.38521,89.483787 260.91425,105.17799 Z"
       id="path993"
       inkscape:connector-curvature="0"
       sodipodi:nodetypes="cccc" />
    <path
       style="fill:#ddc73e;fill-opacity:1;fill-rule:evenodd;stroke:none;stroke-width:0.1558218px;stroke-linecap:butt;stroke-linejoin:miter;stroke-opacity:1"
       d="M 261.62421,94.765795 246.18324,77.267722 262.4475,92.961925 Z"
       id="path995"
       inkscape:connector-curvature="0"
       sodipodi:nodetypes="cccc" />
    <path
       sodipodi:nodetypes="cccc"
       inkscape:connector-curvature="0"
       id="path997"
       d="M 262.03057,92.618765 277.47152,75.120692 261.20726,90.814895 Z"
       style="fill:#ddc73e;fill-opacity:1;fill-rule:evenodd;stroke:none;stroke-width:0.1558218px;stroke-linecap:butt;stroke-linejoin:miter;stroke-opacity:1" />
  </g>
</svg>
