<?xml version="1.0" encoding="UTF-8" standalone="no"?>
<!-- Created with Inkscape (http://www.inkscape.org/) -->

<!-- Created by jefParil -->

<!-- <a rel="license" href="http://creativecommons.org/licenses/by-nc/4.0/"><img alt="Creative Commons License" style="border-width:0" src="https://i.creativecommons.org/l/by-nc/4.0/88x31.png" /></a><br />This work is licensed under a <a rel="license" href="http://creativecommons.org/licenses/by-nc/4.0/">Creative Commons Attribution-NonCommercial 4.0 International License</a>. -->

<svg
   width="2000"
   height="2000"
   viewBox="0 0 529.16665 529.16668"
   version="1.1"
   id="svg840"
   inkscape:version="1.2.1 (9c6d41e410, 2022-07-14)"
   sodipodi:docname="needle_thread_001.svg"
   inkscape:export-filename="/home/student.unimelb.edu.au/jparil/banana.png"
   inkscape:export-xdpi="90"
   inkscape:export-ydpi="90"
   xmlns:inkscape="http://www.inkscape.org/namespaces/inkscape"
   xmlns:sodipodi="http://sodipodi.sourceforge.net/DTD/sodipodi-0.dtd"
   xmlns="http://www.w3.org/2000/svg"
   xmlns:svg="http://www.w3.org/2000/svg"
   xmlns:rdf="http://www.w3.org/1999/02/22-rdf-syntax-ns#"
   xmlns:cc="http://creativecommons.org/ns#"
   xmlns:dc="http://purl.org/dc/elements/1.1/">
  <defs
     id="defs834" />
  <sodipodi:namedview
     id="base"
     pagecolor="#ffffff"
     bordercolor="#666666"
     borderopacity="1.0"
     inkscape:pageopacity="0.0"
     inkscape:pageshadow="2"
     inkscape:zoom="0.32009702"
     inkscape:cx="646.67894"
     inkscape:cy="1176.2059"
     inkscape:document-units="mm"
     inkscape:current-layer="layer1"
     showgrid="true"
     units="px"
     inkscape:pagecheckerboard="true"
     inkscape:snap-global="false"
     inkscape:window-width="1920"
     inkscape:window-height="1052"
     inkscape:window-x="0"
     inkscape:window-y="0"
     inkscape:window-maximized="1"
     inkscape:showpageshadow="2"
     inkscape:deskcolor="#d1d1d1">
    <inkscape:grid
       type="xygrid"
       id="grid1396" />
  </sodipodi:namedview>
  <metadata
     id="metadata837">
    <rdf:RDF>
      <cc:Work
         rdf:about="">
        <dc:format>image/svg+xml</dc:format>
        <dc:type
           rdf:resource="http://purl.org/dc/dcmitype/StillImage" />
        <dc:title />
      </cc:Work>
    </rdf:RDF>
  </metadata>
  <g
     inkscape:label="Layer 1"
     inkscape:groupmode="layer"
     id="layer1"
     transform="translate(0,232.16668)">
    <g
       id="g8179"
       transform="matrix(1.6951981,0,0,1.6951981,-0.45568148,133.79136)">
      <g
         id="g8010"
         transform="translate(264.58334,56.885413)">
        <g
           id="g8079"
           transform="translate(31.088542,-3.9687463)">
          <g
             id="g8055"
             transform="rotate(-6.3634731,-283.42067,-177.25491)">
            <g
               id="g8032">
              <path
                 style="fill:none;stroke:#000000;stroke-width:1.32292;stroke-linecap:butt;stroke-linejoin:miter;stroke-dasharray:none;stroke-opacity:1"
                 d="m -296.33334,-123.68752 c -3.98738,8.26065 -4.02465,14.11279 2.64584,15.875 16.30282,-4.57981 16.91836,4.59429 21.16666,10.583337 12.85617,4.631194 12.80328,-3.207317 13.22917,-10.583337 -11.66969,-8.14939 -1.15046,-12.80597 2.64583,-18.52083 2.34119,-10.78381 0.53643,-17.73495 -7.9375,-18.52083 -6.70427,-2.15991 -12.58318,-4.62145 -2.38125,-15.875 8.76535,0.0876 9.76506,-5.00259 10.31875,-10.58333 2.14723,-8.27838 6.61458,-14.55208 15.875,-10.58333"
                 id="path7832"
                 sodipodi:nodetypes="ccccccccc" />
              <path
                 style="fill:none;stroke:#000000;stroke-width:1.32292;stroke-linecap:butt;stroke-linejoin:miter;stroke-dasharray:none;stroke-opacity:1"
                 d="m -293.6875,-118.39585 c -3.98739,8.26065 -4.02466,14.11279 2.64583,15.875 16.30283,-4.57981 16.91836,4.594287 21.16667,10.583336 12.85616,4.631194 12.80327,-3.207312 13.22916,-10.583336 -11.66969,-8.14939 -1.15046,-12.80597 2.64584,-18.52083 2.34118,-10.78381 0.53643,-17.73495 -7.9375,-18.52083 -6.70427,-2.15991 -10.20193,-7.26728 0,-18.52083 8.76535,0.0876 -0.55369,-10.29426 0,-15.875 2.14722,-8.27838 14.55208,-11.90625 21.16666,-7.9375"
                 id="path7834"
                 sodipodi:nodetypes="ccccccccc" />
              <path
                 style="fill:none;stroke:#000000;stroke-width:1.32292;stroke-linecap:butt;stroke-linejoin:miter;stroke-dasharray:none;stroke-opacity:1"
                 d="m -298.45,-118.13126 3.43958,3.70416"
                 id="path7836"
                 sodipodi:nodetypes="cc" />
              <path
                 style="fill:none;stroke:#000000;stroke-width:1.32292;stroke-linecap:butt;stroke-linejoin:miter;stroke-dasharray:none;stroke-opacity:1"
                 d="m -293.6875,-103.84377 v -3.96875"
                 id="path7838" />
              <path
                 style="fill:none;stroke:#000000;stroke-width:1.32292;stroke-linecap:butt;stroke-linejoin:miter;stroke-dasharray:none;stroke-opacity:1"
                 d="m -288.39584,-109.13543 v 6.08542"
                 id="path7840"
                 sodipodi:nodetypes="cc" />
              <path
                 style="fill:none;stroke:#000000;stroke-width:1.32292;stroke-linecap:butt;stroke-linejoin:miter;stroke-dasharray:none;stroke-opacity:1"
                 d="m -281.78125,-108.60626 v 5.02708"
                 id="path7842"
                 sodipodi:nodetypes="cc" />
              <path
                 style="fill:none;stroke:#000000;stroke-width:1.32292;stroke-linecap:butt;stroke-linejoin:miter;stroke-dasharray:none;stroke-opacity:1"
                 d="m -268.55209,-95.906266 v 3.96875"
                 id="path7844" />
              <path
                 style="fill:none;stroke:#000000;stroke-width:1.32292;stroke-linecap:butt;stroke-linejoin:miter;stroke-dasharray:none;stroke-opacity:1"
                 d="M -263.26042,-95.906266 V -90.6146"
                 id="path7846" />
              <path
                 style="fill:none;stroke:#000000;stroke-width:1.32292;stroke-linecap:butt;stroke-linejoin:miter;stroke-dasharray:none;stroke-opacity:1"
                 d="m -260.61459,-98.552099 2.64584,3.968749"
                 id="path7848" />
              <path
                 style="fill:none;stroke:#000000;stroke-width:1.32292;stroke-linecap:butt;stroke-linejoin:miter;stroke-dasharray:none;stroke-opacity:1"
                 d="m -264.58334,-115.75002 6.08542,1e-5"
                 id="path7850"
                 sodipodi:nodetypes="cc" />
              <path
                 style="fill:none;stroke:#000000;stroke-width:1.32292;stroke-linecap:butt;stroke-linejoin:miter;stroke-dasharray:none;stroke-opacity:1"
                 d="m -262.73125,-119.71876 h 7.67291"
                 id="path7852"
                 sodipodi:nodetypes="cc" />
              <path
                 style="fill:none;stroke:#000000;stroke-width:1.32292;stroke-linecap:butt;stroke-linejoin:miter;stroke-dasharray:none;stroke-opacity:1"
                 d="m -257.96875,-125.01043 h 5.02708"
                 id="path7854"
                 sodipodi:nodetypes="cc" />
              <path
                 style="fill:none;stroke:#000000;stroke-width:1.32292;stroke-linecap:butt;stroke-linejoin:miter;stroke-dasharray:none;stroke-opacity:1"
                 d="m -255.85209,-130.3021 h 2.91042"
                 id="path7856"
                 sodipodi:nodetypes="cc" />
              <path
                 style="fill:none;stroke:#000000;stroke-width:1.32292;stroke-linecap:butt;stroke-linejoin:miter;stroke-dasharray:none;stroke-opacity:1"
                 d="m -264.05417,-140.35626 4.7625,-3.175"
                 id="path7858"
                 sodipodi:nodetypes="cc" />
              <path
                 style="fill:none;stroke:#000000;stroke-width:1.32292;stroke-linecap:butt;stroke-linejoin:miter;stroke-dasharray:none;stroke-opacity:1"
                 d="m -272.78542,-151.46876 h 5.82083"
                 id="path7860"
                 sodipodi:nodetypes="cc" />
              <path
                 style="fill:none;stroke:#000000;stroke-width:1.32292;stroke-linecap:butt;stroke-linejoin:miter;stroke-dasharray:none;stroke-opacity:1"
                 d="m -269.875,-156.76043 5.29166,1.32292"
                 id="path7862" />
              <path
                 style="fill:none;stroke:#000000;stroke-width:1.32292;stroke-linecap:butt;stroke-linejoin:miter;stroke-dasharray:none;stroke-opacity:1"
                 d="m -263.78959,-161.25834 3.175,3.175"
                 id="path7864"
                 sodipodi:nodetypes="cc" />
              <path
                 style="fill:none;stroke:#000000;stroke-width:1.32292;stroke-linecap:butt;stroke-linejoin:miter;stroke-dasharray:none;stroke-opacity:1"
                 d="m -260.61459,-168.66668 h 3.96875"
                 id="path7866" />
              <path
                 style="fill:none;stroke:#000000;stroke-width:1.32292;stroke-linecap:butt;stroke-linejoin:miter;stroke-dasharray:none;stroke-opacity:1"
                 d="m -261.9375,-173.95834 h 6.08541"
                 id="path7868"
                 sodipodi:nodetypes="cc" />
              <path
                 style="fill:none;stroke:#000000;stroke-width:1.32292;stroke-linecap:butt;stroke-linejoin:miter;stroke-dasharray:none;stroke-opacity:1"
                 d="m -260.08542,-177.92709 5.59904,-0.0382"
                 id="path7870"
                 sodipodi:nodetypes="cc" />
            </g>
          </g>
        </g>
      </g>
      <path
         id="path1063"
         style="fill:#def1fa;fill-opacity:1;stroke:#000000;stroke-width:1.29646;stroke-linecap:butt;stroke-linejoin:miter;stroke-dasharray:none;stroke-opacity:1"
         d="m 63.110878,-167.32722 c -18.51935,1.6422 -27.15561,34.78035 -10.19421,46.28554 2.56187,23.05681 0.68443,62.328183 2.64583,97.895843 1.26321,21.60598 3.2368,45.607658 6.61459,71.4375 0,0 4.53296,-33.65691 6.61458,-71.4375 1.96336,-35.63413 0.0774,-74.779573 2.64583,-97.895843 14.22462,-7.15357 12.99671,-42.60313 -8.32662,-46.28554 z m -0.94051,8.816 c 0.066,0 0.13215,0.002 0.19844,0.005 0.0663,0.003 0.13297,0.009 0.19947,0.0155 0.0665,0.007 0.13279,0.0151 0.19947,0.0253 0.0667,0.0102 0.13367,0.0222 0.2005,0.0357 0.0668,0.0135 0.13355,0.0288 0.20051,0.0455 0.0669,0.0167 0.13397,0.0349 0.20102,0.0548 0.067,0.0199 0.13391,0.0416 0.20102,0.0646 0.0671,0.023 0.1344,0.0478 0.20154,0.0739 0.0671,0.0261 0.1344,0.0535 0.20154,0.0827 0.0671,0.0291 0.13443,0.0599 0.20154,0.092 0.0671,0.0321 0.13397,0.0658 0.20102,0.10077 0.0671,0.035 0.13406,0.0717 0.20102,0.10955 0.067,0.0379 0.13366,0.0771 0.2005,0.11782 0.0668,0.0407 0.13382,0.0827 0.20051,0.12609 0.0667,0.0434 0.13347,0.0882 0.19999,0.13436 0.0665,0.0461 0.13265,0.0934 0.19895,0.14211 0.0663,0.0488 0.13238,0.099 0.19844,0.15038 0.0661,0.0513 0.13213,0.10374 0.19792,0.15761 0.13157,0.10775 0.26294,0.22042 0.39326,0.33797 0.13031,0.11754 0.2598,0.24 0.3886,0.3669 0.12881,0.1269 0.2569,0.25846 0.38396,0.39429 0.12705,0.13583 0.25269,0.27582 0.37775,0.42013 0.12507,0.14431 0.24924,0.29308 0.37207,0.44545 0.12283,0.15237 0.24448,0.30872 0.36484,0.46871 0.12035,0.15998 0.23945,0.32324 0.35708,0.4904 0.11764,0.16717 0.23414,0.3382 0.34882,0.51212 0.11468,0.17392 0.22752,0.351 0.339,0.53123 0.11147,0.18023 0.22114,0.36322 0.32917,0.54932 0.10804,0.18611 0.2145,0.37534 0.31885,0.56689 0.10435,0.19155 0.20705,0.38584 0.30747,0.5824 0.10043,0.19655 0.19882,0.39522 0.29508,0.59634 0.0963,0.20113 0.1903,0.40452 0.28215,0.60978 0.0918,0.20527 0.18152,0.41271 0.26872,0.62167 0.0872,0.20896 0.17194,0.41926 0.25424,0.63149 0.0823,0.21222 0.1621,0.42625 0.23927,0.6413 0.0772,0.21506 0.15145,0.43109 0.22324,0.64854 0.0718,0.21745 0.14105,0.43637 0.20722,0.65578 0.0662,0.21941 0.12934,0.43949 0.18965,0.66042 0.0603,0.22093 0.11736,0.44254 0.17157,0.66456 0.0542,0.22202 0.10562,0.44447 0.15348,0.66714 0.0479,0.22268 0.0926,0.4458 0.13384,0.66869 0.0413,0.2229 0.0792,0.44551 0.11369,0.66818 0.0344,0.22268 0.0651,0.44512 0.0925,0.66714 0.0274,0.22203 0.0513,0.44363 0.0713,0.66456 0.0201,0.22094 0.0366,0.44153 0.0491,0.66094 0.0125,0.21941 0.0211,0.43781 0.0258,0.65526 0.005,0.21745 0.005,0.434 0.002,0.64906 -0.002,0.10753 -0.005,0.21458 -0.008,0.32142 -0.004,0.10685 -0.008,0.21325 -0.0139,0.31937 -0.006,0.10611 -0.0128,0.21196 -0.0207,0.31729 -0.008,0.10532 -0.0168,0.21023 -0.0269,0.31471 -0.0101,0.10448 -0.0214,0.20854 -0.0336,0.31212 -0.0122,0.10359 -0.0254,0.2064 -0.0398,0.30903 -0.0144,0.10263 -0.0303,0.20482 -0.047,0.30644 -0.0167,0.10162 -0.0343,0.20278 -0.0532,0.30334 -0.0189,0.10056 -0.0392,0.20079 -0.0605,0.30024 -0.0212,0.0994 -0.0436,0.19835 -0.0672,0.29662 -0.0236,0.0983 -0.048,0.19596 -0.0739,0.29301 -0.0259,0.097 -0.0533,0.1931 -0.0816,0.28887 -0.0283,0.0958 -0.0576,0.19133 -0.0884,0.28577 -0.0307,0.0944 -0.0629,0.18807 -0.0961,0.28112 -0.0332,0.0931 -0.0672,0.18538 -0.10284,0.27699 -0.0357,0.0916 -0.0729,0.18222 -0.1111,0.27233 -0.0382,0.0901 -0.0776,0.17964 -0.11834,0.2682 -0.0407,0.0886 -0.0823,0.17659 -0.12557,0.26355 -0.0433,0.087 -0.088,0.17308 -0.13385,0.25838 -0.0459,0.0853 -0.0931,0.16963 -0.14159,0.25322 -0.0485,0.0836 -0.0982,0.16623 -0.14934,0.24805 -0.0512,0.0818 -0.10377,0.16288 -0.15762,0.24287 -0.0539,0.08 -0.10879,0.15908 -0.16536,0.2372 -0.0566,0.0781 -0.11483,0.15533 -0.17415,0.23151 -0.0593,0.0762 -0.1198,0.15111 -0.1819,0.22531 -0.0621,0.0742 -0.12578,0.14747 -0.19069,0.21962 -0.0649,0.0722 -0.1312,0.14337 -0.19895,0.21343 -0.0677,0.0701 -0.13712,0.13879 -0.20774,0.2067 -0.0706,0.0679 -0.14249,0.1348 -0.21601,0.20051 -0.0735,0.0657 -0.14834,0.13033 -0.22479,0.19378 -0.0764,0.0635 -0.15468,0.12594 -0.2341,0.18707 -0.0794,0.0611 -0.15995,0.12107 -0.24236,0.17984 -0.0824,0.0588 -0.16675,0.11625 -0.25218,0.1726 -0.0854,0.0564 -0.17197,0.11149 -0.26045,0.16536 -0.0885,0.0539 -0.1787,0.10679 -0.27027,0.15813 -0.0916,0.0513 -0.18489,0.1011 -0.27957,0.14986 -0.0947,0.0488 -0.19053,0.0965 -0.28835,0.14263 -0.0978,0.0461 -0.19718,0.0904 -0.29817,0.13384 -0.101,0.0434 -0.2038,0.0859 -0.308,0.12661 -0.10419,0.0407 -0.20986,0.0799 -0.31729,0.11782 -0.10743,0.0379 -0.21642,0.074 -0.32711,0.10904 -0.1107,0.035 -0.22346,0.0687 -0.33745,0.10077 -0.11399,0.0321 -0.22943,0.0628 -0.34675,0.092 -0.11731,0.0291 -0.23641,0.0566 -0.35708,0.0827 -0.12067,0.0261 -0.24285,0.0509 -0.3669,0.0739 -0.12406,0.0231 -0.24977,0.0447 -0.37724,0.0646 -0.12747,0.0199 -0.25666,0.038 -0.38757,0.0548 -0.13092,0.0167 -0.26352,0.032 -0.39791,0.0455 -0.13439,0.0135 -0.27087,0.0255 -0.40876,0.0357 -0.1379,0.0102 -0.27715,0.0185 -0.41858,0.0253 -0.14143,0.007 -0.28495,0.012 -0.42995,0.0155 -0.145,0.003 -0.29169,0.005 -0.44028,0.005 -0.1486,0 -0.29542,-0.002 -0.44029,-0.005 -0.14487,-0.003 -0.28773,-0.009 -0.42891,-0.0155 -0.14118,-0.007 -0.28054,-0.0151 -0.41806,-0.0253 -0.13753,-0.0102 -0.27332,-0.0222 -0.40721,-0.0357 -0.1339,-0.0135 -0.26606,-0.0287 -0.39636,-0.0455 -0.13031,-0.0167 -0.25876,-0.0349 -0.38551,-0.0548 -0.12675,-0.0199 -0.25194,-0.0416 -0.37517,-0.0646 -0.12322,-0.023 -0.24458,-0.0478 -0.36432,-0.0739 -0.11973,-0.0261 -0.23771,-0.0535 -0.35398,-0.0827 -0.11628,-0.0291 -0.2308,-0.0599 -0.34365,-0.092 -0.11285,-0.0321 -0.22385,-0.0658 -0.33331,-0.10077 -0.10946,-0.035 -0.2174,-0.0712 -0.3235,-0.10904 -0.1061,-0.0379 -0.21038,-0.0771 -0.31316,-0.11782 -0.10277,-0.0407 -0.20385,-0.0832 -0.30334,-0.12661 -0.0995,-0.0434 -0.19729,-0.0877 -0.29352,-0.13384 -0.0962,-0.0461 -0.1907,-0.0939 -0.2837,-0.14263 -0.093,-0.0488 -0.1846,-0.0985 -0.27441,-0.14986 -0.0898,-0.0513 -0.17793,-0.10426 -0.26458,-0.15813 -0.0866,-0.0539 -0.17176,-0.10901 -0.25528,-0.16536 -0.0835,-0.0564 -0.16555,-0.11383 -0.24598,-0.1726 -0.0804,-0.0588 -0.1593,-0.1187 -0.23668,-0.17984 -0.0774,-0.0611 -0.15354,-0.12362 -0.22789,-0.18707 -0.0744,-0.0634 -0.14672,-0.12807 -0.21808,-0.19378 -0.0714,-0.0657 -0.1414,-0.13259 -0.2098,-0.20051 -0.0684,-0.0679 -0.13555,-0.13664 -0.20102,-0.2067 -0.0655,-0.0701 -0.12915,-0.14127 -0.19172,-0.21343 -0.0626,-0.0722 -0.12374,-0.14542 -0.18345,-0.21962 -0.0597,-0.0742 -0.1183,-0.14913 -0.17519,-0.22531 -0.0569,-0.0762 -0.1123,-0.1534 -0.1664,-0.23151 -0.0541,-0.0781 -0.10679,-0.1572 -0.15813,-0.2372 -0.0513,-0.08 -0.10124,-0.16106 -0.14986,-0.24287 -0.0486,-0.0818 -0.0957,-0.16447 -0.14159,-0.24805 -0.0459,-0.0836 -0.0906,-0.16792 -0.13384,-0.25322 -0.0433,-0.0853 -0.0855,-0.17142 -0.12609,-0.25838 -0.0406,-0.087 -0.0798,-0.17498 -0.11783,-0.26355 -0.038,-0.0886 -0.0751,-0.17808 -0.11058,-0.2682 -0.0355,-0.0901 -0.0694,-0.18072 -0.10232,-0.27233 -0.0329,-0.0916 -0.0646,-0.18394 -0.0951,-0.27699 -0.0305,-0.0931 -0.0598,-0.18668 -0.0878,-0.28112 -0.028,-0.0944 -0.0545,-0.19 -0.0801,-0.28577 -0.0256,-0.0958 -0.0502,-0.19182 -0.0734,-0.28887 -0.0232,-0.097 -0.0453,-0.19473 -0.0662,-0.29301 -0.0208,-0.0983 -0.0404,-0.19717 -0.0589,-0.29662 -0.0185,-0.0995 -0.0355,-0.19968 -0.0517,-0.30024 -0.0162,-0.10056 -0.0315,-0.20172 -0.0455,-0.30334 -0.0139,-0.10162 -0.0265,-0.20381 -0.0382,-0.30644 -0.0117,-0.10263 -0.0225,-0.20544 -0.032,-0.30903 -0.01,-0.10358 -0.018,-0.20764 -0.0253,-0.31212 -0.007,-0.10448 -0.0134,-0.20939 -0.0186,-0.31471 -0.005,-0.10533 -0.009,-0.21118 -0.0124,-0.31729 -0.006,-0.21223 -0.009,-0.42574 -0.007,-0.64079 0.002,-0.21506 0.008,-0.43161 0.0176,-0.64906 0.01,-0.21745 0.0239,-0.43585 0.0413,-0.65526 0.0175,-0.21941 0.0387,-0.44 0.0636,-0.66094 0.0249,-0.22093 0.0533,-0.44253 0.0853,-0.66456 0.032,-0.22202 0.0671,-0.44446 0.10594,-0.66714 0.0388,-0.22267 0.0812,-0.44528 0.1266,-0.66818 0.0454,-0.22289 0.094,-0.44601 0.14573,-0.66869 0.0517,-0.22267 0.10656,-0.44512 0.16433,-0.66714 0.0578,-0.22202 0.11835,-0.44363 0.1819,-0.66456 0.0635,-0.22093 0.12988,-0.44101 0.19896,-0.66042 0.0691,-0.21941 0.14116,-0.43833 0.21549,-0.65578 0.0743,-0.21745 0.15116,-0.43348 0.23047,-0.64854 0.0793,-0.21505 0.16092,-0.42908 0.24495,-0.6413 0.084,-0.21223 0.17041,-0.42253 0.2589,-0.63149 0.0885,-0.20896 0.17914,-0.4164 0.27182,-0.62167 0.0927,-0.20526 0.18762,-0.40865 0.28422,-0.60978 0.0966,-0.20112 0.19482,-0.39979 0.29507,-0.59634 0.10025,-0.19656 0.20228,-0.39085 0.30592,-0.5824 0.10365,-0.19155 0.20898,-0.38078 0.31575,-0.56689 0.10677,-0.1861 0.2149,-0.36909 0.32453,-0.54932 0.10962,-0.18023 0.22058,-0.35731 0.33279,-0.53123 0.11222,-0.17392 0.22601,-0.34495 0.34055,-0.51212 0.11454,-0.16716 0.23015,-0.33042 0.34675,-0.4904 0.1166,-0.15999 0.23404,-0.31634 0.35243,-0.46871 0.1184,-0.15237 0.23768,-0.30114 0.3576,-0.44545 0.11993,-0.14431 0.24055,-0.2843 0.36174,-0.42013 0.12118,-0.13583 0.24265,-0.26739 0.36483,-0.39429 0.12218,-0.1269 0.24503,-0.24936 0.36794,-0.3669 0.12291,-0.11755 0.24611,-0.23022 0.36949,-0.33797 0.12337,-0.10774 0.24695,-0.21047 0.37052,-0.30799 0.0618,-0.0488 0.12373,-0.096 0.18551,-0.14211 0.0618,-0.0461 0.12325,-0.0909 0.18501,-0.13436 0.0618,-0.0434 0.12331,-0.0854 0.185,-0.12609 0.0617,-0.0407 0.12342,-0.0799 0.185,-0.11782 0.0616,-0.0379 0.12303,-0.0745 0.18448,-0.10955 0.0614,-0.035 0.12321,-0.0687 0.18449,-0.10077 0.0613,-0.0321 0.12237,-0.0628 0.18345,-0.092 0.0611,-0.0291 0.12208,-0.0566 0.18294,-0.0827 0.0609,-0.0261 0.12131,-0.0509 0.1819,-0.0739 0.0606,-0.023 0.1211,-0.0447 0.18138,-0.0646 0.0603,-0.0199 0.1204,-0.038 0.18035,-0.0548 0.06,-0.0167 0.11973,-0.032 0.17932,-0.0455 0.0596,-0.0135 0.1191,-0.0255 0.17828,-0.0357 0.0592,-0.0102 0.11798,-0.0185 0.17674,-0.0253 0.0588,-0.007 0.11741,-0.0121 0.1757,-0.0155 0.0583,-0.003 0.11636,-0.005 0.17414,-0.005 z" />
      <g
         id="g8116"
         transform="translate(-1.058337,-4.7625)">
        <path
           style="fill:none;stroke:#000000;stroke-width:1.32292;stroke-linecap:butt;stroke-linejoin:miter;stroke-dasharray:none;stroke-opacity:1"
           d="m 52.916667,-134.27085 c 3.2688,-0.002 0.725524,-2.49733 9.260416,2.64584 8.592333,10.17674 17.540637,2.74137 23.547916,-0.52917 14.453601,-3.14927 12.229038,3.02128 13.229168,7.9375 0.1934,11.74288 6.373093,17.85796 21.166673,15.875 13.33867,-3.44956 13.12722,3.36474 15.87499,7.9375 7.11657,14.018318 12.64649,5.932897 18.52084,2.645827 8.64437,-8.827877 15.02166,-5.059297 21.16666,0 11.61937,11.762925 16.65634,0.91952 23.8125,-2.645827 13.39892,-10.64795 21.80901,-4.54943 29.10417,5.291667 7.3021,20.232025 19.17875,6.93376 29.10417,7.937495 21.28705,-2.953325 18.51223,9.524694 21.16666,18.520833 7.79571,14.143604 18.82679,5.772205 29.10417,2.645833"
           id="path7672"
           sodipodi:nodetypes="ccccccccccccc" />
        <path
           style="fill:none;stroke:#000000;stroke-width:1.32292;stroke-linecap:butt;stroke-linejoin:miter;stroke-dasharray:none;stroke-opacity:1"
           d="m 52.916667,-134.27085 c 0,0 3.087987,-5.82007 14.2875,2.11667 7.800084,11.29068 15.159388,8.56221 21.166667,5.29167 14.453596,-3.14927 12.229036,3.02128 13.229166,7.9375 0.1934,11.74288 6.37309,17.85796 21.16667,15.875 13.33867,-3.44956 13.12722,3.364737 15.87499,7.937497 7.11657,14.01832 12.64649,5.9329 18.52084,2.64583 8.64437,-8.827877 17.6675,-7.705127 23.8125,-2.64583 11.61937,11.762921 14.0105,3.56535 21.16666,0 13.39892,-10.647947 21.80901,-4.54943 29.10417,5.29167 7.3021,20.232024 19.17875,6.933759 29.10417,7.937494 21.28705,-2.953325 21.15807,9.524694 23.8125,18.520833 7.79571,14.143604 16.18095,5.772205 26.45833,2.645833"
           id="path7674"
           sodipodi:nodetypes="ccccccccccccc" />
        <path
           style="fill:none;stroke:#000000;stroke-width:1.32292;stroke-linecap:butt;stroke-linejoin:miter;stroke-dasharray:none;stroke-opacity:1"
           d="m 64.029167,-134.27085 -1.5875,2.64584"
           id="path7712"
           sodipodi:nodetypes="cc" />
        <path
           style="fill:none;stroke:#000000;stroke-width:1.32292;stroke-linecap:butt;stroke-linejoin:miter;stroke-dasharray:none;stroke-opacity:1"
           d="m 68.527083,-129.50835 -2.116666,2.11667"
           id="path7714"
           sodipodi:nodetypes="cc" />
        <path
           style="fill:none;stroke:#000000;stroke-width:1.32292;stroke-linecap:butt;stroke-linejoin:miter;stroke-dasharray:none;stroke-opacity:1"
           d="m 91.016667,-133.4771 -1.322918,6.61459"
           id="path7716"
           sodipodi:nodetypes="cc" />
        <path
           style="fill:none;stroke:#000000;stroke-width:1.32292;stroke-linecap:butt;stroke-linejoin:miter;stroke-dasharray:none;stroke-opacity:1"
           d="m 96.308337,-132.15418 c -1.322921,3.96875 -1.322921,3.96875 -1.322921,3.96875"
           id="path7718" />
        <path
           style="fill:none;stroke:#000000;stroke-width:1.32292;stroke-linecap:butt;stroke-linejoin:miter;stroke-dasharray:none;stroke-opacity:1"
           d="M 98.954167,-120.24793 101.6,-121.57085"
           id="path7720" />
        <path
           style="fill:none;stroke:#000000;stroke-width:1.32292;stroke-linecap:butt;stroke-linejoin:miter;stroke-dasharray:none;stroke-opacity:1"
           d="m 108.21459,-109.13543 v 4.49792"
           id="path7722"
           sodipodi:nodetypes="cc" />
        <path
           style="fill:none;stroke:#000000;stroke-width:1.32292;stroke-linecap:butt;stroke-linejoin:miter;stroke-dasharray:none;stroke-opacity:1"
           d="m 114.82917,-108.34168 v 5.29167"
           id="path7724" />
        <path
           style="fill:none;stroke:#000000;stroke-width:1.32292;stroke-linecap:butt;stroke-linejoin:miter;stroke-dasharray:none;stroke-opacity:1"
           d="m 121.44375,-108.34168 v 5.29167"
           id="path7726" />
        <path
           style="fill:none;stroke:#000000;stroke-width:1.32292;stroke-linecap:butt;stroke-linejoin:miter;stroke-dasharray:none;stroke-opacity:1"
           d="m 126.73542,-109.6646 v 5.29167"
           id="path7728" />
        <path
           style="fill:none;stroke:#000000;stroke-width:1.32292;stroke-linecap:butt;stroke-linejoin:miter;stroke-dasharray:none;stroke-opacity:1"
           d="m 145.25625,-92.466683 v 5.291665"
           id="path7730" />
        <path
           style="fill:none;stroke:#000000;stroke-width:1.32292;stroke-linecap:butt;stroke-linejoin:miter;stroke-dasharray:none;stroke-opacity:1"
           d="m 151.87084,-96.170853 v 7.40834"
           id="path7732"
           sodipodi:nodetypes="cc" />
        <path
           style="fill:none;stroke:#000000;stroke-width:1.32292;stroke-linecap:butt;stroke-linejoin:miter;stroke-dasharray:none;stroke-opacity:1"
           d="m 157.1625,-100.40418 v 7.937497"
           id="path7734" />
        <path
           style="fill:none;stroke:#000000;stroke-width:1.32292;stroke-linecap:butt;stroke-linejoin:miter;stroke-dasharray:none;stroke-opacity:1"
           d="m 162.45417,-103.05001 v 6.614577"
           id="path7736" />
        <path
           style="fill:none;stroke:#000000;stroke-width:1.32292;stroke-linecap:butt;stroke-linejoin:miter;stroke-dasharray:none;stroke-opacity:1"
           d="m 169.06875,-102.25626 v 3.174997"
           id="path7738"
           sodipodi:nodetypes="cc" />
        <path
           style="fill:none;stroke:#000000;stroke-width:1.32292;stroke-linecap:butt;stroke-linejoin:miter;stroke-dasharray:none;stroke-opacity:1"
           d="m 190.23542,-93.789603 2.91042,4.49792"
           id="path7740"
           sodipodi:nodetypes="cc" />
        <path
           style="fill:none;stroke:#000000;stroke-width:1.32292;stroke-linecap:butt;stroke-linejoin:miter;stroke-dasharray:none;stroke-opacity:1"
           d="m 195.52708,-97.758353 3.96875,3.96875"
           id="path7742" />
        <path
           style="fill:none;stroke:#000000;stroke-width:1.32292;stroke-linecap:butt;stroke-linejoin:miter;stroke-dasharray:none;stroke-opacity:1"
           d="m 202.14167,-101.7271 3.96875,3.968747"
           id="path7744" />
        <path
           style="fill:none;stroke:#000000;stroke-width:1.32292;stroke-linecap:butt;stroke-linejoin:miter;stroke-dasharray:none;stroke-opacity:1"
           d="m 208.75625,-105.69585 2.64583,5.29167"
           id="path7746" />
        <path
           style="fill:none;stroke:#000000;stroke-width:1.32292;stroke-linecap:butt;stroke-linejoin:miter;stroke-dasharray:none;stroke-opacity:1"
           d="m 216.69375,-105.69585 v 5.29167"
           id="path7748" />
        <path
           style="fill:none;stroke:#000000;stroke-width:1.32292;stroke-linecap:butt;stroke-linejoin:miter;stroke-dasharray:none;stroke-opacity:1"
           d="m 223.30834,-101.19793 -10e-6,3.439577"
           id="path7750"
           sodipodi:nodetypes="cc" />
        <path
           style="fill:none;stroke:#000000;stroke-width:1.32292;stroke-linecap:butt;stroke-linejoin:miter;stroke-dasharray:none;stroke-opacity:1"
           d="m 237.86042,-84.529185 v 4.497919"
           id="path7752"
           sodipodi:nodetypes="cc" />
        <path
           style="fill:none;stroke:#000000;stroke-width:1.32292;stroke-linecap:butt;stroke-linejoin:miter;stroke-dasharray:none;stroke-opacity:1"
           d="m 245.79792,-84.529185 v 5.291667"
           id="path7754" />
        <path
           style="fill:none;stroke:#000000;stroke-width:1.32292;stroke-linecap:butt;stroke-linejoin:miter;stroke-dasharray:none;stroke-opacity:1"
           d="m 253.73542,-87.175018 v 6.614583"
           id="path7756" />
        <path
           style="fill:none;stroke:#000000;stroke-width:1.32292;stroke-linecap:butt;stroke-linejoin:miter;stroke-dasharray:none;stroke-opacity:1"
           d="m 261.67292,-87.175018 v 5.291667"
           id="path7758" />
        <path
           style="fill:none;stroke:#000000;stroke-width:1.32292;stroke-linecap:butt;stroke-linejoin:miter;stroke-dasharray:none;stroke-opacity:1"
           d="m 269.61042,-87.175018 v 5.291667"
           id="path7760" />
        <path
           style="fill:none;stroke:#000000;stroke-width:1.32292;stroke-linecap:butt;stroke-linejoin:miter;stroke-dasharray:none;stroke-opacity:1"
           d="m 277.54792,-72.622935 h 3.96875"
           id="path7762" />
        <path
           style="fill:none;stroke:#000000;stroke-width:1.32292;stroke-linecap:butt;stroke-linejoin:miter;stroke-dasharray:none;stroke-opacity:1"
           d="m 280.45834,-66.00835 3.175,-0.264583"
           id="path7764"
           sodipodi:nodetypes="cc" />
        <path
           style="fill:none;stroke:#000000;stroke-width:1.32292;stroke-linecap:butt;stroke-linejoin:miter;stroke-dasharray:none;stroke-opacity:1"
           d="m 290.77708,-60.716685 10e-6,4.497919"
           id="path7766"
           sodipodi:nodetypes="cc" />
        <path
           style="fill:none;stroke:#000000;stroke-width:1.32292;stroke-linecap:butt;stroke-linejoin:miter;stroke-dasharray:none;stroke-opacity:1"
           d="m 297.39167,-62.039602 v 6.614584"
           id="path7768" />
        <path
           style="fill:none;stroke:#000000;stroke-width:1.32292;stroke-linecap:butt;stroke-linejoin:miter;stroke-dasharray:none;stroke-opacity:1"
           d="m 304.00625,-64.685435 v 6.614583"
           id="path7770" />
        <path
           style="fill:none;stroke:#000000;stroke-width:1.32292;stroke-linecap:butt;stroke-linejoin:miter;stroke-dasharray:none;stroke-opacity:1"
           d="m 84.666667,-131.62501 -1.587501,7.40833"
           id="path7772"
           sodipodi:nodetypes="cc" />
        <path
           style="fill:none;stroke:#000000;stroke-width:1.32292;stroke-linecap:butt;stroke-linejoin:miter;stroke-dasharray:none;stroke-opacity:1"
           d="m 79.639584,-128.7146 -3.175001,4.49792"
           id="path7774"
           sodipodi:nodetypes="cc" />
        <path
           style="fill:none;stroke:#000000;stroke-width:1.32292;stroke-linecap:butt;stroke-linejoin:miter;stroke-dasharray:none;stroke-opacity:1"
           d="m 59.795833,-135.85835 -1.322916,2.38125"
           id="path7830"
           sodipodi:nodetypes="cc" />
      </g>
    </g>
  </g>
</svg>
