<?xml version="1.0" encoding="UTF-8" standalone="no"?>
<!-- Created with Inkscape (http://www.inkscape.org/) -->
<!-- Created by jefParil -->
<!-- <a rel="license" href="http://creativecommons.org/licenses/by-nc/4.0/"><img alt="Creative Commons License" style="border-width:0" src="https://i.creativecommons.org/l/by-nc/4.0/88x31.png" /></a><br />This work is licensed under a <a rel="license" href="http://creativecommons.org/licenses/by-nc/4.0/">Creative Commons Attribution-NonCommercial 4.0 International License</a>. -->

<svg
   xmlns:osb="http://www.openswatchbook.org/uri/2009/osb"
   xmlns:dc="http://purl.org/dc/elements/1.1/"
   xmlns:cc="http://creativecommons.org/ns#"
   xmlns:rdf="http://www.w3.org/1999/02/22-rdf-syntax-ns#"
   xmlns:svg="http://www.w3.org/2000/svg"
   xmlns="http://www.w3.org/2000/svg"
   xmlns:sodipodi="http://sodipodi.sourceforge.net/DTD/sodipodi-0.dtd"
   xmlns:inkscape="http://www.inkscape.org/namespaces/inkscape"
   sodipodi:docname="phone_001.svg"
   inkscape:version="0.91 r13725"
   id="svg888"
   version="1.1"
   viewBox="0 0 529.16666 529.16666"
   height="2000"
   width="2000"
   inkscape:export-filename="/home/student.unimelb.edu.au/jparil/phone.png"
   inkscape:export-xdpi="90"
   inkscape:export-ydpi="90">
  <sodipodi:namedview
     inkscape:window-maximized="1"
     inkscape:window-y="0"
     inkscape:window-x="0"
     inkscape:window-height="1043"
     inkscape:window-width="1920"
     units="px"
     inkscape:pagecheckerboard="false"
     showgrid="true"
     inkscape:current-layer="layer5"
     inkscape:document-units="mm"
     inkscape:cy="1052.6127"
     inkscape:cx="861.32414"
     inkscape:zoom="0.28252882"
     inkscape:pageshadow="2"
     inkscape:pageopacity="0.0"
     borderopacity="1.0"
     bordercolor="#666666"
     pagecolor="#ffffff"
     id="base"
     inkscape:snap-bbox="true"
     inkscape:snap-smooth-nodes="true"
     inkscape:snap-others="true"
     inkscape:snap-to-guides="true"
     inkscape:snap-midpoints="true"
     inkscape:snap-global="false"
     inkscape:object-paths="true"
     inkscape:snap-object-midpoints="false"
     inkscape:snap-intersection-paths="true"
     inkscape:object-nodes="true"
     inkscape:snap-nodes="true">
    <inkscape:grid
       id="grid5831"
       type="xygrid" />
  </sodipodi:namedview>
  <defs
     id="defs882">
    <linearGradient
       id="linearGradient4200"
       osb:paint="solid">
      <stop
         style="stop-color:#dfc27d;stop-opacity:1;"
         offset="0"
         id="stop4202" />
    </linearGradient>
    <inkscape:perspective
       sodipodi:type="inkscape:persp3d"
       inkscape:vp_x="-61.933455 : 377.68827 : 1"
       inkscape:vp_y="1016.5294 : 640.61876 : 0"
       inkscape:vp_z="300.79691 : -125.02533 : 1"
       inkscape:persp3d-origin="29.779507 : 69.832451 : 1"
       id="perspective4170" />
    <clipPath
       id="clipPath1451"
       clipPathUnits="userSpaceOnUse">
      <ellipse
         style="display:inline;opacity:1;fill:#41b6c4;fill-opacity:1;stroke-width:0.46393993"
         ry="264.3829"
         rx="264.50702"
         cy="264.44293"
         cx="264.68036"
         id="ellipse1453" />
    </clipPath>
    <clipPath
       clipPathUnits="userSpaceOnUse"
       id="clipPath6179">
      <ellipse
         transform="matrix(0.62833159,-0.77794564,0.76663407,0.64208426,0,0)"
         style="display:inline;opacity:1;fill:#41b6c4;fill-opacity:1;stroke-width:0.46393993"
         ry="227.68144"
         rx="186.7021"
         cy="367.23871"
         cx="45.053131"
         id="ellipse6181" />
    </clipPath>
    <clipPath
       clipPathUnits="userSpaceOnUse"
       id="clipPath4163">
      <rect
         style="opacity:1;fill:#99d8c9;fill-opacity:1;stroke:none;stroke-width:10.62992096;stroke-miterlimit:4;stroke-dasharray:none;stroke-opacity:1"
         id="rect4165"
         width="527.65479"
         height="275.16672"
         x="1.5118889"
         y="-232.16666" />
    </clipPath>
    <clipPath
       clipPathUnits="userSpaceOnUse"
       id="clipPath5631">
      <path
         inkscape:connector-curvature="0"
         id="path5633"
         d="M 210.77156,375.83925 385.96092,247.85642 323.53028,162.3982 148.34091,290.38102 Z"
         style="fill:#e0de14;fill-opacity:1;stroke:none;stroke-width:0.26458332px;stroke-linecap:butt;stroke-linejoin:miter;stroke-opacity:1" />
    </clipPath>
    <clipPath
       clipPathUnits="userSpaceOnUse"
       id="clipPath5651">
      <path
         style="fill:#ffff33;fill-opacity:1;stroke:none;stroke-width:0.26458332px;stroke-linecap:butt;stroke-linejoin:miter;stroke-opacity:1"
         d="M 242.9258,419.68975 418.11516,291.70692 355.68452,206.2487 180.49515,334.23152 Z"
         id="path5653"
         inkscape:connector-curvature="0" />
    </clipPath>
    <clipPath
       clipPathUnits="userSpaceOnUse"
       id="clipPath5012">
      <path
         sodipodi:nodetypes="sssssssssssssss"
         inkscape:connector-curvature="0"
         id="path5014"
         d="m 92.034833,219.75695 c -2.481792,-0.25161 -7.130105,1.16521 -8.173625,3.43098 -28.256851,61.3532 7.982216,143.0826 67.358732,161.42644 2.38337,0.73632 4.44314,-0.0857 5.98708,-2.04496 6.27214,-7.95943 13.13426,-16.71936 16.21368,-22.52035 1.02587,-1.93251 1.89355,-6.11489 -0.19112,-8.27126 -15.94439,-16.49285 -1.76123,-3.85695 -24.24857,-24.41935 -1.53087,-1.39983 -4.12763,-1.99182 -6.79175,-0.22355 -4.36343,2.89616 -16.73147,7.97559 -16.9032,8.94844 -0.26202,1.48429 -24.39656,-21.76292 -25.843191,-60.02194 -0.09443,-2.49727 14.665481,-3.90114 20.926031,-7.57392 1.52141,-0.89253 3.95957,-2.55615 3.77862,-4.31074 -0.87683,-8.50232 1.1495,-22.95673 -0.74208,-34.29501 -0.91405,-5.47887 -5.98433,-5.71489 -8.1323,-5.92233 -7.90998,-0.76391 -11.30074,-2.99223 -23.238307,-4.20245 z"
         style="fill:#b2abd2;fill-opacity:1;fill-rule:evenodd;stroke:none;stroke-width:0.26458335px;stroke-linecap:butt;stroke-linejoin:miter;stroke-opacity:1" />
    </clipPath>
    <clipPath
       clipPathUnits="userSpaceOnUse"
       id="clipPath5022">
      <path
         sodipodi:nodetypes="sssssssssssssss"
         inkscape:connector-curvature="0"
         id="path5024"
         d="m -89.005629,221.00119 c -1.588401,-1.92343 -5.890559,-4.183 -8.225416,-3.3049 -63.224135,23.77759 -94.895985,107.38297 -65.556475,162.16673 1.17769,2.19901 3.22055,3.06216 5.69593,2.75381 10.05599,-1.25269 21.0943,-2.66006 27.3622,-4.62165 2.08805,-0.65347 5.64504,-3.01843 5.67797,-6.01755 0.25195,-22.93848 1.45834,-3.98137 -0.0831,-34.41353 -0.10493,-2.07173 -1.53585,-4.31808 -4.67372,-4.93296 -5.13936,-1.0071 -17.5069,-6.08775 -18.31287,-5.51649 -1.22968,0.87157 -2.05558,-32.62808 23.80796,-60.85792 1.68818,-1.84263 13.17343,7.53364 20.20807,9.32184 1.70952,0.43456 4.613116,0.96505 5.717718,-0.41015 5.352657,-6.66389 16.954038,-15.52074 23.578331,-24.91507 3.200978,-4.53951 -0.239522,-8.27131 -1.621527,-9.92869 -5.089273,-6.10332 -5.934768,-10.07167 -13.575081,-19.32347 z"
         style="fill:#b2abd2;fill-opacity:1;fill-rule:evenodd;stroke:none;stroke-width:0.26458335px;stroke-linecap:butt;stroke-linejoin:miter;stroke-opacity:1" />
    </clipPath>
  </defs>
  <metadata
     id="metadata885">
    <rdf:RDF>
      <cc:Work
         rdf:about="">
        <dc:format>image/svg+xml</dc:format>
        <dc:type
           rdf:resource="http://purl.org/dc/dcmitype/StillImage" />
        <dc:title />
      </cc:Work>
    </rdf:RDF>
  </metadata>
  <g
     style="display:inline"
     transform="translate(0,232.16664)"
     id="layer1"
     inkscape:groupmode="layer"
     inkscape:label="base">
    <ellipse
       id="ellipse69"
       cx="264.68036"
       cy="32.276279"
       rx="264.50702"
       ry="264.3829"
       style="display:inline;opacity:1;fill:#e0f3f8;fill-opacity:1;stroke-width:0.46393993" />
    <ellipse
       transform="translate(0,-0.06003155)"
       style="display:inline;opacity:1;fill:#abd9e9;fill-opacity:1;stroke-width:0.46393993"
       ry="264.3829"
       rx="264.50702"
       cy="32.276279"
       cx="264.68036"
       id="ellipse4150"
       clip-path="url(#clipPath4163)" />
  </g>
  <g
     inkscape:groupmode="layer"
     id="layer5"
     inkscape:label="phone"
     style="display:inline">
    <path
       sodipodi:nodetypes="sssssssssssssss"
       inkscape:connector-curvature="0"
       id="path4161"
       d="m 136.8351,138.78053 c -5.10054,1.60118 -13.08075,8.39081 -13.24965,13.8254 -4.57359,147.15979 134.93191,280.48981 267.22892,266.92465 5.3104,-0.54451 8.68484,-3.94298 10.09527,-9.18697 5.72971,-21.30327 11.95523,-44.71442 13.19118,-58.97452 0.41174,-4.75054 -1.36261,-13.88384 -7.26739,-16.44386 -45.16211,-19.58015 -6.68411,-6.24875 -68.13089,-28.44616 -4.18312,-1.51114 -9.79381,-0.49575 -13.57092,5.31545 -6.18636,9.51787 -26.32874,30.21272 -25.85671,32.31164 0.72018,3.20236 -66.20949,-22.98728 -100.93374,-98.57149 -2.26654,-4.93359 25.65163,-20.27907 34.92971,-32.96627 2.25472,-3.08317 5.67372,-8.4925 3.85538,-11.86158 -8.81122,-16.32578 -16.85975,-47.06542 -30.03339,-68.22368 -6.36574,-10.22405 -16.55449,-6.39468 -20.96038,-4.98814 -16.22481,5.17963 -24.76347,3.58367 -49.29739,11.28553 z"
       style="fill:#762a83;fill-opacity:0.67487685;fill-rule:evenodd;stroke:none;stroke-width:0.26458335px;stroke-linecap:butt;stroke-linejoin:miter;stroke-opacity:1" />
    <path
       style="fill:#b2abd2;fill-opacity:1;fill-rule:evenodd;stroke:none;stroke-width:0.26458335px;stroke-linecap:butt;stroke-linejoin:miter;stroke-opacity:1"
       d="m 132.60174,130.31381 c -5.10054,1.60118 -13.08075,8.39081 -13.24965,13.8254 -4.57359,147.15979 134.93191,280.48981 267.22892,266.92465 5.3104,-0.54451 8.68484,-3.94298 10.09527,-9.18697 5.72971,-21.30327 11.95523,-44.71442 13.19118,-58.97452 0.41174,-4.75054 -1.36261,-13.88384 -7.26739,-16.44386 -45.16211,-19.58015 -6.68411,-6.24875 -68.13089,-28.44616 -4.18312,-1.51114 -9.79381,-0.49575 -13.57092,5.31545 -6.18636,9.51787 -26.32874,30.21272 -25.85671,32.31164 0.72018,3.20236 -66.20949,-22.98728 -100.93374,-98.57149 -2.26654,-4.93359 25.65163,-20.27907 34.92971,-32.96627 2.25472,-3.08317 5.67372,-8.4925 3.85538,-11.86158 -8.81122,-16.32578 -16.85975,-47.06542 -30.03339,-68.22368 -6.36574,-10.22405 -16.55449,-6.39468 -20.96038,-4.98814 -16.22481,5.17963 -24.76347,3.58367 -49.29739,11.28553 z"
       id="path4918"
       inkscape:connector-curvature="0"
       sodipodi:nodetypes="sssssssssssssss" />
    <rect
       y="216.76608"
       x="108.64982"
       height="60.096657"
       width="28.062637"
       id="rect4963"
       style="opacity:1;fill:#8073ac;fill-opacity:1;stroke:none;stroke-width:1.77165353;stroke-miterlimit:4;stroke-dasharray:none;stroke-opacity:1"
       transform="matrix(1.9707266,-0.84871579,0.83309325,2.0076826,-231.85178,-232.77697)"
       clip-path="url(#clipPath5012)" />
    <rect
       style="opacity:1;fill:#8073ac;fill-opacity:1;stroke:none;stroke-width:1.77165353;stroke-miterlimit:4;stroke-dasharray:none;stroke-opacity:1"
       id="rect5008"
       width="28.062637"
       height="60.096657"
       x="-137.93066"
       y="325.80011"
       transform="matrix(0.81615812,-2.0148888,1.9778002,0.83146309,-231.85178,-232.77697)"
       clip-path="url(#clipPath5022)" />
  </g>
</svg>
