<?xml version="1.0" encoding="UTF-8" standalone="no"?>
<!-- Created with Inkscape (http://www.inkscape.org/) -->
<!-- Created by jefParil -->
<!-- <a rel="license" href="http://creativecommons.org/licenses/by-nc/4.0/"><img alt="Creative Commons License" style="border-width:0" src="https://i.creativecommons.org/l/by-nc/4.0/88x31.png" /></a><br />This work is licensed under a <a rel="license" href="http://creativecommons.org/licenses/by-nc/4.0/">Creative Commons Attribution-NonCommercial 4.0 International License</a>. -->

<svg
   xmlns:dc="http://purl.org/dc/elements/1.1/"
   xmlns:cc="http://creativecommons.org/ns#"
   xmlns:rdf="http://www.w3.org/1999/02/22-rdf-syntax-ns#"
   xmlns:svg="http://www.w3.org/2000/svg"
   xmlns="http://www.w3.org/2000/svg"
   xmlns:sodipodi="http://sodipodi.sourceforge.net/DTD/sodipodi-0.dtd"
   xmlns:inkscape="http://www.inkscape.org/namespaces/inkscape"
   width="200mm"
   height="275mm"
   viewBox="0 0 200 275"
   version="1.1"
   id="svg8"
   inkscape:version="0.92.4 (unknown)"
   sodipodi:docname="pin_002.svg">
  <defs
     id="defs2" />
  <sodipodi:namedview
     id="base"
     pagecolor="#ffffff"
     bordercolor="#666666"
     borderopacity="1.0"
     inkscape:pageopacity="0.0"
     inkscape:pageshadow="2"
     inkscape:zoom="0.32"
     inkscape:cx="136.81589"
     inkscape:cy="911.79155"
     inkscape:document-units="mm"
     inkscape:current-layer="layer1"
     showgrid="true"
     inkscape:pagecheckerboard="true"
     inkscape:window-width="1920"
     inkscape:window-height="1043"
     inkscape:window-x="0"
     inkscape:window-y="0"
     inkscape:window-maximized="1">
    <inkscape:grid
       type="xygrid"
       id="grid817" />
  </sodipodi:namedview>
  <metadata
     id="metadata5">
    <rdf:RDF>
      <cc:Work
         rdf:about="">
        <dc:format>image/svg+xml</dc:format>
        <dc:type
           rdf:resource="http://purl.org/dc/dcmitype/StillImage" />
        <dc:title></dc:title>
      </cc:Work>
    </rdf:RDF>
  </metadata>
  <g
     inkscape:label="Layer 1"
     inkscape:groupmode="layer"
     id="layer1"
     transform="translate(0,-22)">
    <path
       inkscape:connector-curvature="0"
       id="path837"
       d="m 100,22 c -15.694123,-2e-6 -31.388016,3.872263 -45.355886,11.616864 -19.753521,10.952514 -37.174221,34.270868 -45.3564046,60.712572 -5.785669,18.697224 -5.785669,42.016074 0,60.713184 C 25.652078,207.92611 100,276.46828 100,276.46828 c 0,0 74.34789,-68.54217 90.71229,-121.42566 5.78567,-18.69711 5.78567,-42.01596 0,-60.713184 C 182.5301,67.887729 165.10999,44.569378 145.3564,33.616864 131.38855,25.872268 115.69413,22.000001 100,22 Z m 0,59.143161 A 39.999999,39.999999 0 0 1 140.00014,121.14288 39.999999,39.999999 0 0 1 100,161.14302 39.999999,39.999999 0 0 1 60.000376,121.14288 39.999999,39.999999 0 0 1 100,81.143161 Z"
       mask="none"
       style="fill:#ffffff;fill-opacity:1;fill-rule:evenodd;stroke:none;stroke-width:1.31189263px;stroke-linecap:butt;stroke-linejoin:miter;stroke-opacity:1" />
    <path
       style="fill:#0288d1;fill-opacity:1;fill-rule:evenodd;stroke:none;stroke-width:1.31189263px;stroke-linecap:butt;stroke-linejoin:miter;stroke-opacity:1"
       mask="none"
       d="m 100,42.531723 c -15.694124,-2e-6 -31.388017,3.872261 -45.355887,11.616861 -19.753521,10.952514 -37.174221,34.270868 -45.3564038,60.712626 -5.7856695,18.69719 -5.7856695,42.01602 0,60.71313 C 25.652077,228.45783 100,297 100,297 c 0,0 74.34789,-68.54217 90.71229,-121.42566 5.78567,-18.69711 5.78567,-42.01594 0,-60.71313 C 182.5301,88.419449 165.10999,65.101098 145.3564,54.148584 131.38855,46.403989 115.69413,42.531724 100,42.531723 Z m 0,59.143157 A 39.999999,39.999999 0 0 1 140.00014,141.6746 39.999999,39.999999 0 0 1 100,181.67474 39.999999,39.999999 0 0 1 60.000375,141.6746 39.999999,39.999999 0 0 1 100,101.67488 Z"
       id="path819"
       inkscape:connector-curvature="0" />
  </g>
</svg>
