<?xml version="1.0" encoding="UTF-8" standalone="no"?>
<!-- Created with Inkscape (http://www.inkscape.org/) -->

<!-- Created by jefParil -->

<!-- <a rel="license" href="http://creativecommons.org/licenses/by-nc/4.0/"><img alt="Creative Commons License" style="border-width:0" src="https://i.creativecommons.org/l/by-nc/4.0/88x31.png" /></a><br />This work is licensed under a <a rel="license" href="http://creativecommons.org/licenses/by-nc/4.0/">Creative Commons Attribution-NonCommercial 4.0 International License</a>. -->

<svg
   xmlns:dc="http://purl.org/dc/elements/1.1/"
   xmlns:cc="http://creativecommons.org/ns#"
   xmlns:rdf="http://www.w3.org/1999/02/22-rdf-syntax-ns#"
   xmlns:svg="http://www.w3.org/2000/svg"
   xmlns="http://www.w3.org/2000/svg"
   xmlns:sodipodi="http://sodipodi.sourceforge.net/DTD/sodipodi-0.dtd"
   xmlns:inkscape="http://www.inkscape.org/namespaces/inkscape"
   width="2000"
   height="2000"
   viewBox="0 0 529.16665 529.16668"
   version="1.1"
   id="svg8"
   sodipodi:docname="popimp.svg"
   inkscape:version="0.92.4 (unknown)"
   inkscape:export-filename="/home/student.unimelb.edu.au/jparil/popimp.png"
   inkscape:export-xdpi="90"
   inkscape:export-ydpi="90">
  <defs
     id="defs2">
    <clipPath
       clipPathUnits="userSpaceOnUse"
       id="clipPath821">
      <circle
         r="264.58337"
         cy="32.416653"
         cx="264.58337"
         id="circle823"
         style="opacity:1;fill:#ffb5b5;fill-opacity:1;fill-rule:nonzero;stroke:none;stroke-width:0.3671532;stroke-miterlimit:4;stroke-dasharray:none;stroke-dashoffset:0;stroke-opacity:1" />
    </clipPath>
    <clipPath
       clipPathUnits="userSpaceOnUse"
       id="clipPath1037">
      <rect
         y="30.238077"
         x="442.98813"
         height="294.82144"
         width="63.5"
         id="rect1039"
         style="opacity:1;fill:#fffac9;fill-opacity:1;fill-rule:nonzero;stroke:none;stroke-width:5;stroke-miterlimit:4;stroke-dasharray:none;stroke-dashoffset:0;stroke-opacity:1" />
    </clipPath>
    <clipPath
       clipPathUnits="userSpaceOnUse"
       id="clipPath1139">
      <rect
         style="opacity:1;fill:#fffac9;fill-opacity:1;fill-rule:nonzero;stroke:none;stroke-width:3.53553391;stroke-miterlimit:4;stroke-dasharray:none;stroke-dashoffset:0;stroke-opacity:1"
         id="rect1141"
         width="31.75"
         height="294.82144"
         x="604.53113"
         y="16.630957" />
    </clipPath>
    <clipPath
       clipPathUnits="userSpaceOnUse"
       id="clipPath1143">
      <rect
         style="opacity:1;fill:#fffac9;fill-opacity:1;fill-rule:nonzero;stroke:none;stroke-width:2.18217897;stroke-miterlimit:4;stroke-dasharray:none;stroke-dashoffset:0;stroke-opacity:1"
         id="rect1145"
         width="12.095238"
         height="294.82144"
         x="643.38739"
         y="37.797626" />
    </clipPath>
    <clipPath
       clipPathUnits="userSpaceOnUse"
       id="clipPath1147">
      <rect
         style="opacity:1;fill:#fffac9;fill-opacity:1;fill-rule:nonzero;stroke:none;stroke-width:2.18217897;stroke-miterlimit:4;stroke-dasharray:none;stroke-dashoffset:0;stroke-opacity:1"
         id="rect1149"
         width="12.095238"
         height="294.82144"
         x="584.8006"
         y="37.797626" />
    </clipPath>
    <clipPath
       clipPathUnits="userSpaceOnUse"
       id="clipPath1166">
      <rect
         style="opacity:1;fill:#fffac9;fill-opacity:1;fill-rule:nonzero;stroke:none;stroke-width:5;stroke-miterlimit:4;stroke-dasharray:none;stroke-dashoffset:0;stroke-opacity:1"
         id="rect1168"
         width="198.05951"
         height="61.988094"
         x="-353.78568"
         y="-169.33333" />
    </clipPath>
    <clipPath
       clipPathUnits="userSpaceOnUse"
       id="clipPath1194">
      <rect
         style="opacity:1;fill:#fffac9;fill-opacity:1;fill-rule:nonzero;stroke:none;stroke-width:4.10997486;stroke-miterlimit:4;stroke-dasharray:none;stroke-dashoffset:0;stroke-opacity:1"
         id="rect1196"
         width="264.58337"
         height="27.214285"
         x="-401.83466"
         y="-14.817155" />
    </clipPath>
    <clipPath
       clipPathUnits="userSpaceOnUse"
       id="clipPath1344">
      <rect
         y="-41.805096"
         x="-401.83469"
         height="9.0714273"
         width="264.58337"
         id="rect1346"
         style="opacity:1;fill:#fffac9;fill-opacity:1;fill-rule:nonzero;stroke:none;stroke-width:2.372895;stroke-miterlimit:4;stroke-dasharray:none;stroke-dashoffset:0;stroke-opacity:1" />
    </clipPath>
    <clipPath
       clipPathUnits="userSpaceOnUse"
       id="clipPath1348">
      <rect
         y="-41.805096"
         x="-401.83469"
         height="9.0714273"
         width="264.58337"
         id="rect1350"
         style="opacity:1;fill:#fffac9;fill-opacity:1;fill-rule:nonzero;stroke:none;stroke-width:2.372895;stroke-miterlimit:4;stroke-dasharray:none;stroke-dashoffset:0;stroke-opacity:1" />
    </clipPath>
    <clipPath
       clipPathUnits="userSpaceOnUse"
       id="clipPath1408">
      <rect
         y="42.105625"
         x="-612.32141"
         height="9.0714273"
         width="264.58337"
         id="rect1410"
         style="opacity:1;fill:#fffac9;fill-opacity:1;fill-rule:nonzero;stroke:none;stroke-width:2.372895;stroke-miterlimit:4;stroke-dasharray:none;stroke-dashoffset:0;stroke-opacity:1" />
    </clipPath>
    <clipPath
       clipPathUnits="userSpaceOnUse"
       id="clipPath1412">
      <rect
         y="42.105625"
         x="-612.32141"
         height="9.0714273"
         width="264.58337"
         id="rect1414"
         style="opacity:1;fill:#fffac9;fill-opacity:1;fill-rule:nonzero;stroke:none;stroke-width:2.372895;stroke-miterlimit:4;stroke-dasharray:none;stroke-dashoffset:0;stroke-opacity:1" />
    </clipPath>
    <clipPath
       clipPathUnits="userSpaceOnUse"
       id="clipPath1416">
      <rect
         y="42.105625"
         x="-612.32141"
         height="9.0714273"
         width="264.58337"
         id="rect1418"
         style="opacity:1;fill:#fffac9;fill-opacity:1;fill-rule:nonzero;stroke:none;stroke-width:2.372895;stroke-miterlimit:4;stroke-dasharray:none;stroke-dashoffset:0;stroke-opacity:1" />
    </clipPath>
    <clipPath
       clipPathUnits="userSpaceOnUse"
       id="clipPath1420">
      <rect
         y="42.105625"
         x="-612.32141"
         height="9.0714273"
         width="264.58337"
         id="rect1422"
         style="opacity:1;fill:#fffac9;fill-opacity:1;fill-rule:nonzero;stroke:none;stroke-width:2.372895;stroke-miterlimit:4;stroke-dasharray:none;stroke-dashoffset:0;stroke-opacity:1" />
    </clipPath>
    <clipPath
       clipPathUnits="userSpaceOnUse"
       id="clipPath1424">
      <rect
         y="521.38031"
         x="-627.44043"
         height="9.0714273"
         width="264.58337"
         id="rect1426"
         style="opacity:1;fill:#fffac9;fill-opacity:1;fill-rule:nonzero;stroke:none;stroke-width:2.372895;stroke-miterlimit:4;stroke-dasharray:none;stroke-dashoffset:0;stroke-opacity:1" />
    </clipPath>
    <clipPath
       clipPathUnits="userSpaceOnUse"
       id="clipPath1428">
      <rect
         y="521.38031"
         x="-627.44043"
         height="9.0714273"
         width="264.58337"
         id="rect1430"
         style="opacity:1;fill:#fffac9;fill-opacity:1;fill-rule:nonzero;stroke:none;stroke-width:2.372895;stroke-miterlimit:4;stroke-dasharray:none;stroke-dashoffset:0;stroke-opacity:1" />
    </clipPath>
    <clipPath
       clipPathUnits="userSpaceOnUse"
       id="clipPath1432">
      <rect
         y="521.38031"
         x="-627.44043"
         height="9.0714273"
         width="264.58337"
         id="rect1434"
         style="opacity:1;fill:#fffac9;fill-opacity:1;fill-rule:nonzero;stroke:none;stroke-width:2.372895;stroke-miterlimit:4;stroke-dasharray:none;stroke-dashoffset:0;stroke-opacity:1" />
    </clipPath>
    <clipPath
       clipPathUnits="userSpaceOnUse"
       id="clipPath1436">
      <rect
         y="521.38031"
         x="-627.44043"
         height="9.0714273"
         width="264.58337"
         id="rect1438"
         style="opacity:1;fill:#fffac9;fill-opacity:1;fill-rule:nonzero;stroke:none;stroke-width:2.372895;stroke-miterlimit:4;stroke-dasharray:none;stroke-dashoffset:0;stroke-opacity:1" />
    </clipPath>
    <clipPath
       clipPathUnits="userSpaceOnUse"
       id="clipPath821-2">
      <circle
         r="264.58337"
         cy="32.416653"
         cx="264.58337"
         id="circle823-9"
         style="opacity:1;fill:#ffb5b5;fill-opacity:1;fill-rule:nonzero;stroke:none;stroke-width:0.3671532;stroke-miterlimit:4;stroke-dasharray:none;stroke-dashoffset:0;stroke-opacity:1" />
    </clipPath>
    <clipPath
       clipPathUnits="userSpaceOnUse"
       id="clipPath1608">
      <rect
         transform="translate(0,232.16668)"
         clip-path="url(#clipPath821-2)"
         y="32.416645"
         x="-1.0172526e-05"
         height="264.58334"
         width="529.16669"
         id="rect1610"
         style="display:inline;opacity:1;fill:#92e38a;fill-opacity:0.51072962;fill-rule:nonzero;stroke:none;stroke-width:0.26458332;stroke-miterlimit:4;stroke-dasharray:none;stroke-dashoffset:0;stroke-opacity:1" />
    </clipPath>
    <clipPath
       clipPathUnits="userSpaceOnUse"
       id="clipPath910">
      <rect
         style="opacity:1;fill:#8aabe3;fill-opacity:0.5098038;fill-rule:nonzero;stroke:none;stroke-width:10;stroke-miterlimit:4;stroke-dasharray:none;stroke-dashoffset:0;stroke-opacity:1"
         id="rect912"
         width="964.30841"
         height="245.88794"
         x="-137.91107"
         y="148.39813" />
    </clipPath>
    <clipPath
       clipPathUnits="userSpaceOnUse"
       id="clipPath2265">
      <circle
         r="264.58337"
         cy="40.735226"
         cx="264.58331"
         id="circle2267"
         style="display:inline;opacity:1;fill:#d6f3ff;fill-opacity:1;fill-rule:nonzero;stroke:none;stroke-width:0.3671532;stroke-miterlimit:4;stroke-dasharray:none;stroke-dashoffset:0;stroke-opacity:1"
         inkscape:transform-center-x="255.50968"
         inkscape:transform-center-y="-231.98996" />
    </clipPath>
  </defs>
  <sodipodi:namedview
     id="base"
     pagecolor="#ffffff"
     bordercolor="#666666"
     borderopacity="1.0"
     inkscape:pageopacity="0.0"
     inkscape:pageshadow="2"
     inkscape:zoom="0.24748737"
     inkscape:cx="193.08118"
     inkscape:cy="1148.8676"
     inkscape:document-units="mm"
     inkscape:current-layer="layer2"
     showgrid="false"
     inkscape:pagecheckerboard="true"
     units="px"
     inkscape:window-width="1920"
     inkscape:window-height="1043"
     inkscape:window-x="0"
     inkscape:window-y="0"
     inkscape:window-maximized="1" />
  <metadata
     id="metadata5">
    <rdf:RDF>
      <cc:Work
         rdf:about="">
        <dc:format>image/svg+xml</dc:format>
        <dc:type
           rdf:resource="http://purl.org/dc/dcmitype/StillImage" />
        <dc:title />
      </cc:Work>
    </rdf:RDF>
  </metadata>
  <g
     inkscape:label="base"
     inkscape:groupmode="layer"
     id="layer1"
     transform="translate(0,232.16668)"
     style="display:inline">
    <circle
       style="opacity:1;fill:#bebada;fill-opacity:1;fill-rule:nonzero;stroke:none;stroke-width:0.3671532;stroke-miterlimit:4;stroke-dasharray:none;stroke-dashoffset:0;stroke-opacity:1"
       id="path815"
       cx="264.58334"
       cy="32.416653"
       r="264.58334" />
    <circle
       r="264.58334"
       cy="32.416653"
       cx="264.58334"
       id="circle906"
       style="opacity:1;fill:#bc80bd;fill-opacity:1;fill-rule:nonzero;stroke:none;stroke-width:0.3671532;stroke-miterlimit:4;stroke-dasharray:none;stroke-dashoffset:0;stroke-opacity:1"
       clip-path="url(#clipPath910)" />
  </g>
  <g
     inkscape:groupmode="layer"
     id="layer2"
     inkscape:label="dist"
     style="display:inline">
    <path
       id="path961"
       title="(1/sqrt(2*pi)) * (exp(-1*(x**2)/2))"
       d="m 17.909785,376.40108 c 3.107634,-0.37492 6.21526,-0.8517 9.322872,-1.48688 3.107618,-0.63516 6.215251,-1.42959 9.322856,-2.45561 3.107627,-1.02602 6.215239,-2.28553 9.322867,-3.86327 3.107605,-1.57778 6.215238,-3.47668 9.322853,-5.78358 3.107636,-2.30699 6.215233,-5.02585 9.322865,-8.22834 3.107605,-3.20252 6.215237,-6.89323 9.322865,-11.10541 3.107615,-4.21227 6.215214,-8.95071 9.322847,-14.18535 3.107633,-5.23473 6.215248,-10.96954 9.32286,-17.0915 3.107627,-6.12197 6.215209,-12.63315 9.32283,-19.3304 3.10761,-6.69732 6.21523,-13.58015 9.32286,-20.36775 3.1076,-6.78766 6.21522,-13.4765 9.32286,-19.74203 3.1076,-6.26555 6.21523,-12.10142 9.32284,-17.19048 3.10763,-5.08903 6.21523,-9.42303 9.32288,-12.74991 3.10759,-3.32687 6.21522,-5.63789 9.32284,-6.79615 3.10761,-1.15827 6.21524,-1.15597 9.32285,0 3.10762,1.15597 6.21525,3.47129 9.32285,6.79615 3.10764,3.32488 6.21525,7.66237 9.32287,12.74991 3.10763,5.08755 6.21524,10.92578 9.32287,17.19048 3.10762,6.26469 6.21522,12.95457 9.32285,19.74203 3.10762,6.7874 6.21523,13.6701 9.32285,20.36775 3.10763,6.69764 6.21523,13.2077 9.32286,19.3304 3.10763,6.12269 6.21526,11.85584 9.32286,17.0915 3.10763,5.23564 6.21523,9.97208 9.32285,14.18535 3.10763,4.21326 6.21523,7.90195 9.32286,11.10541 3.10762,3.20349 6.21522,5.92056 9.32286,8.22834 3.10763,2.30777 6.21523,4.20515 9.32286,5.78358 3.10762,1.57843 6.21522,2.83678 9.32285,3.86327 3.10762,1.02649 6.21524,1.82015 9.32284,2.45561 3.10764,0.63585 6.21524,1.11202 9.32288,1.48688"
       style="opacity:1;fill:none;fill-opacity:1;fill-rule:nonzero;stroke:#33a02c;stroke-width:11.62534332;stroke-miterlimit:4;stroke-dasharray:23.25068697, 11.62534349999999961;stroke-dashoffset:200;stroke-opacity:1"
       inkscape:connector-curvature="0" />
    <path
       inkscape:connector-curvature="0"
       style="opacity:1;fill:none;fill-opacity:1;fill-rule:nonzero;stroke:#f46d43;stroke-width:12.07091141;stroke-miterlimit:4;stroke-dasharray:24.14182402, 12.07091201;stroke-dashoffset:200;stroke-opacity:1"
       d="m 231.77408,376.18692 c 3.10682,-0.40431 6.21364,-0.91848 9.32043,-1.60346 3.10681,-0.68496 6.21363,-1.54168 9.32042,-2.64814 3.10681,-1.10647 6.21362,-2.46474 9.32043,-4.16617 3.1068,-1.70149 6.21361,-3.74927 9.32042,-6.23705 3.10681,-2.48787 6.2136,-5.41991 9.32041,-8.87349 3.1068,-3.45362 6.21362,-7.43371 9.32044,-11.97614 3.10679,-4.54253 6.21359,-9.65248 9.3204,-15.29756 3.10682,-5.64515 6.21363,-11.8296 9.32044,-18.43157 3.10681,-6.60196 6.21359,-13.62366 9.32041,-20.84601 3.1068,-7.22243 6.21361,-14.64492 9.32042,-21.9647 3.10678,-7.31985 6.2136,-14.53314 9.32043,-21.28991 3.10678,-6.75681 6.2136,-13.05025 9.3204,-18.53832 3.10681,-5.48804 6.21359,-10.16185 9.32043,-13.74957 3.10679,-3.58772 6.21361,-6.07994 9.32041,-7.32901 3.1068,-1.24907 6.21361,-1.2466 9.32041,0 3.1068,1.2466 6.21363,3.74346 9.32042,7.32901 3.10683,3.58556 6.21361,8.26314 9.32042,13.74957 3.10682,5.48645 6.21362,11.78243 9.32043,18.53832 3.10682,6.75587 6.21361,13.97028 9.32042,21.28991 3.1068,7.31956 6.2136,14.74192 9.32041,21.9647 3.10682,7.22277 6.2136,14.24326 9.32042,20.84601 3.10683,6.60274 6.21364,12.78541 9.32043,18.43157 3.10681,5.64615 6.21361,10.75395 9.32041,15.29756 3.10682,4.54361 6.2136,8.5215 9.32043,11.97614 3.1068,3.45466 6.21359,6.38477 9.32041,8.87349 3.10682,2.48872 6.2136,4.53485 9.32043,6.23705 3.1068,1.70218 6.2136,3.0592 9.32041,4.16617 3.1068,1.10697 6.2136,1.96286 9.3204,2.64814 3.10682,0.68571 6.21362,1.19921 9.32044,1.60346"
       title="(1/sqrt(2*pi)) * (exp(-1*(x**2)/2))"
       id="path875" />
    <path
       id="path873"
       title="(1/sqrt(2*pi)) * (exp(-1*(x**2)/2))"
       d="m 160.73326,375.5428 c 3.1014,-0.50138 6.20281,-1.13899 9.30419,-1.98842 3.10139,-0.84941 6.20281,-1.9118 9.30418,-3.28391 3.1014,-1.3721 6.2028,-3.05646 9.30419,-5.1664 3.10138,-2.10998 6.20278,-4.6494 9.30418,-7.73444 3.1014,-3.08516 6.20277,-6.72113 9.30418,-11.00384 3.10138,-4.28278 6.20278,-9.21841 9.30419,-14.8514 3.10138,-5.6331 6.20276,-11.96987 9.30416,-18.97022 3.10141,-7.00045 6.2028,-14.66968 9.30419,-22.85664 3.1014,-8.18698 6.20277,-16.89445 9.30417,-25.85075 3.1014,-8.95641 6.20279,-18.1609 9.30419,-27.23803 3.10136,-9.0772 6.20277,-18.02227 9.30418,-26.40122 3.10137,-8.37899 6.20278,-16.18337 9.30417,-22.98901 3.10139,-6.80563 6.20277,-12.60153 9.30419,-17.05061 3.10137,-4.44906 6.20277,-7.53961 9.30417,-9.08856 3.10138,-1.54896 6.20278,-1.54589 9.30417,0 3.10139,1.54589 6.20279,4.6422 9.30418,9.08856 3.10141,4.4464 6.20278,10.24697 9.30417,17.05061 3.10142,6.80363 6.2028,14.61115 9.3042,22.98901 3.1014,8.37783 6.20278,17.32429 9.30417,26.40122 3.1014,9.07686 6.20278,18.28118 9.30418,27.23803 3.1014,8.95682 6.20278,17.66279 9.30417,25.85075 3.10141,8.18794 6.20282,15.85494 9.30419,22.85664 3.1014,7.00168 6.20279,13.33577 9.30418,18.97022 3.10139,5.63444 6.20276,10.56736 9.30418,14.8514 3.10139,4.28405 6.20276,7.91762 9.30418,11.00384 3.1014,3.08621 6.20277,5.62358 9.30418,7.73444 3.10139,2.11085 6.20277,3.79366 9.30417,5.1664 3.10139,1.37273 6.20278,2.43411 9.30416,3.28391 3.10142,0.85033 6.20279,1.48711 9.3042,1.98842"
       style="opacity:1;fill:none;fill-opacity:1;fill-rule:nonzero;stroke:#fee08b;stroke-width:13.4303236;stroke-miterlimit:4;stroke-dasharray:26.86064818, 13.4303241;stroke-dashoffset:200;stroke-opacity:1"
       inkscape:connector-curvature="0" />
    <path
       inkscape:connector-curvature="0"
       style="opacity:1;fill:none;fill-opacity:1;fill-rule:nonzero;stroke:#d9ef8b;stroke-width:11.62534332;stroke-miterlimit:4;stroke-dasharray:23.25068697, 11.6253435;stroke-dashoffset:200;stroke-opacity:1"
       d="m 89.186085,376.40108 c 3.107632,-0.37492 6.215266,-0.8517 9.322876,-1.48688 3.107609,-0.63516 6.215249,-1.42959 9.322859,-2.45561 3.10763,-1.02602 6.21524,-2.28553 9.32286,-3.86327 3.10761,-1.57778 6.21524,-3.47668 9.32286,-5.78358 3.10763,-2.30699 6.21523,-5.02585 9.32286,-8.22834 3.1076,-3.20252 6.21523,-6.89323 9.32287,-11.10541 3.10761,-4.21227 6.21521,-8.95071 9.32284,-14.18535 3.10763,-5.23473 6.21525,-10.96954 9.32286,-17.0915 3.10763,-6.12197 6.21523,-12.63315 9.32286,-19.3304 3.10761,-6.69732 6.21523,-13.58016 9.32286,-20.36775 3.1076,-6.78766 6.21522,-13.4765 9.32286,-19.74203 3.1076,-6.26555 6.21523,-12.10142 9.32284,-17.19048 3.10762,-5.08903 6.21523,-9.42303 9.32288,-12.74991 3.10759,-3.32687 6.21522,-5.63789 9.32284,-6.79615 3.10761,-1.15827 6.21524,-1.15597 9.32285,0 3.10762,1.15597 6.21525,3.47129 9.32285,6.79615 3.10764,3.32488 6.21524,7.66236 9.32287,12.74991 3.10763,5.08755 6.21524,10.92578 9.32287,17.19048 3.10762,6.26469 6.21522,12.95457 9.32285,19.74203 3.10762,6.78739 6.21523,13.6701 9.32285,20.36775 3.10763,6.69764 6.21523,13.2077 9.32286,19.3304 3.10763,6.12269 6.21526,11.85584 9.32286,17.0915 3.10763,5.23564 6.21523,9.97208 9.32285,14.18535 3.10763,4.21326 6.21523,7.90194 9.32286,11.10541 3.10762,3.20349 6.21522,5.92056 9.32286,8.22834 3.10763,2.30777 6.21523,4.20514 9.32286,5.78358 3.10762,1.57843 6.21522,2.83678 9.32285,3.86327 3.10761,1.02649 6.21524,1.82015 9.32284,2.45561 3.10764,0.63585 6.21524,1.11202 9.32288,1.48688"
       title="(1/sqrt(2*pi)) * (exp(-1*(x**2)/2))"
       id="path871" />
  </g>
</svg>
