<?xml version="1.0" encoding="UTF-8" standalone="no"?>
<!-- Created with Inkscape (http://www.inkscape.org/) -->

<!-- Created by jefParil -->

<!-- <a rel="license" href="http://creativecommons.org/licenses/by-nc/4.0/"><img alt="Creative Commons License" style="border-width:0" src="https://i.creativecommons.org/l/by-nc/4.0/88x31.png" /></a><br />This work is licensed under a <a rel="license" href="http://creativecommons.org/licenses/by-nc/4.0/">Creative Commons Attribution-NonCommercial 4.0 International License</a>. -->

<svg
   xmlns:dc="http://purl.org/dc/elements/1.1/"
   xmlns:cc="http://creativecommons.org/ns#"
   xmlns:rdf="http://www.w3.org/1999/02/22-rdf-syntax-ns#"
   xmlns:svg="http://www.w3.org/2000/svg"
   xmlns="http://www.w3.org/2000/svg"
   xmlns:sodipodi="http://sodipodi.sourceforge.net/DTD/sodipodi-0.dtd"
   xmlns:inkscape="http://www.inkscape.org/namespaces/inkscape"
   width="2000"
   height="2000"
   viewBox="0 0 529.16665 529.16668"
   version="1.1"
   id="svg8"
   sodipodi:docname="river_001.svg"
   inkscape:version="0.92.4 (unknown)"
   inkscape:export-filename="/home/student.unimelb.edu.au/jparil/river.png"
   inkscape:export-xdpi="90"
   inkscape:export-ydpi="90">
  <defs
     id="defs2">
    <clipPath
       clipPathUnits="userSpaceOnUse"
       id="clipPath821">
      <circle
         r="264.58337"
         cy="32.416653"
         cx="264.58337"
         id="circle823"
         style="opacity:1;fill:#ffb5b5;fill-opacity:1;fill-rule:nonzero;stroke:none;stroke-width:0.3671532;stroke-miterlimit:4;stroke-dasharray:none;stroke-dashoffset:0;stroke-opacity:1" />
    </clipPath>
    <clipPath
       clipPathUnits="userSpaceOnUse"
       id="clipPath1037">
      <rect
         y="30.238077"
         x="442.98813"
         height="294.82144"
         width="63.5"
         id="rect1039"
         style="opacity:1;fill:#fffac9;fill-opacity:1;fill-rule:nonzero;stroke:none;stroke-width:5;stroke-miterlimit:4;stroke-dasharray:none;stroke-dashoffset:0;stroke-opacity:1" />
    </clipPath>
    <clipPath
       clipPathUnits="userSpaceOnUse"
       id="clipPath1139">
      <rect
         style="opacity:1;fill:#fffac9;fill-opacity:1;fill-rule:nonzero;stroke:none;stroke-width:3.53553391;stroke-miterlimit:4;stroke-dasharray:none;stroke-dashoffset:0;stroke-opacity:1"
         id="rect1141"
         width="31.75"
         height="294.82144"
         x="604.53113"
         y="16.630957" />
    </clipPath>
    <clipPath
       clipPathUnits="userSpaceOnUse"
       id="clipPath1143">
      <rect
         style="opacity:1;fill:#fffac9;fill-opacity:1;fill-rule:nonzero;stroke:none;stroke-width:2.18217897;stroke-miterlimit:4;stroke-dasharray:none;stroke-dashoffset:0;stroke-opacity:1"
         id="rect1145"
         width="12.095238"
         height="294.82144"
         x="643.38739"
         y="37.797626" />
    </clipPath>
    <clipPath
       clipPathUnits="userSpaceOnUse"
       id="clipPath1147">
      <rect
         style="opacity:1;fill:#fffac9;fill-opacity:1;fill-rule:nonzero;stroke:none;stroke-width:2.18217897;stroke-miterlimit:4;stroke-dasharray:none;stroke-dashoffset:0;stroke-opacity:1"
         id="rect1149"
         width="12.095238"
         height="294.82144"
         x="584.8006"
         y="37.797626" />
    </clipPath>
    <clipPath
       clipPathUnits="userSpaceOnUse"
       id="clipPath1166">
      <rect
         style="opacity:1;fill:#fffac9;fill-opacity:1;fill-rule:nonzero;stroke:none;stroke-width:5;stroke-miterlimit:4;stroke-dasharray:none;stroke-dashoffset:0;stroke-opacity:1"
         id="rect1168"
         width="198.05951"
         height="61.988094"
         x="-353.78568"
         y="-169.33333" />
    </clipPath>
    <clipPath
       clipPathUnits="userSpaceOnUse"
       id="clipPath1194">
      <rect
         style="opacity:1;fill:#fffac9;fill-opacity:1;fill-rule:nonzero;stroke:none;stroke-width:4.10997486;stroke-miterlimit:4;stroke-dasharray:none;stroke-dashoffset:0;stroke-opacity:1"
         id="rect1196"
         width="264.58337"
         height="27.214285"
         x="-401.83466"
         y="-14.817155" />
    </clipPath>
    <clipPath
       clipPathUnits="userSpaceOnUse"
       id="clipPath1344">
      <rect
         y="-41.805096"
         x="-401.83469"
         height="9.0714273"
         width="264.58337"
         id="rect1346"
         style="opacity:1;fill:#fffac9;fill-opacity:1;fill-rule:nonzero;stroke:none;stroke-width:2.372895;stroke-miterlimit:4;stroke-dasharray:none;stroke-dashoffset:0;stroke-opacity:1" />
    </clipPath>
    <clipPath
       clipPathUnits="userSpaceOnUse"
       id="clipPath1348">
      <rect
         y="-41.805096"
         x="-401.83469"
         height="9.0714273"
         width="264.58337"
         id="rect1350"
         style="opacity:1;fill:#fffac9;fill-opacity:1;fill-rule:nonzero;stroke:none;stroke-width:2.372895;stroke-miterlimit:4;stroke-dasharray:none;stroke-dashoffset:0;stroke-opacity:1" />
    </clipPath>
    <clipPath
       clipPathUnits="userSpaceOnUse"
       id="clipPath1408">
      <rect
         y="42.105625"
         x="-612.32141"
         height="9.0714273"
         width="264.58337"
         id="rect1410"
         style="opacity:1;fill:#fffac9;fill-opacity:1;fill-rule:nonzero;stroke:none;stroke-width:2.372895;stroke-miterlimit:4;stroke-dasharray:none;stroke-dashoffset:0;stroke-opacity:1" />
    </clipPath>
    <clipPath
       clipPathUnits="userSpaceOnUse"
       id="clipPath1412">
      <rect
         y="42.105625"
         x="-612.32141"
         height="9.0714273"
         width="264.58337"
         id="rect1414"
         style="opacity:1;fill:#fffac9;fill-opacity:1;fill-rule:nonzero;stroke:none;stroke-width:2.372895;stroke-miterlimit:4;stroke-dasharray:none;stroke-dashoffset:0;stroke-opacity:1" />
    </clipPath>
    <clipPath
       clipPathUnits="userSpaceOnUse"
       id="clipPath1416">
      <rect
         y="42.105625"
         x="-612.32141"
         height="9.0714273"
         width="264.58337"
         id="rect1418"
         style="opacity:1;fill:#fffac9;fill-opacity:1;fill-rule:nonzero;stroke:none;stroke-width:2.372895;stroke-miterlimit:4;stroke-dasharray:none;stroke-dashoffset:0;stroke-opacity:1" />
    </clipPath>
    <clipPath
       clipPathUnits="userSpaceOnUse"
       id="clipPath1420">
      <rect
         y="42.105625"
         x="-612.32141"
         height="9.0714273"
         width="264.58337"
         id="rect1422"
         style="opacity:1;fill:#fffac9;fill-opacity:1;fill-rule:nonzero;stroke:none;stroke-width:2.372895;stroke-miterlimit:4;stroke-dasharray:none;stroke-dashoffset:0;stroke-opacity:1" />
    </clipPath>
    <clipPath
       clipPathUnits="userSpaceOnUse"
       id="clipPath1424">
      <rect
         y="521.38031"
         x="-627.44043"
         height="9.0714273"
         width="264.58337"
         id="rect1426"
         style="opacity:1;fill:#fffac9;fill-opacity:1;fill-rule:nonzero;stroke:none;stroke-width:2.372895;stroke-miterlimit:4;stroke-dasharray:none;stroke-dashoffset:0;stroke-opacity:1" />
    </clipPath>
    <clipPath
       clipPathUnits="userSpaceOnUse"
       id="clipPath1428">
      <rect
         y="521.38031"
         x="-627.44043"
         height="9.0714273"
         width="264.58337"
         id="rect1430"
         style="opacity:1;fill:#fffac9;fill-opacity:1;fill-rule:nonzero;stroke:none;stroke-width:2.372895;stroke-miterlimit:4;stroke-dasharray:none;stroke-dashoffset:0;stroke-opacity:1" />
    </clipPath>
    <clipPath
       clipPathUnits="userSpaceOnUse"
       id="clipPath1432">
      <rect
         y="521.38031"
         x="-627.44043"
         height="9.0714273"
         width="264.58337"
         id="rect1434"
         style="opacity:1;fill:#fffac9;fill-opacity:1;fill-rule:nonzero;stroke:none;stroke-width:2.372895;stroke-miterlimit:4;stroke-dasharray:none;stroke-dashoffset:0;stroke-opacity:1" />
    </clipPath>
    <clipPath
       clipPathUnits="userSpaceOnUse"
       id="clipPath1436">
      <rect
         y="521.38031"
         x="-627.44043"
         height="9.0714273"
         width="264.58337"
         id="rect1438"
         style="opacity:1;fill:#fffac9;fill-opacity:1;fill-rule:nonzero;stroke:none;stroke-width:2.372895;stroke-miterlimit:4;stroke-dasharray:none;stroke-dashoffset:0;stroke-opacity:1" />
    </clipPath>
    <clipPath
       clipPathUnits="userSpaceOnUse"
       id="clipPath821-2">
      <circle
         r="264.58337"
         cy="32.416653"
         cx="264.58337"
         id="circle823-9"
         style="opacity:1;fill:#ffb5b5;fill-opacity:1;fill-rule:nonzero;stroke:none;stroke-width:0.3671532;stroke-miterlimit:4;stroke-dasharray:none;stroke-dashoffset:0;stroke-opacity:1" />
    </clipPath>
    <clipPath
       clipPathUnits="userSpaceOnUse"
       id="clipPath1608">
      <rect
         transform="translate(0,232.16668)"
         clip-path="url(#clipPath821-2)"
         y="32.416645"
         x="-1.0172526e-05"
         height="264.58334"
         width="529.16669"
         id="rect1610"
         style="display:inline;opacity:1;fill:#92e38a;fill-opacity:0.51072962;fill-rule:nonzero;stroke:none;stroke-width:0.26458332;stroke-miterlimit:4;stroke-dasharray:none;stroke-dashoffset:0;stroke-opacity:1" />
    </clipPath>
  </defs>
  <sodipodi:namedview
     id="base"
     pagecolor="#ffffff"
     bordercolor="#666666"
     borderopacity="1.0"
     inkscape:pageopacity="0.0"
     inkscape:pageshadow="2"
     inkscape:zoom="0.12374369"
     inkscape:cx="44.433794"
     inkscape:cy="2349.694"
     inkscape:document-units="mm"
     inkscape:current-layer="layer3"
     showgrid="false"
     inkscape:pagecheckerboard="true"
     units="px"
     inkscape:window-width="1920"
     inkscape:window-height="1043"
     inkscape:window-x="0"
     inkscape:window-y="0"
     inkscape:window-maximized="1" />
  <metadata
     id="metadata5">
    <rdf:RDF>
      <cc:Work
         rdf:about="">
        <dc:format>image/svg+xml</dc:format>
        <dc:type
           rdf:resource="http://purl.org/dc/dcmitype/StillImage" />
        <dc:title />
      </cc:Work>
    </rdf:RDF>
  </metadata>
  <g
     inkscape:label="base"
     inkscape:groupmode="layer"
     id="layer1"
     transform="translate(0,232.16668)"
     style="display:inline">
    <circle
       style="opacity:1;fill:#a0d1ff;fill-opacity:1;fill-rule:nonzero;stroke:none;stroke-width:0.3671532;stroke-miterlimit:4;stroke-dasharray:none;stroke-dashoffset:0;stroke-opacity:1"
       id="path815"
       cx="264.58334"
       cy="32.416653"
       r="264.58334" />
    <rect
       style="opacity:1;fill:#bfffb2;fill-opacity:1;fill-rule:nonzero;stroke:none;stroke-width:0.26458332;stroke-miterlimit:4;stroke-dasharray:none;stroke-dashoffset:0;stroke-opacity:1"
       id="rect817"
       width="529.16669"
       height="264.58334"
       x="-1.0172526e-05"
       y="32.416645"
       clip-path="url(#clipPath821)" />
  </g>
  <g
     inkscape:groupmode="layer"
     id="layer3"
     inkscape:label="river"
     style="display:inline">
    <path
       style="fill:#4bc5ff;fill-opacity:1;fill-rule:evenodd;stroke:none;stroke-width:0.26458332px;stroke-linecap:butt;stroke-linejoin:miter;stroke-opacity:1"
       d="m 179.23382,514.27371 c 3.06374,-6.65494 22.6776,-34.33145 17.7137,-37.49188 -22.22442,-16.28724 -74.59211,-6.99513 -63.31276,-32.07234 13.17814,-35.76373 62.14217,-50.4436 87.66441,-71.62824 11.9261,-9.40697 16.06378,-13.93411 19.2434,-26.72696 1.07177,-3.4056 1.77911,-13.00848 -0.8208,-15.09679 -25.69669,-8.10935 -49.0693,-2.05344 -73.69041,-7.28899 -8.12688,-0.69292 -12.56455,-9.16598 -8.99545,-13.27177 8.56034,-6.62437 15.77866,-10.19381 25.77645,-14.5891 28.21531,-11.71374 52.28113,-22.25394 80.18086,-32.07235 -32.24092,20.23173 -74.57958,29.80021 -75.28943,44.27503 2.10875,4.7967 17.86763,2.7644 22.9046,2.7644 48.79935,-1.07612 109.7654,-9.84094 152.87817,6.41448 5.20328,3.10032 9.27434,9.85819 7.34993,16.16979 -6.7606,22.52401 -26.76845,36.09833 -26.59334,53.32027 -0.11419,6.03163 8.13765,10.23858 10.69078,13.89803 3.21992,4.23828 10.47532,7.8218 12.82893,8.55263 8.92163,3.56412 16.74168,5.34538 27.79604,5.34538 31.95449,-6.45196 49.0828,0.15581 78.40495,11.73626 0.0534,-0.47841 -6.19226,7.91864 -17.8848,20.72135 -7.36039,8.05923 -18.36413,17.96387 -31.61408,28.13809 -21.87059,16.79374 -48.25553,30.45364 -67.8158,37.56432 -20.80591,7.5635 -45.76612,13.73653 -74.77039,15.74646 -15.95253,1.10547 -35.29178,0.58825 -52.96964,-1.86861 -26.99362,-3.75157 -49.94099,-10.68257 -49.67532,-12.53946 z"
       id="path956"
       inkscape:connector-curvature="0"
       sodipodi:nodetypes="cccccccccccccccccccsssssc" />
  </g>
  <g
     inkscape:groupmode="layer"
     id="layer2"
     inkscape:label="clouds">
    <path
       style="fill:#ffffff;fill-opacity:1;fill-rule:evenodd;stroke:none;stroke-width:0.2798788px;stroke-linecap:butt;stroke-linejoin:miter;stroke-opacity:1"
       d="m 101.76234,224.89393 c 0,0 -6.793957,12.65449 -1.848787,16.94779 7.560797,6.56414 25.926517,7.4163 34.664747,1.72937 6.41072,-4.17216 1.84879,-19.02304 1.84879,-19.02304 0,0 10.18485,1.97574 13.40371,-0.34586 4.67088,-3.36889 5.49036,-10.7669 1.38659,-14.52669 -4.52116,-4.1422 -21.26105,-2.07524 -21.26105,-2.07524 0,0 8.2704,-18.82317 0.4622,-24.557 -10.01216,-7.35226 -31.263917,-5.66479 -42.059897,1.03762 -7.652317,4.75073 -6.470767,21.79001 -6.470767,21.79001 0,0 -12.982166,-4.24035 -18.025669,-1.72936 -7.717594,3.84231 -13.010973,14.54192 -7.395146,20.06066 4.386901,4.31105 21.723239,0 21.723239,0 0,0 -5.649001,9.94382 -1.38658,12.79731 4.21106,2.81912 13.045233,0.84156 16.639083,-2.42111 2.74384,-2.49099 0,-9.68446 0,-9.68446 z"
       id="path969"
       inkscape:connector-curvature="0"
       sodipodi:nodetypes="csscsscaacsscsscc" />
    <path
       style="fill:#ffffff;fill-opacity:1;fill-rule:evenodd;stroke:none;stroke-width:0.31234002px;stroke-linecap:butt;stroke-linejoin:miter;stroke-opacity:1"
       d="m 226.50453,144.2197 c 0,0 -13.94551,-53.490276 1.82063,-68.893016 20.69221,-20.2153 64.55935,-15.624 83.44607,6.56123 13.35782,15.69075 9.2631,63.972076 9.2631,63.972076 l 0.13087,-0.98418 c 0,0 2.16625,-16.25002 7.90209,-20.01176 6.76531,-4.43693 17.61761,-3.54444 23.66835,1.96836 5.1051,4.65123 4.89821,20.99597 4.89821,20.99597 l 5.5839,1.31224 c 0,0 2.6588,-10.13581 6.51055,-12.46634 4.85777,-2.93924 12.739,-3.58444 16.68923,0.65611 3.30479,3.54763 0.60688,15.09084 0.60688,15.09084 0,0 11.59593,-3.86624 15.17201,0 3.29,3.55696 0,15.09085 0,15.09085 -0.0207,0.15617 69.9399,-4.78366 93.76307,3.6087 3.94299,1.38903 4.10935,12.84747 0,13.45053 -22.20319,3.25844 -66.30326,-1.83314 -99.52844,-1.31226 -33.67834,0.52802 -67.38491,1.29072 -101.04563,0 -35.67091,-1.36775 -81.60665,19.12284 -106.81098,-8.20155 -4.61648,-5.00478 -4.23059,-14.8177 -1.33577,-21.15516 3.37182,-7.38165 11.58465,-11.98278 19.04311,-13.64271 6.70989,-1.49331 20.2227,3.96007 20.2227,3.96007 z"
       id="path971"
       inkscape:connector-curvature="0"
       sodipodi:nodetypes="cssccaaccaacacssssaaac" />
    <path
       sodipodi:nodetypes="cssccaaccaacacssssaaac"
       inkscape:connector-curvature="0"
       id="path973"
       d="m 315.76037,231.53333 c 0,0 -6.20377,-19.69879 0.80992,-25.37113 9.20509,-7.44467 28.71972,-5.75383 37.12162,2.41629 5.94233,5.77841 4.12076,23.55891 4.12076,23.55891 l 0.0582,-0.36244 c 0,0 0.96367,-5.98437 3.5153,-7.3697 3.0096,-1.63399 7.83733,-1.30531 10.52905,0.72488 2.27104,1.7129 2.17901,7.73216 2.17901,7.73216 l 2.48404,0.48325 c 0,0 1.18278,-3.7327 2.89626,-4.59096 2.16102,-1.08243 5.66704,-1.32003 7.42433,0.24163 1.47017,1.30648 0.26998,5.55748 0.26998,5.55748 0,0 5.15854,-1.42381 6.74938,0 1.46359,1.30992 0,5.55749 0,5.55749 -0.009,0.0575 31.1133,-1.76167 41.71122,1.32897 1.75407,0.51153 1.82807,4.73132 0,4.95341 -9.87726,1.19998 -29.49551,-0.67509 -44.27599,-0.48327 -14.98206,0.19446 -29.97668,0.47533 -44.95091,0 -15.86848,-0.5037 -36.30334,7.04235 -47.51568,-3.02037 -2.05367,-1.8431 -1.88201,-5.4569 -0.59423,-7.79078 1.49998,-2.71843 5.15352,-4.41289 8.47148,-5.02419 2.98494,-0.54993 8.99622,1.45837 8.99622,1.45837 z"
       style="fill:#ffffff;fill-opacity:1;fill-rule:evenodd;stroke:none;stroke-width:0.12642138px;stroke-linecap:butt;stroke-linejoin:miter;stroke-opacity:1" />
  </g>
</svg>
