<?xml version="1.0" encoding="UTF-8" standalone="no"?>
<!-- Created with Inkscape (http://www.inkscape.org/) -->

<!-- Created by jefParil -->

<!-- <a rel="license" href="http://creativecommons.org/licenses/by-nc/4.0/"><img alt="Creative Commons License" style="border-width:0" src="https://i.creativecommons.org/l/by-nc/4.0/88x31.png" /></a><br />This work is licensed under a <a rel="license" href="http://creativecommons.org/licenses/by-nc/4.0/">Creative Commons Attribution-NonCommercial 4.0 International License</a>. -->

<svg
   width="2000"
   height="2000"
   viewBox="0 0 529.16665 529.16668"
   version="1.1"
   id="svg840"
   inkscape:version="1.2.1 (9c6d41e410, 2022-07-14)"
   sodipodi:docname="scissors_001.svg"
   inkscape:export-filename="/home/student.unimelb.edu.au/jparil/banana.png"
   inkscape:export-xdpi="90"
   inkscape:export-ydpi="90"
   xmlns:inkscape="http://www.inkscape.org/namespaces/inkscape"
   xmlns:sodipodi="http://sodipodi.sourceforge.net/DTD/sodipodi-0.dtd"
   xmlns="http://www.w3.org/2000/svg"
   xmlns:svg="http://www.w3.org/2000/svg"
   xmlns:rdf="http://www.w3.org/1999/02/22-rdf-syntax-ns#"
   xmlns:cc="http://creativecommons.org/ns#"
   xmlns:dc="http://purl.org/dc/elements/1.1/">
  <defs
     id="defs834" />
  <sodipodi:namedview
     id="base"
     pagecolor="#ffffff"
     bordercolor="#666666"
     borderopacity="1.0"
     inkscape:pageopacity="0.0"
     inkscape:pageshadow="2"
     inkscape:zoom="0.32009702"
     inkscape:cx="1560.4644"
     inkscape:cy="1641.6898"
     inkscape:document-units="mm"
     inkscape:current-layer="layer1"
     showgrid="true"
     units="px"
     inkscape:pagecheckerboard="true"
     inkscape:snap-global="false"
     inkscape:window-width="1920"
     inkscape:window-height="1052"
     inkscape:window-x="0"
     inkscape:window-y="0"
     inkscape:window-maximized="1"
     inkscape:showpageshadow="2"
     inkscape:deskcolor="#d1d1d1">
    <inkscape:grid
       type="xygrid"
       id="grid1396" />
  </sodipodi:namedview>
  <metadata
     id="metadata837">
    <rdf:RDF>
      <cc:Work
         rdf:about="">
        <dc:format>image/svg+xml</dc:format>
        <dc:type
           rdf:resource="http://purl.org/dc/dcmitype/StillImage" />
        <dc:title />
      </cc:Work>
    </rdf:RDF>
  </metadata>
  <g
     inkscape:label="Layer 1"
     inkscape:groupmode="layer"
     id="layer1"
     transform="translate(0,232.16668)">
    <g
       id="g3601"
       transform="matrix(2.2755423,0,0,2.2755423,-122.19991,179.77083)">
      <path
         id="path3584"
         style="fill:#ffa9b0;fill-opacity:1;stroke:#000000;stroke-width:1.32292;stroke-linecap:butt;stroke-linejoin:miter;stroke-dasharray:none;stroke-opacity:1"
         d="m 93.974113,-94.808137 c -17.05209,-0.0461 -29.90867,4.27028 -35.76578,10.80813 0,10.58332 7.93751,22.489577 15.875,26.458327 20.894894,-0.60002 42.516817,-6.515785 63.499997,-5.291667 l 37.04167,-10.58333 v -5.29167 c -7.95167,0.0399 -16.56492,0.62355 -23.8125,-2.64583 -21.09866,-9.51759 -40.81976,-13.41065 -56.838387,-13.45396 z m -4.59404,6.37119 c 0.63493,-10e-4 1.27548,0.002 1.92133,0.01 0.64585,0.008 1.29698,0.0195 1.95234,0.0357 0.65535,0.0162 1.31524,0.0366 1.97869,0.061 0.66344,0.0244 1.33028,0.0529 2.00039,0.0853 0.67012,0.0324 1.34311,0.069 2.01848,0.10903 0.67537,0.0401 1.353227,0.0838 2.032437,0.13126 0.67921,0.0474 1.3601,0.0984 2.04174,0.15296 0.68163,0.0546 1.36425,0.11274 2.0469,0.17415 0.68264,0.0614 1.36518,0.12633 2.04742,0.19431 0.68224,0.068 1.36391,0.13916 2.04432,0.21342 0.68041,0.0743 1.35939,0.15125 2.03657,0.23151 0.67717,0.0803 1.35268,0.16361 2.0252,0.2496 0.67251,0.086 1.34221,0.1747 2.00866,0.26613 0.66645,0.0914 1.32955,0.18556 1.98851,0.28216 0.65896,0.0966 1.31365,0.19565 1.9637,0.29713 0.65006,0.10149 1.29555,0.20553 1.93529,0.31161 0.63973,0.10609 1.27369,0.21411 1.90169,0.32453 0.628,0.11042 1.25016,0.22298 1.865,0.33745 0.61485,0.11446 1.22235,0.23109 1.82263,0.34933 0.60028,0.11824 1.19286,0.23794 1.77715,0.35967 0.58429,0.12173 1.16065,0.24558 1.72754,0.37052 0.5669,0.12494 1.1247,0.25091 1.67277,0.37879 0.54808,0.12787 1.08601,0.25756 1.61386,0.38809 0.52784,0.13052 1.04564,0.2619 1.55184,0.39481 0.50619,0.1329 1.00102,0.26704 1.48415,0.40204 0.48313,0.135 0.95418,0.27091 1.41283,0.40773 0.45865,0.13681 0.90515,0.27454 1.3379,0.41289 0.43275,0.13835 0.85185,0.27742 1.25729,0.41703 0.40544,0.13961 0.79686,0.28006 1.17357,0.42064 0.37671,0.14059 0.73864,0.28143 1.08521,0.42272 0.34656,0.14129 0.6777,0.28307 0.9927,0.42478 0.31501,0.14171 0.61404,0.28344 0.89607,0.4253 0.28203,0.14185 0.54715,0.28358 0.79478,0.42529 0.12382,0.0709 0.24317,0.14162 0.35812,0.21239 0.11496,0.0708 0.22585,0.14174 0.33176,0.21239 0.10592,0.0707 0.20717,0.14087 0.30386,0.21136 0.0967,0.0705 0.18865,0.14105 0.27595,0.21136 0.0873,0.0703 0.16981,0.14076 0.24753,0.21084 0.0777,0.0701 0.15062,0.13999 0.2186,0.2098 0.068,0.0698 0.13108,0.13926 0.18913,0.20877 0.0581,0.0695 0.11121,0.13907 0.15916,0.20826 0.048,0.0692 0.0905,0.13788 0.12816,0.20671 0.0377,0.0688 0.0705,0.13776 0.0977,0.20619 0.0272,0.0684 0.049,0.13665 0.0656,0.20463 0.0166,0.068 0.0278,0.13558 0.0336,0.20309 0.006,0.0675 0.006,0.13505 10e-4,0.20206 -0.005,0.067 -0.0162,0.13351 -0.0326,0.19999 0.0159,0.0122 0.0301,0.0268 0.0424,0.0439 0.0122,0.0171 0.0224,0.0365 0.031,0.0584 0.009,0.0219 0.0152,0.0464 0.0202,0.0729 0.005,0.0265 0.008,0.0549 0.009,0.0858 0.003,0.0618 -0.002,0.13203 -0.0134,0.21032 -0.0117,0.0783 -0.0301,0.16447 -0.0558,0.25787 -0.0257,0.0934 -0.0586,0.19422 -0.0982,0.30127 -0.0396,0.10706 -0.0862,0.22076 -0.13953,0.34003 -0.0533,0.11928 -0.11358,0.2441 -0.18035,0.37414 -0.0668,0.13005 -0.1401,0.26525 -0.22014,0.40463 -0.08,0.13937 -0.16682,0.2832 -0.25993,0.43046 -0.0931,0.14726 -0.19272,0.29795 -0.29869,0.45165 -0.10597,0.15371 -0.21829,0.31001 -0.33693,0.46871 -0.11864,0.1587 -0.24356,0.31989 -0.37465,0.48214 -0.1311,0.16226 -0.268,0.32553 -0.41135,0.48989 -0.14335,0.16437 -0.29315,0.32951 -0.44855,0.49455 -0.1554,0.16503 -0.31645,0.33028 -0.48369,0.49454 -0.16725,0.16426 -0.34046,0.32785 -0.51935,0.48989 -9.17346,1.72716 -16.256,2.235916 -24.4967,2.48311 -0.53972,-0.014 -1.08452,-0.0244 -1.63349,-0.031 -0.54897,-0.007 -1.10219,-0.01 -1.65984,-0.009 -0.55766,3.9e-4 -1.11992,0.004 -1.68569,0.0109 -0.56577,0.007 -1.13509,0.0172 -1.70842,0.03 -0.57333,0.0128 -1.15032,0.0283 -1.73065,0.0465 -0.58032,0.0182 -1.16404,0.0389 -1.75079,0.062 -1.17352,0.0463 -2.35947,0.10188 -3.55534,0.16485 -1.19587,0.063 -2.40156,0.13372 -3.61529,0.20929 -1.21372,0.0756 -2.43523,0.1562 -3.662307,0.24029 -2.45415,0.16819 -4.93086,0.34919 -7.41143,0.5271 -1.24029,0.089 -2.4816,0.17724 -3.72174,0.26252 -1.24014,0.0853 -2.47901,0.16792 -3.7145,0.24546 -1.2355,0.0775 -2.46748,0.14975 -3.69383,0.21549 -1.22635,0.0657 -2.44702,0.1248 -3.65973,0.17467 -0.0765,0.003 -0.15289,0.004 -0.22892,0.002 -0.076,-0.002 -0.15177,-0.007 -0.22738,-0.0139 -0.0756,-0.007 -0.15115,-0.0173 -0.22634,-0.0295 -0.0752,-0.0122 -0.15001,-0.0269 -0.22479,-0.0439 -0.0748,-0.017 -0.14938,-0.0362 -0.22376,-0.0579 -0.0744,-0.0217 -0.14873,-0.0461 -0.22272,-0.0724 -0.14799,-0.0525 -0.29483,-0.11364 -0.44132,-0.18345 -0.14649,-0.0698 -0.29263,-0.14815 -0.4377,-0.23409 -0.14507,-0.0859 -0.28933,-0.17969 -0.43305,-0.28061 -0.14372,-0.10092 -0.28646,-0.20926 -0.42891,-0.32401 -0.14246,-0.11474 -0.28455,-0.23587 -0.42582,-0.36328 -0.14126,-0.12742 -0.28204,-0.26106 -0.42219,-0.39998 -0.14016,-0.13892 -0.27947,-0.28326 -0.41858,-0.43253 -0.13912,-0.14928 -0.27784,-0.30351 -0.416,-0.46199 -0.13815,-0.15847 -0.27614,-0.32079 -0.41341,-0.48731 -0.13727,-0.16651 -0.27384,-0.33716 -0.41031,-0.51056 -0.13647,-0.1734 -0.2725,-0.35003 -0.40824,-0.52917 -0.27149,-0.35826 -0.54178,-0.72645 -0.81081,-1.10071 -0.26903,-0.37425 -0.53689,-0.75434 -0.80408,-1.13533 -0.2672,-0.38099 -0.53346,-0.76305 -0.79944,-1.14153 -0.26598,-0.37848 -0.53199,-0.75362 -0.79736,-1.12034 -0.26538,-0.36673 -0.53043,-0.72502 -0.79582,-1.07074 -0.1327,-0.17286 -0.26561,-0.34262 -0.39843,-0.5085 -0.13281,-0.16587 -0.26541,-0.32802 -0.39842,-0.48575 -0.13302,-0.15773 -0.26617,-0.31097 -0.39946,-0.45941 -0.13329,-0.14843 -0.26685,-0.29197 -0.40049,-0.42995 -0.13364,-0.13797 -0.26746,-0.2705 -0.40153,-0.39687 -0.13407,-0.12637 -0.2685,-0.24658 -0.40308,-0.36019 -0.13457,-0.1136 -0.26947,-0.22071 -0.40462,-0.32039 -0.13516,-0.0997 -0.27037,-0.19186 -0.40618,-0.27647 -0.026,-0.14795 -0.0463,-0.29415 -0.061,-0.43821 -0.0147,-0.14407 -0.0238,-0.28613 -0.0274,-0.42633 -0.004,-0.14021 -10e-4,-0.27858 0.006,-0.41497 0.007,-0.13639 0.02,-0.27047 0.0382,-0.40307 0.0182,-0.13261 0.042,-0.26338 0.0708,-0.39223 0.0288,-0.12885 0.0626,-0.25623 0.1018,-0.38137 0.0392,-0.12513 0.0838,-0.24803 0.13333,-0.36949 0.0495,-0.12145 0.10424,-0.24134 0.16381,-0.35915 0.0596,-0.1178 0.1238,-0.23358 0.19327,-0.34778 0.0695,-0.1142 0.14405,-0.22683 0.22325,-0.33745 0.0792,-0.11062 0.16292,-0.21951 0.25166,-0.32659 0.0887,-0.10708 0.1825,-0.21217 0.2806,-0.31574 0.0981,-0.10358 0.2007,-0.20531 0.30799,-0.30541 0.1073,-0.1001 0.21907,-0.19841 0.33538,-0.29507 0.11631,-0.0967 0.23711,-0.192 0.36226,-0.28526 0.12514,-0.0933 0.2548,-0.18451 0.3886,-0.2744 0.13381,-0.0899 0.27216,-0.17802 0.41445,-0.26458 0.14229,-0.0866 0.28865,-0.1715 0.43925,-0.25477 0.15059,-0.0833 0.30533,-0.16494 0.46405,-0.24494 0.15873,-0.08 0.32115,-0.15836 0.48783,-0.23513 0.16667,-0.0768 0.33766,-0.15225 0.51211,-0.22583 0.17445,-0.0736 0.3528,-0.14558 0.53485,-0.21601 0.18205,-0.0704 0.3676,-0.13889 0.55707,-0.20618 0.18947,-0.0673 0.38258,-0.1332 0.5793,-0.19741 0.19671,-0.0642 0.39721,-0.12694 0.60099,-0.1881 0.20378,-0.0612 0.411,-0.12066 0.62167,-0.1788 0.21067,-0.0581 0.42444,-0.11486 0.64182,-0.17002 0.21739,-0.0551 0.43806,-0.10902 0.66198,-0.16123 0.44784,-0.10441 0.9089,-0.20276 1.38183,-0.29559 0.47292,-0.0928 0.9581,-0.17995 1.45469,-0.26148 0.49658,-0.0815 1.00458,-0.15739 1.52341,-0.22789 0.51884,-0.0705 1.04835,-0.13559 1.58802,-0.19534 0.53967,-0.0597 1.08939,-0.11453 1.64848,-0.16381 0.55908,-0.0493 1.12772,-0.0932 1.70481,-0.1323 0.57708,-0.0391 1.16281,-0.0731 1.75648,-0.10231 0.59367,-0.0292 1.19518,-0.0533 1.80402,-0.0729 0.60884,-0.0196 1.22484,-0.0348 1.84743,-0.045 0.6226,-0.0102 1.25178,-0.0154 1.88671,-0.0165 z"
         sodipodi:nodetypes="scccccsscsssscccssccsssssssssssssssssssssssssssscscsscscccsccsssssssssssscccccsscssscscccscssscssssssssssssssssssssssscscsssssssssssscscssssssscccsssscssssscc" />
      <path
         id="path3587"
         style="fill:#ffa9b0;fill-opacity:1;stroke:#000000;stroke-width:1.32292;stroke-linecap:butt;stroke-linejoin:miter;stroke-dasharray:none;stroke-opacity:1"
         d="m 174.22037,-62.19876 c -9.26586,9.338614 -22.91104,21.52262 -27.79727,28.015861 -11.95537,5.816319 -36.91563,5.663135 -38.98211,22.478214 3.68301,11.36623041 19.15454,14.9132438 26.17359,13.694255 14.55209,-3.96875 19.05071,-12.975283 19.84375,-17.197917 z m -25.94105,33.889404 c 0.0386,0.03203 0.0764,0.06524 0.11369,0.100252 0.0373,0.03501 0.0741,0.07162 0.11007,0.109555 0.036,0.03794 0.0713,0.07754 0.10594,0.118339 0.0346,0.0408 0.0685,0.083 0.1018,0.126607 0.0666,0.08722 0.13049,0.179953 0.19172,0.278019 0.0612,0.09807 0.11992,0.20163 0.1757,0.310059 0.0558,0.108428 0.10891,0.221727 0.15916,0.340031 0.0503,0.118303 0.0974,0.241278 0.14211,0.368969 0.0447,0.127691 0.0866,0.260284 0.12558,0.396875 0.039,0.136592 0.0753,0.277193 0.10852,0.422197 0.0333,0.145004 0.0635,0.294072 0.0909,0.447001 0.0275,0.152929 0.0523,0.309888 0.0739,0.470255 0.0216,0.160368 0.0402,0.324126 0.0558,0.491443 0.0156,0.167318 0.0281,0.338333 0.0377,0.512114 0.01,0.17378 0.0161,0.350444 0.0196,0.5302 0.004,0.179756 0.004,0.362527 10e-4,0.54777 -0.003,0.185244 -0.008,0.373029 -0.0171,0.563273 -0.009,0.190244 -0.021,0.382986 -0.0362,0.577743 -0.0152,0.194757 -0.0337,0.391362 -0.0553,0.590145 -0.0216,0.198782 -0.0464,0.39971 -0.0744,0.60203 -0.028,0.20232 -0.059,0.405961 -0.0935,0.611332 -0.0345,0.205371 -0.0725,0.412183 -0.11369,0.620117 -0.0411,0.207934 -0.0855,0.417343 -0.13332,0.627352 -0.0478,0.21001 -0.0989,0.420922 -0.15348,0.63252 -0.0546,0.211598 -0.11228,0.423955 -0.17363,0.636653 -0.0614,0.212699 -0.12659,0.42541 -0.19482,0.638721 -0.0682,0.213312 -0.1398,0.426834 -0.21498,0.640271 -0.0752,0.213437 -0.15396,0.427196 -0.23616,0.640271 -0.0822,0.213076 -0.16753,0.425461 -0.25683,0.637687 -0.0893,0.212227 -0.18259,0.424214 -0.27905,0.635104 -0.0965,0.210889 -0.19655,0.42087 -0.30024,0.629935 -0.1037,0.209066 -0.21094,0.416981 -0.32195,0.623735 -0.11101,0.206754 -0.22578,0.412545 -0.34416,0.6165 -0.11839,0.203954 -0.24004,0.406013 -0.36587,0.606681 -0.12584,0.200668 -0.25577,0.399969 -0.38913,0.596863 -0.13336,0.196894 -0.27039,0.391311 -0.41134,0.583944 -0.14095,0.192632 -0.28546,0.383141 -0.43408,0.5710241 -0.14862,0.1878834 -0.3015,0.3733915 -0.45786,0.5560384 -0.15635,0.1826469 -0.31642,0.3625791 -0.48059,0.539502 -0.16416,0.1769229 -0.33232,0.3507037 -0.50436,0.5214152 -0.17204,0.1707115 -0.34814,0.3382823 -0.52813,0.5022949 -0.09,0.082006 -0.18086,0.1631558 -0.27285,0.243396 -0.092,0.08024 -0.18505,0.1598153 -0.27906,0.2382284 -0.094,0.078413 -0.18871,0.155502 -0.28473,0.2320272 -0.096,0.076525 -0.1934,0.1522833 -0.29146,0.2268595 -0.0981,0.074576 -0.19705,0.148092 -0.29714,0.2206584 -0.10009,0.072566 -0.2012,0.1439616 -0.30334,0.2144571 -0.10214,0.070496 -0.20535,0.1398923 -0.30954,0.2082561 -0.10419,0.068364 -0.20949,0.1358837 -0.31574,0.2020548 -0.10626,0.066171 -0.21362,0.1314194 -0.32195,0.1953369 -0.10833,0.063918 -0.21722,0.1264992 -0.32763,0.1881022 -0.11041,0.061603 -0.22236,0.1221568 -0.33486,0.1813843 -0.1125,0.059228 -0.22595,0.1173585 -0.34055,0.1741496 -0.1146,0.056791 -0.23004,0.1121043 -0.34675,0.1663981 -0.1167,0.054294 -0.23464,0.1074279 -0.35346,0.1591634 -0.11883,0.051736 -0.23872,0.1022956 -0.35967,0.151412 -0.12095,0.049116 -0.24278,0.096707 -0.36587,0.1431437 -0.12309,0.046436 -0.24736,0.091697 -0.37259,0.1353922 -0.12523,0.043695 -0.2514,0.085714 -0.37879,0.1266073 -0.12738,0.040893 -0.25596,0.080309 -0.3855,0.118339 -0.12955,0.03803 -0.25999,0.074965 -0.39171,0.1100708 -0.13172,0.035106 -0.26453,0.068648 -0.39842,0.1007691 -0.1339,0.032121 -0.26906,0.062908 -0.40515,0.091984 -0.13608,0.029076 -0.27306,0.056196 -0.41134,0.082166 -0.13828,0.025969 -0.27809,0.050579 -0.41858,0.07338 -0.14049,0.022802 -0.28208,0.043989 -0.42478,0.063562 -0.14271,0.019573 -0.28605,0.03746 -0.43098,0.053743 -0.14493,0.016283 -0.29106,0.030992 -0.43822,0.043925 -0.14716,0.012933 -0.29553,0.024068 -0.44493,0.03359 -0.14941,0.00952 -0.3,0.017205 -0.45165,0.023254 -0.15166,0.00605 -0.30446,0.010403 -0.45837,0.012919 -0.15392,0.00252 -0.30891,0.00314 -0.46509,0.00207 -0.15619,-0.00108 -0.31335,-0.00354 -0.47181,-0.00827 -0.15846,-0.00473 -0.31829,-0.011705 -0.47904,-0.020154 -0.16075,-0.00845 -0.32271,-0.01878 -0.48576,-0.031006 -0.16304,-0.012226 -0.32712,-0.026311 -0.49247,-0.042375 -0.16535,-0.016064 -0.33205,-0.033781 -0.49972,-0.053743 -0.16766,-0.019963 -0.33644,-0.042223 -0.50642,-0.066146 -0.16999,-0.023922 -0.34083,-0.049571 -0.51315,-0.077515 -0.17232,-0.027943 -0.34624,-0.057892 -0.5209,-0.089917 -0.17466,-0.032025 -0.35009,-0.066152 -0.5271,-0.1023194 -0.17701,-0.036167 -0.35548,-0.074351 -0.53485,-0.1147217 -0.17937,-0.040371 -0.35983,-0.083006 -0.54157,-0.1276407 -0.18173,-0.044635 -0.36469,-0.091599 -0.5488,-0.1405599 -0.18411,-0.048961 -0.36955,-0.1001322 -0.55604,-0.153479 -0.1865,-0.053347 -0.37387,-0.1086041 -0.56276,-0.1663982 -0.18889,-0.057794 -0.37921,-0.1180485 -0.57051,-0.1803507 -0.19129,-0.062302 -0.38352,-0.1269153 -0.57722,-0.1937866 -0.19371,-0.066871 -0.38885,-0.1357212 -0.58498,-0.2072225 -0.19612,-0.071501 -0.39365,-0.1454996 -0.59221,-0.2216919 -0.19856,-0.076192 -0.39794,-0.1547004 -0.59893,-0.2356445 -0.29837,-0.1682794 -0.58637,-0.3364839 -0.86403,-0.504362 -0.27766,-0.1678782 -0.54525,-0.3353917 -0.80254,-0.5028117 -0.12864,-0.08371 -0.25465,-0.1675627 -0.37827,-0.2511475 -0.12361,-0.083585 -0.24465,-0.1671782 -0.36328,-0.2506307 -0.11863,-0.083452 -0.23462,-0.1668009 -0.3483,-0.2501139 -0.11368,-0.083313 -0.22505,-0.1664307 -0.33383,-0.2495972 -0.10878,-0.083166 -0.21544,-0.1660676 -0.31936,-0.2490804 -0.10392,-0.083013 -0.20527,-0.1662284 -0.30438,-0.2490804 -0.0991,-0.082852 -0.19557,-0.1653628 -0.2899,-0.2480468 -0.0943,-0.082684 -0.18635,-0.165538 -0.27595,-0.2480469 -0.0896,-0.082509 -0.17709,-0.1646866 -0.262,-0.2470134 -0.0849,-0.082327 -0.16727,-0.1648758 -0.24753,-0.2470133 -0.0803,-0.082137 -0.15844,-0.1640387 -0.2341,-0.2459798 -0.0757,-0.081941 -0.14904,-0.1637255 -0.22014,-0.2454631 -0.0711,-0.081738 -0.13961,-0.1634193 -0.20619,-0.2449463 -0.0666,-0.081527 -0.13117,-0.1626032 -0.19327,-0.2439122 -0.0621,-0.08131 -0.12165,-0.162829 -0.17931,-0.243913 -0.0577,-0.08108 -0.11313,-0.162027 -0.1664,-0.242879 -0.0533,-0.08085 -0.10456,-0.16175 -0.15348,-0.242363 -0.0489,-0.08061 -0.0954,-0.160962 -0.14004,-0.241329 -0.0446,-0.08037 -0.0873,-0.160698 -0.12764,-0.240812 -0.0403,-0.08011 -0.0786,-0.159925 -0.11473,-0.239778 -0.0361,-0.07985 -0.0704,-0.159677 -0.10232,-0.239262 -0.0319,-0.07959 -0.0616,-0.158918 -0.0894,-0.238229 -0.0278,-0.07931 -0.0538,-0.158682 -0.0775,-0.237711 -0.0237,-0.07903 -0.0449,-0.157938 -0.0646,-0.236678 -0.0197,-0.07874 -0.0376,-0.157201 -0.0532,-0.235645 -0.0156,-0.07844 -0.0292,-0.15647 -0.0408,-0.234611 -0.0117,-0.07814 -0.0217,-0.156264 -0.0294,-0.234094 -0.008,-0.07783 -0.0132,-0.155548 -0.0171,-0.233061 -0.004,-0.07751 -0.006,-0.154839 -0.006,-0.232027 -3e-5,-0.07719 0.002,-0.154137 0.006,-0.230994 0.004,-0.07686 0.01,-0.153442 0.0171,-0.22996 0.008,-0.07652 0.0167,-0.153271 0.0279,-0.229443 0.0112,-0.07617 0.0244,-0.152074 0.0393,-0.227893 0.0149,-0.07582 0.0316,-0.151401 0.0501,-0.22686 0.0185,-0.07546 0.0389,-0.150734 0.061,-0.225826 0.0221,-0.07509 0.0462,-0.150075 0.0718,-0.224792 0.0257,-0.07472 0.053,-0.148907 0.0822,-0.223242 0.0292,-0.07434 0.0604,-0.148779 0.093,-0.222726 0.0326,-0.07395 0.0668,-0.147624 0.10283,-0.221175 0.036,-0.07355 0.0738,-0.146993 0.11317,-0.220142 0.0394,-0.07315 0.0808,-0.145852 0.12351,-0.218591 0.0427,-0.07274 0.0868,-0.145236 0.13281,-0.217558 0.046,-0.07232 0.0939,-0.144627 0.14314,-0.216524 0.0493,-0.0719 0.1,-0.143508 0.15245,-0.214974 0.0525,-0.07147 0.10661,-0.142913 0.16226,-0.21394 0.0556,-0.07103 0.1128,-0.141809 0.17157,-0.21239 0.11753,-0.141164 0.24128,-0.281308 0.37104,-0.420647 0.12975,-0.139338 0.26556,-0.278021 0.40721,-0.415478 0.14164,-0.137457 0.28916,-0.27376 0.44235,-0.409277 0.15318,-0.135518 0.31206,-0.270071 0.47645,-0.403593 0.16439,-0.133522 0.33428,-0.265923 0.50953,-0.397392 0.17526,-0.131469 0.35631,-0.261831 0.54209,-0.391191 0.18578,-0.129359 0.37661,-0.257796 0.57257,-0.384989 0.19597,-0.127193 0.39674,-0.253303 0.60255,-0.378272 0.20581,-0.124969 0.41668,-0.248865 0.632,-0.371553 0.21532,-0.122689 0.43542,-0.243968 0.65991,-0.364319 0.22449,-0.120351 0.45346,-0.239645 0.68678,-0.357601 0.23332,-0.117956 0.47081,-0.234861 0.71262,-0.350366 0.2418,-0.115505 0.48747,-0.229619 0.73742,-0.342615 0.24996,-0.112996 0.50395,-0.224949 0.76171,-0.33538 0.25777,-0.110431 0.51973,-0.219303 0.78497,-0.327112 0.26523,-0.107808 0.53378,-0.214231 0.80615,-0.31936 0.27237,-0.105129 0.54818,-0.209216 0.82734,-0.311609 0.27916,-0.102393 0.56188,-0.203224 0.84749,-0.302824 0.28561,-0.0996 0.57438,-0.197806 0.8661,-0.294556 0.29172,-0.09675 0.58617,-0.191928 0.88367,-0.28577 0.29749,-0.09384 0.59779,-0.186107 0.90072,-0.276986 0.30293,-0.09088 0.60871,-0.180343 0.91674,-0.268201 0.30802,-0.08786 0.61843,-0.174119 0.93121,-0.258899 0.31277,-0.08478 0.62797,-0.168469 0.94516,-0.250113 0.31719,-0.08165 0.63629,-0.161326 0.95756,-0.239779 0.32127,-0.07845 0.64445,-0.155273 0.96945,-0.230477 0.32501,-0.0752 0.6519,-0.14876 0.9803,-0.220658 0.32841,-0.0719 0.65867,-0.142305 0.99012,-0.21084 0.33146,-0.06854 0.66422,-0.135389 0.99839,-0.200505 0.33418,-0.06512 0.66959,-0.12853 1.00614,-0.190169 0.33656,-0.06164 0.67427,-0.121729 1.01286,-0.179834 0.33859,-0.05811 0.67825,-0.11395 1.01854,-0.168465 0.3403,-0.05451 0.68103,-0.107263 1.02268,-0.15813 0.34165,-0.05087 0.68414,-0.100115 1.02681,-0.147278 0.34267,-0.04716 0.68552,-0.09251 1.02888,-0.135909 0.34335,-0.0434 0.68725,-0.08496 1.03094,-0.12454 0.3437,-0.03958 0.68725,-0.07695 1.03095,-0.112655 0.3437,-0.03571 0.68758,-0.06951 1.03094,-0.101286 0.34336,-0.03177 0.6862,-0.06161 1.02888,-0.0894 z"
         sodipodi:nodetypes="cccccccsssssssssssssssssssssssssssssssssssssssssssssssssssssssssssssssssssssssssssssssssssssssssscssssssssssssssssssssssssssssssssssssssssssssssssssssssssssssssssssssssssssssssssssssssc" />
      <path
         style="fill:#c4dcdb;fill-opacity:1;stroke:#000000;stroke-width:1.32292;stroke-linecap:butt;stroke-linejoin:miter;stroke-dasharray:none;stroke-opacity:1"
         d="m 137.58333,-62.833349 c 40.99268,-5.514007 83.89741,-7.550359 121.70834,-15.874998 15.33224,-5.361357 10.19775,-3.625138 21.16666,-10.583333 L 174.625,-78.708349 v 5.291667 z"
         id="path3578"
         sodipodi:nodetypes="cccccc" />
      <path
         style="fill:#c4dcdb;fill-opacity:1;stroke:#000000;stroke-width:1.32292;stroke-linecap:butt;stroke-linejoin:miter;stroke-dasharray:none;stroke-opacity:1"
         d="m 161.39583,-33.72918 87.3125,-97.89583 c -7.96085,1.18625 -12.48228,3.21602 -18.52083,7.9375 -20.05117,19.66278 -37.25201,41.04424 -56.09167,61.647911 z"
         id="path3576"
         sodipodi:nodetypes="ccccc" />
      <ellipse
         style="fill:#000000;fill-opacity:1;stroke:none;stroke-width:6.61458;stroke-dasharray:none"
         id="path3580"
         cx="192.48438"
         cy="-75.401054"
         rx="3.3072956"
         ry="3.3072925" />
    </g>
  </g>
</svg>
